<svg width="217" height="37" viewBox="0 0 217 37" fill="none" xmlns="http://www.w3.org/2000/svg">
<path d="M30.4269 35.9962C30.1558 35.9973 29.8913 35.9153 29.671 35.7619L19.3174 28.4786L8.96389 35.7619C8.74269 35.9176 8.47621 36.001 8.20296 36C7.9297 35.999 7.66385 35.9138 7.44382 35.7565C7.2238 35.5993 7.06101 35.3783 6.97898 35.1253C6.89696 34.8724 6.89995 34.6008 6.98753 34.3496L11.0256 22.7442L0.560139 15.7804C0.333451 15.6297 0.162359 15.4126 0.0718629 15.1609C-0.0186334 14.9091 -0.0237918 14.6359 0.0571415 14.3811C0.138075 14.1263 0.300858 13.9033 0.521708 13.7447C0.742557 13.5861 1.0099 13.5001 1.28467 13.4994H14.1958L18.0922 1.86435C18.1761 1.61315 18.3399 1.39421 18.56 1.23893C18.7801 1.08364 19.0453 1 19.3174 1C19.5896 1 19.8547 1.08364 20.0749 1.23893C20.295 1.39421 20.4588 1.61315 20.5427 1.86435L24.4391 13.5033H37.3502C37.6253 13.5032 37.8932 13.5885 38.1148 13.7469C38.3363 13.9052 38.4997 14.1282 38.5812 14.3832C38.6626 14.6381 38.6578 14.9117 38.5674 15.1639C38.477 15.416 38.3057 15.6334 38.0788 15.7843L27.6093 22.7442L31.6449 34.3465C31.7103 34.5343 31.7287 34.7346 31.6986 34.9307C31.6685 35.1268 31.5907 35.3131 31.4717 35.4743C31.3527 35.6355 31.1959 35.7668 31.0142 35.8576C30.8326 35.9484 30.6312 35.9959 30.4269 35.9962Z" fill="#D14E5D"/>
<path d="M214 16.2564H200.307L196.167 3.91667L192.027 16.2564H178.333L189.479 23.6603L185.18 36L196.167 28.2877L207.153 36L202.854 23.6603L214 16.2564Z" fill="#D14E5D"/>
<path d="M164.177 35.9962C163.906 35.9973 163.641 35.9153 163.421 35.7619L153.067 28.4786L142.714 35.7619C142.493 35.9176 142.226 36.001 141.953 36C141.68 35.999 141.414 35.9138 141.194 35.7565C140.974 35.5993 140.811 35.3783 140.729 35.1253C140.647 34.8724 140.65 34.6008 140.738 34.3496L144.776 22.7442L134.31 15.7804C134.083 15.6297 133.912 15.4126 133.822 15.1609C133.731 14.9091 133.726 14.6359 133.807 14.3811C133.888 14.1263 134.051 13.9033 134.272 13.7447C134.493 13.5861 134.76 13.5001 135.035 13.4994H147.946L151.842 1.86435C151.926 1.61315 152.09 1.39421 152.31 1.23893C152.53 1.08364 152.795 1 153.067 1C153.34 1 153.605 1.08364 153.825 1.23893C154.045 1.39421 154.209 1.61315 154.293 1.86435L158.189 13.5033H171.1C171.375 13.5032 171.643 13.5885 171.865 13.7469C172.086 13.9052 172.25 14.1282 172.331 14.3832C172.413 14.6381 172.408 14.9117 172.317 15.1639C172.227 15.416 172.056 15.6334 171.829 15.7843L161.359 22.7442L165.395 34.3465C165.46 34.5343 165.479 34.7346 165.449 34.9307C165.418 35.1268 165.341 35.3131 165.222 35.4743C165.103 35.6355 164.946 35.7668 164.764 35.8576C164.583 35.9484 164.381 35.9959 164.177 35.9962Z" fill="#D14E5D"/>
<path d="M119.594 35.9962C119.322 35.9973 119.058 35.9153 118.838 35.7619L108.484 28.4786L98.1306 35.7619C97.9094 35.9176 97.6429 36.001 97.3696 36C97.0964 35.999 96.8305 35.9138 96.6105 35.7565C96.3905 35.5993 96.2277 35.3783 96.1457 35.1253C96.0636 34.8724 96.0666 34.6008 96.1542 34.3496L100.192 22.7442L89.7268 15.7804C89.5001 15.6297 89.329 15.4126 89.2385 15.1609C89.148 14.9091 89.1429 14.6359 89.2238 14.3811C89.3047 14.1263 89.4675 13.9033 89.6884 13.7447C89.9092 13.5861 90.1766 13.5001 90.4513 13.4994H103.362L107.259 1.86435C107.343 1.61315 107.507 1.39421 107.727 1.23893C107.947 1.08364 108.212 1 108.484 1C108.756 1 109.021 1.08364 109.242 1.23893C109.462 1.39421 109.625 1.61315 109.709 1.86435L113.606 13.5033H126.517C126.792 13.5032 127.06 13.5885 127.281 13.7469C127.503 13.9052 127.666 14.1282 127.748 14.3832C127.829 14.6381 127.824 14.9117 127.734 15.1639C127.644 15.416 127.472 15.6334 127.245 15.7843L116.776 22.7442L120.812 34.3465C120.877 34.5343 120.895 34.7346 120.865 34.9307C120.835 35.1268 120.757 35.3131 120.638 35.4743C120.519 35.6355 120.363 35.7668 120.181 35.8576C119.999 35.9484 119.798 35.9959 119.594 35.9962Z" fill="#D14E5D"/>
<path d="M75.0102 35.9962C74.7391 35.9973 74.4746 35.9153 74.2543 35.7619L63.9008 28.4786L53.5472 35.7619C53.326 35.9176 53.0595 36.001 52.7863 36C52.513 35.999 52.2472 35.9138 52.0272 35.7565C51.8071 35.5993 51.6443 35.3783 51.5623 35.1253C51.4803 34.8724 51.4833 34.6008 51.5709 34.3496L55.6089 22.7442L45.1435 15.7804C44.9168 15.6297 44.7457 15.4126 44.6552 15.1609C44.5647 14.9091 44.5595 14.6359 44.6405 14.3811C44.7214 14.1263 44.8842 13.9033 45.105 13.7447C45.3259 13.5861 45.5932 13.5001 45.868 13.4994H58.7791L62.6755 1.86435C62.7594 1.61315 62.9232 1.39421 63.1433 1.23893C63.3635 1.08364 63.6286 1 63.9008 1C64.1729 1 64.4381 1.08364 64.6582 1.23893C64.8783 1.39421 65.0421 1.61315 65.126 1.86435L69.0224 13.5033H81.9335C82.2086 13.5032 82.4766 13.5885 82.6981 13.7469C82.9196 13.9052 83.083 14.1282 83.1645 14.3832C83.2459 14.6381 83.2411 14.9117 83.1507 15.1639C83.0603 15.416 82.8891 15.6334 82.6621 15.7843L72.1926 22.7442L76.2283 34.3465C76.2936 34.5343 76.312 34.7346 76.2819 34.9307C76.2518 35.1268 76.174 35.3131 76.055 35.4743C75.936 35.6355 75.7792 35.7668 75.5976 35.8576C75.4159 35.9484 75.2146 35.9959 75.0102 35.9962Z" fill="#D14E5D"/>
<path d="M178 14.4615H192.589L197 1L201.411 14.4615H216L204.125 22.5385L208.705 36L197 27.5865L185.295 36L189.875 22.5385L178 14.4615Z" fill="#D14E5D" stroke="#D14E5D" stroke-width="2" stroke-linejoin="round"/>
</svg>
