<svg width="63" height="63" viewBox="0 0 63 63" fill="none" xmlns="http://www.w3.org/2000/svg">
<path d="M39.6012 31.3511L43.6504 27.3019L31.5 15.1486L19.3496 27.299L23.4016 31.3482L28.6364 26.1164L28.6364 47.6996H34.3636V26.1164L39.6012 31.3511Z" fill="#D14E5D"/>
<path fill-rule="evenodd" clip-rule="evenodd" d="M53.7734 9.22664C41.4712 -3.07555 21.5288 -3.07555 9.22664 9.22664C-3.07554 21.5288 -3.07554 41.4712 9.22664 53.7734C21.5288 66.0755 41.4712 66.0755 53.7734 53.7734C66.0755 41.4712 66.0755 21.5288 53.7734 9.22664ZM49.7242 13.2758C44.8908 8.44247 38.3354 5.72711 31.5 5.72711C24.6646 5.72711 18.1092 8.44247 13.2758 13.2758C8.44246 18.1092 5.72711 24.6646 5.72711 31.5C5.72711 38.3354 8.44246 44.8908 13.2758 49.7242C18.1092 54.5575 24.6646 57.2729 31.5 57.2729C38.3354 57.2729 44.8908 54.5575 49.7242 49.7242C54.5575 44.8908 57.2729 38.3354 57.2729 31.5C57.2729 24.6646 54.5575 18.1092 49.7242 13.2758Z" fill="#D14E5D"/>
</svg>
