<svg width="372" height="225" viewBox="0 0 372 225" fill="none" xmlns="http://www.w3.org/2000/svg">
<path d="M132.053 19C131.906 19 131.8 18.9186 131.735 18.7559C131.67 18.5931 131.638 18.467 131.638 18.3774C131.638 18.1089 131.772 17.9583 132.041 17.9258C132.423 17.9014 132.806 17.8607 133.188 17.8037C133.579 17.7386 133.9 17.6287 134.152 17.4741C134.413 17.3114 134.543 17.0794 134.543 16.7783L134.555 2.88672H131.479C131.137 2.88672 130.848 3.04948 130.612 3.375C130.376 3.70052 130.189 4.09521 130.051 4.55908C129.912 5.01481 129.811 5.45426 129.746 5.87744C129.681 6.30062 129.64 6.60986 129.624 6.80518C129.607 6.9598 129.53 7.06559 129.392 7.12256C129.261 7.17952 129.131 7.20801 129.001 7.20801C128.911 7.20801 128.785 7.17546 128.623 7.11035C128.46 7.03711 128.378 6.93132 128.378 6.79297C128.395 6.39421 128.415 5.90999 128.439 5.34033C128.464 4.76253 128.492 4.19694 128.525 3.64355C128.557 3.08203 128.594 2.6141 128.635 2.23975C128.675 1.8654 128.716 1.67822 128.757 1.67822H143.845C143.894 1.67822 143.938 1.8654 143.979 2.23975C144.02 2.6141 144.056 3.08203 144.089 3.64355C144.121 4.19694 144.15 4.76253 144.174 5.34033C144.199 5.90999 144.215 6.39421 144.223 6.79297C144.223 6.93132 144.142 7.03711 143.979 7.11035C143.816 7.17546 143.69 7.20801 143.601 7.20801C143.47 7.20801 143.34 7.17952 143.21 7.12256C143.08 7.06559 143.002 6.9598 142.978 6.80518C142.962 6.60986 142.921 6.30062 142.856 5.87744C142.791 5.45426 142.689 5.01481 142.551 4.55908C142.412 4.09521 142.225 3.70052 141.989 3.375C141.761 3.04948 141.472 2.88672 141.123 2.88672H138.168V16.7417C138.168 17.0916 138.303 17.348 138.571 17.5107C138.848 17.6654 139.178 17.7671 139.56 17.8159C139.943 17.8647 140.301 17.9014 140.634 17.9258C140.805 17.9421 140.919 17.9746 140.976 18.0234C141.041 18.0723 141.074 18.1903 141.074 18.3774C141.074 18.467 141.037 18.5931 140.964 18.7559C140.899 18.9186 140.797 19 140.659 19H132.053ZM150.9 19.3296C150.184 19.3296 149.529 19.236 148.935 19.0488C148.341 18.8698 147.865 18.5199 147.507 17.999C147.157 17.4782 146.982 16.7132 146.982 15.7041V9.00244C146.982 8.65251 146.909 8.40023 146.762 8.24561C146.624 8.08285 146.445 7.97705 146.225 7.92822C146.014 7.87126 145.81 7.83464 145.615 7.81836C145.444 7.80208 145.326 7.76953 145.261 7.7207C145.204 7.66374 145.175 7.54574 145.175 7.3667C145.175 7.27718 145.208 7.17139 145.273 7.04932C145.346 6.92725 145.452 6.86621 145.59 6.86621H149.912C150.213 6.86621 150.363 7.0127 150.363 7.30566V14.9595C150.363 15.6431 150.457 16.2371 150.644 16.7417C150.839 17.2463 151.222 17.4985 151.792 17.4985C152.532 17.4985 153.146 17.3846 153.635 17.1567C154.131 16.9207 154.579 16.5871 154.978 16.1558V9.00244C154.978 8.65251 154.884 8.40023 154.697 8.24561C154.51 8.08285 154.278 7.97705 154.001 7.92822C153.732 7.87939 153.468 7.84277 153.208 7.81836C153.037 7.80208 152.919 7.76953 152.854 7.7207C152.797 7.66374 152.768 7.54574 152.768 7.3667C152.768 7.27718 152.801 7.17139 152.866 7.04932C152.939 6.92725 153.045 6.86621 153.183 6.86621H157.895C158.196 6.86621 158.347 7.0127 158.347 7.30566V16.3389C158.347 16.9167 158.4 17.2829 158.505 17.4375C158.619 17.5921 158.741 17.6694 158.872 17.6694C159.14 17.6694 159.348 17.6369 159.494 17.5718C159.632 17.5148 159.746 17.5881 159.836 17.7915C159.925 17.995 159.97 18.1781 159.97 18.3408C159.97 18.4466 159.95 18.5158 159.909 18.5483C159.755 18.6623 159.417 18.8169 158.896 19.0122C158.383 19.2075 157.671 19.3052 156.76 19.3052C156.304 19.3052 155.958 19.1953 155.722 18.9756C155.494 18.7559 155.34 18.4914 155.258 18.1821C155.177 17.8647 155.132 17.5596 155.124 17.2666C154.896 17.6003 154.558 17.9258 154.111 18.2432C153.671 18.5605 153.171 18.821 152.609 19.0244C152.048 19.2279 151.478 19.3296 150.9 19.3296ZM168.186 19.354C165.939 19.354 164.279 18.7843 163.205 17.645C162.139 16.5057 161.606 14.9188 161.606 12.8843C161.606 11.5252 161.903 10.3818 162.497 9.4541C163.091 8.51823 163.872 7.81429 164.841 7.34229C165.817 6.86214 166.875 6.62207 168.015 6.62207C169.789 6.62207 171.079 6.99642 171.884 7.74512C172.698 8.49382 173.215 9.51107 173.435 10.7969C173.483 11.0898 173.516 11.4154 173.532 11.7734C173.549 12.1234 173.557 12.4692 173.557 12.811L165.292 12.8232C165.292 14.0846 165.48 15.0815 165.854 15.814C166.228 16.5382 166.692 17.055 167.246 17.3643C167.807 17.6735 168.369 17.8281 168.93 17.8281C169.63 17.8281 170.236 17.7223 170.749 17.5107C171.262 17.291 171.693 16.9411 172.043 16.4609C172.076 16.4202 172.112 16.3755 172.153 16.3267C172.194 16.2697 172.255 16.2534 172.336 16.2778L172.897 16.5342C172.979 16.5749 173.02 16.6237 173.02 16.6807C173.02 16.7295 172.995 16.7987 172.946 16.8882C172.548 17.6125 171.958 18.2065 171.176 18.6704C170.395 19.1261 169.398 19.354 168.186 19.354ZM165.329 11.7124L169.907 11.688C169.907 10.272 169.74 9.25472 169.406 8.63623C169.081 8.0096 168.605 7.69629 167.978 7.69629C167.294 7.69629 166.704 7.98112 166.208 8.55078C165.72 9.12044 165.427 10.1743 165.329 11.7124ZM180.417 19.354C179.742 19.354 179.16 19.2686 178.671 19.0977C178.191 18.9349 177.841 18.8047 177.622 18.707C177.426 18.6338 177.264 18.5972 177.133 18.5972C176.946 18.5972 176.816 18.6338 176.743 18.707C176.669 18.7721 176.592 18.8413 176.511 18.9146C176.438 18.9797 176.303 19.0122 176.108 19.0122C175.953 19.0122 175.815 18.9797 175.693 18.9146C175.579 18.8413 175.522 18.7477 175.522 18.6338C175.522 18.4873 175.514 18.2554 175.498 17.938C175.489 17.6125 175.477 17.2625 175.461 16.8882C175.445 16.5057 175.428 16.1476 175.412 15.814C175.404 15.4803 175.4 15.228 175.4 15.0571C175.4 14.87 175.457 14.7357 175.571 14.6543C175.693 14.5729 175.823 14.5322 175.961 14.5322C176.254 14.5322 176.425 14.6217 176.474 14.8008C176.523 14.9798 176.588 15.1955 176.669 15.4478C176.759 15.6919 176.918 16.0459 177.146 16.5098C177.357 16.9167 177.727 17.3195 178.256 17.7183C178.793 18.117 179.465 18.3164 180.271 18.3164C180.946 18.3164 181.495 18.1903 181.918 17.938C182.342 17.6857 182.553 17.3114 182.553 16.8149C182.553 16.2127 182.268 15.7244 181.699 15.3501C181.137 14.9757 180.258 14.5607 179.062 14.105C178.533 13.8934 178.012 13.6248 177.5 13.2993C176.995 12.9738 176.572 12.5628 176.23 12.0664C175.896 11.57 175.729 10.9637 175.729 10.2476C175.729 9.53141 175.953 8.90072 176.401 8.35547C176.848 7.81022 177.438 7.38704 178.171 7.08594C178.903 6.77669 179.701 6.62207 180.563 6.62207C181.337 6.62207 181.951 6.7238 182.407 6.92725C182.862 7.12256 183.184 7.22021 183.371 7.22021C183.55 7.22021 183.652 7.17546 183.676 7.08594C183.709 6.99642 183.75 6.9069 183.798 6.81738C183.896 6.64648 184.075 6.56104 184.335 6.56104C184.49 6.56104 184.628 6.60173 184.75 6.68311C184.873 6.75635 184.934 6.85807 184.934 6.98828C184.934 7.06152 184.925 7.2609 184.909 7.58643C184.901 7.90381 184.897 8.24967 184.897 8.62402C184.897 8.90885 184.909 9.16927 184.934 9.40527C184.958 9.64128 184.97 9.84473 184.97 10.0156C184.97 10.2354 184.913 10.39 184.799 10.4795C184.685 10.569 184.555 10.6138 184.409 10.6138C184.14 10.6138 183.981 10.5405 183.933 10.394C183.811 10.0522 183.636 9.66976 183.408 9.24658C183.188 8.8234 182.862 8.45719 182.431 8.14795C182.008 7.83057 181.426 7.67188 180.686 7.67188C180.205 7.67188 179.77 7.78174 179.379 8.00146C178.997 8.22119 178.806 8.5874 178.806 9.1001C178.806 9.66162 179.046 10.1174 179.526 10.4673C180.014 10.8091 180.706 11.1468 181.601 11.4805C182.325 11.749 183.009 12.0583 183.652 12.4082C184.303 12.7581 184.828 13.1895 185.227 13.7021C185.633 14.2067 185.837 14.8333 185.837 15.582C185.837 16.7783 185.369 17.7061 184.433 18.3652C183.497 19.0244 182.159 19.354 180.417 19.354ZM193.161 19.354C191.843 19.354 190.785 19.0529 189.987 18.4507C189.198 17.8485 188.628 17.0632 188.278 16.0947C187.928 15.1263 187.753 14.0928 187.753 12.9941C187.753 11.8955 187.969 10.862 188.4 9.89355C188.84 8.92513 189.503 8.13981 190.39 7.5376C191.277 6.92725 192.404 6.62207 193.771 6.62207C194.431 6.62207 195.017 6.67904 195.529 6.79297C196.05 6.9069 196.559 7.13477 197.055 7.47656L196.933 5.51123V2.74023C196.933 2.31706 196.811 2.00374 196.567 1.80029C196.331 1.59684 196.026 1.4585 195.651 1.38525C195.285 1.31201 194.911 1.25505 194.528 1.21436C194.439 1.17367 194.366 1.12077 194.309 1.05566C194.26 0.99056 194.235 0.880697 194.235 0.726074C194.235 0.628418 194.26 0.514486 194.309 0.384277C194.357 0.254069 194.431 0.188965 194.528 0.188965C195.22 0.140137 195.924 0.107585 196.64 0.0913086C197.364 0.0750326 198.02 0.0668945 198.605 0.0668945C199.191 0.0587565 199.631 0.0546875 199.924 0.0546875C199.989 0.0546875 200.066 0.0913086 200.156 0.164551C200.245 0.229655 200.29 0.359863 200.29 0.555176V16.8638C200.29 17.3846 200.441 17.7061 200.742 17.8281C201.051 17.9421 201.356 18.0153 201.657 18.0479C201.828 18.0641 201.942 18.0967 201.999 18.1455C202.064 18.1943 202.097 18.3123 202.097 18.4995C202.097 18.589 202.06 18.6948 201.987 18.8169C201.922 18.939 201.82 19 201.682 19H197.934C197.454 19 197.177 18.8942 197.104 18.6826C197.031 18.4629 196.998 18.1414 197.006 17.7183C196.583 18.2554 196.001 18.6623 195.261 18.939C194.528 19.2157 193.828 19.354 193.161 19.354ZM194.614 17.7671C195.013 17.7671 195.44 17.6613 195.896 17.4497C196.359 17.2381 196.705 16.9451 196.933 16.5708V9.17334C196.795 8.83154 196.51 8.53044 196.079 8.27002C195.655 8.00146 195.208 7.86719 194.736 7.86719C193.873 7.86719 193.202 8.08691 192.722 8.52637C192.242 8.95768 191.9 9.5599 191.696 10.333C191.501 11.1061 191.403 11.9932 191.403 12.9941C191.403 13.9137 191.501 14.7316 191.696 15.4478C191.892 16.1639 192.221 16.7295 192.685 17.1445C193.157 17.5596 193.8 17.7671 194.614 17.7671ZM203.696 16.0459C203.696 15.2321 203.928 14.5648 204.392 14.0439C204.864 13.515 205.478 13.0959 206.235 12.7866C206.992 12.4692 207.81 12.2292 208.688 12.0664C209.567 11.9036 210.418 11.7816 211.24 11.7002V9.72266C211.24 8.41243 210.556 7.75732 209.189 7.75732C208.798 7.75732 208.509 7.78174 208.322 7.83057C208.143 7.87126 208.009 7.91602 207.919 7.96484L206.125 11.1387C205.547 11.1387 205.071 10.9963 204.697 10.7114C204.322 10.4266 204.135 10.0238 204.135 9.50293C204.135 9.03092 204.306 8.61589 204.648 8.25781C204.99 7.89974 205.437 7.59863 205.991 7.35449C206.544 7.11035 207.146 6.92725 207.797 6.80518C208.448 6.68311 209.087 6.62207 209.714 6.62207C210.951 6.62207 211.931 6.78483 212.656 7.11035C213.388 7.43587 213.913 7.87126 214.23 8.4165C214.548 8.95361 214.707 9.54362 214.707 10.1865V16.5708C214.707 16.8882 214.751 17.1649 214.841 17.4009C214.93 17.6369 215.04 17.7549 215.17 17.7549C215.284 17.7549 215.439 17.7345 215.634 17.6938C215.838 17.6532 215.976 17.6247 216.049 17.6084C216.196 17.6003 216.302 17.6735 216.367 17.8281C216.432 17.9746 216.464 18.117 216.464 18.2554C216.464 18.3612 216.44 18.4303 216.391 18.4629C216.228 18.5768 215.854 18.7437 215.268 18.9634C214.682 19.175 213.966 19.2808 213.12 19.2808C212.469 19.2808 212.025 19.1831 211.789 18.9878C211.561 18.7843 211.447 18.3571 211.447 17.7061V17.5107C210.918 18.113 210.304 18.5605 209.604 18.8535C208.904 19.1383 208.127 19.2808 207.272 19.2808C206.776 19.2808 206.251 19.175 205.698 18.9634C205.144 18.7518 204.672 18.41 204.282 17.938C203.891 17.4578 203.696 16.8271 203.696 16.0459ZM207.346 15.936C207.346 16.3755 207.484 16.7702 207.761 17.1201C208.046 17.4701 208.457 17.645 208.994 17.645C209.563 17.645 210.031 17.5392 210.397 17.3276C210.772 17.1079 211.049 16.8923 211.228 16.6807V12.6401C210.585 12.7378 209.966 12.8802 209.372 13.0674C208.778 13.2546 208.29 13.5679 207.907 14.0073C207.533 14.4468 207.346 15.0897 207.346 15.936ZM219.956 24.481C219.573 24.481 219.195 24.3955 218.82 24.2246C218.446 24.0618 218.133 23.8381 217.88 23.5532C217.636 23.2684 217.514 22.9429 217.514 22.5767C217.514 22.0965 217.64 21.7262 217.893 21.4658C218.145 21.2135 218.442 21.0874 218.784 21.0874L220.2 22.6133C220.769 22.597 221.258 22.3366 221.665 21.832C222.08 21.3356 222.556 20.5381 223.093 19.4395L218.344 8.88037C218.125 8.45719 217.893 8.18457 217.648 8.0625C217.412 7.93229 217.148 7.85091 216.855 7.81836C216.684 7.80208 216.57 7.76953 216.513 7.7207C216.448 7.66374 216.416 7.54574 216.416 7.3667C216.416 7.27718 216.448 7.17139 216.513 7.04932C216.578 6.92725 216.68 6.86621 216.818 6.86621H223.166C223.304 6.86621 223.406 6.92725 223.471 7.04932C223.544 7.17139 223.581 7.27718 223.581 7.3667C223.581 7.63525 223.447 7.78581 223.178 7.81836C222.902 7.85091 222.613 7.89974 222.312 7.96484C222.01 8.02995 221.86 8.16829 221.86 8.37988L224.729 15.8628L227.304 8.39209C227.304 8.17236 227.141 8.02995 226.816 7.96484C226.499 7.89974 226.197 7.85091 225.913 7.81836C225.644 7.78581 225.51 7.63525 225.51 7.3667C225.51 7.27718 225.542 7.17139 225.607 7.04932C225.681 6.92725 225.786 6.86621 225.925 6.86621H230.185C230.323 6.86621 230.425 6.92725 230.49 7.04932C230.563 7.17139 230.6 7.27718 230.6 7.3667C230.6 7.54574 230.568 7.66374 230.502 7.7207C230.445 7.76953 230.332 7.80208 230.161 7.81836C229.868 7.85091 229.615 7.93229 229.404 8.0625C229.2 8.18457 228.997 8.45719 228.793 8.88037L225.302 17.7061C224.96 18.5524 224.615 19.3743 224.265 20.1719C223.923 20.9775 223.549 21.7059 223.142 22.3569C222.735 23.008 222.271 23.5247 221.75 23.9072C221.237 24.2897 220.639 24.481 219.956 24.481Z" fill="#2E2618"/>
<path d="M20.1328 221C20.0221 221 19.9375 220.951 19.8789 220.854C19.8268 220.756 19.8008 220.671 19.8008 220.6C19.8008 220.372 19.9082 220.248 20.123 220.229C20.3314 220.209 20.5723 220.18 20.8457 220.141C21.1191 220.095 21.3568 220.03 21.5586 219.945C21.7669 219.861 21.8711 219.747 21.8711 219.604L21.8809 211.146C21.6009 211.316 21.3112 211.459 21.0117 211.576C20.7188 211.693 20.4355 211.752 20.1621 211.752C19.9798 211.752 19.8561 211.664 19.791 211.488C19.7324 211.312 19.7031 211.189 19.7031 211.117C19.7031 210.792 19.8203 210.619 20.0547 210.6C20.25 210.587 20.5202 210.528 20.8652 210.424C21.2168 210.32 21.5781 210.18 21.9492 210.004C22.3203 209.822 22.6426 209.617 22.916 209.389H24.0391L24.0293 219.477C24.0293 219.659 24.1204 219.802 24.3027 219.906C24.485 220.004 24.7129 220.079 24.9863 220.131C25.2598 220.176 25.5332 220.209 25.8066 220.229C25.9434 220.235 26.0345 220.261 26.0801 220.307C26.1322 220.352 26.1582 220.45 26.1582 220.6C26.1582 220.671 26.1289 220.756 26.0703 220.854C26.0182 220.951 25.9368 221 25.8262 221H20.1328ZM33.3945 221.283C31.8255 221.283 30.6048 220.749 29.7324 219.682C28.8665 218.607 28.4336 217.152 28.4336 215.316C28.4336 214.066 28.6354 212.989 29.0391 212.084C29.4427 211.173 30.0189 210.469 30.7676 209.975C31.5163 209.48 32.4147 209.232 33.4629 209.232C35.0319 209.232 36.2428 209.779 37.0957 210.873C37.9551 211.967 38.3848 213.448 38.3848 215.316C38.3848 216.54 38.1862 217.598 37.7891 218.49C37.3919 219.382 36.819 220.072 36.0703 220.561C35.3281 221.042 34.4362 221.283 33.3945 221.283ZM33.4238 220.355C34.4395 220.355 35.123 219.942 35.4746 219.115C35.8327 218.282 36.0117 217.016 36.0117 215.316C36.0117 213.585 35.8262 212.292 35.4551 211.439C35.0905 210.587 34.4004 210.16 33.3848 210.16C32.3561 210.16 31.666 210.587 31.3145 211.439C30.9694 212.292 30.7969 213.585 30.7969 215.316C30.7969 217.016 30.9759 218.282 31.334 219.115C31.6986 219.942 32.3952 220.355 33.4238 220.355Z" fill="black"/>
<path d="M131.855 221C131.745 221 131.66 220.951 131.602 220.854C131.549 220.756 131.523 220.671 131.523 220.6C131.523 220.372 131.631 220.248 131.846 220.229C132.054 220.209 132.295 220.18 132.568 220.141C132.842 220.095 133.079 220.03 133.281 219.945C133.49 219.861 133.594 219.747 133.594 219.604L133.604 211.146C133.324 211.316 133.034 211.459 132.734 211.576C132.441 211.693 132.158 211.752 131.885 211.752C131.702 211.752 131.579 211.664 131.514 211.488C131.455 211.312 131.426 211.189 131.426 211.117C131.426 210.792 131.543 210.619 131.777 210.6C131.973 210.587 132.243 210.528 132.588 210.424C132.939 210.32 133.301 210.18 133.672 210.004C134.043 209.822 134.365 209.617 134.639 209.389H135.762L135.752 219.477C135.752 219.659 135.843 219.802 136.025 219.906C136.208 220.004 136.436 220.079 136.709 220.131C136.982 220.176 137.256 220.209 137.529 220.229C137.666 220.235 137.757 220.261 137.803 220.307C137.855 220.352 137.881 220.45 137.881 220.6C137.881 220.671 137.852 220.756 137.793 220.854C137.741 220.951 137.66 221 137.549 221H131.855ZM144.062 224.848C143.6 224.848 143.112 224.786 142.598 224.662C142.09 224.538 141.615 224.35 141.172 224.096C140.729 223.842 140.368 223.513 140.088 223.109C139.808 222.712 139.668 222.237 139.668 221.684C139.668 221.208 139.811 220.821 140.098 220.521C140.391 220.222 140.687 220.072 140.986 220.072C141.221 220.072 141.442 220.134 141.65 220.258C141.859 220.375 141.966 220.577 141.973 220.863L141.484 222.68C141.556 222.836 141.683 223.012 141.865 223.207C142.054 223.402 142.318 223.568 142.656 223.705C142.995 223.848 143.421 223.92 143.936 223.92C144.867 223.92 145.622 223.627 146.201 223.041C146.781 222.455 147.07 221.625 147.07 220.551C147.07 219.874 146.953 219.317 146.719 218.881C146.491 218.445 146.198 218.103 145.84 217.855C145.482 217.602 145.104 217.426 144.707 217.328C144.316 217.23 143.955 217.182 143.623 217.182H142.959C142.92 217.182 142.891 217.12 142.871 216.996C142.852 216.866 142.842 216.742 142.842 216.625C142.842 216.508 142.848 216.387 142.861 216.264C142.881 216.133 142.913 216.068 142.959 216.068H143.594C143.945 216.068 144.339 215.958 144.775 215.736C145.212 215.515 145.589 215.176 145.908 214.721C146.227 214.258 146.387 213.679 146.387 212.982C146.387 212.735 146.361 212.452 146.309 212.133C146.257 211.814 146.152 211.505 145.996 211.205C145.846 210.906 145.628 210.658 145.342 210.463C145.062 210.268 144.694 210.17 144.238 210.17C143.783 210.17 143.438 210.225 143.203 210.336C142.975 210.44 142.806 210.574 142.695 210.736C142.585 210.893 142.484 211.052 142.393 211.215C142.327 211.475 142.269 211.745 142.217 212.025C142.171 212.305 142.126 212.543 142.08 212.738C142.035 212.953 141.953 213.132 141.836 213.275C141.719 213.412 141.559 213.48 141.357 213.48C141.221 213.48 141.051 213.445 140.85 213.373C140.648 213.295 140.469 213.171 140.312 213.002C140.163 212.826 140.088 212.585 140.088 212.279C140.088 211.85 140.215 211.449 140.469 211.078C140.723 210.707 141.058 210.385 141.475 210.111C141.898 209.831 142.367 209.617 142.881 209.467C143.395 209.311 143.913 209.232 144.434 209.232C145.729 209.232 146.755 209.551 147.51 210.189C148.271 210.821 148.652 211.69 148.652 212.797C148.652 213.467 148.48 214.066 148.135 214.594C147.79 215.121 147.363 215.554 146.855 215.893C146.354 216.231 145.866 216.449 145.391 216.547C146.029 216.553 146.647 216.687 147.246 216.947C147.845 217.201 148.337 217.608 148.721 218.168C149.111 218.721 149.307 219.454 149.307 220.365C149.307 221.244 149.085 222.019 148.643 222.689C148.206 223.367 147.594 223.894 146.807 224.271C146.019 224.656 145.104 224.848 144.062 224.848Z" fill="black"/>
<path d="M245.855 221C245.745 221 245.66 220.951 245.602 220.854C245.549 220.756 245.523 220.671 245.523 220.6C245.523 220.372 245.631 220.248 245.846 220.229C246.054 220.209 246.295 220.18 246.568 220.141C246.842 220.095 247.079 220.03 247.281 219.945C247.49 219.861 247.594 219.747 247.594 219.604L247.604 211.146C247.324 211.316 247.034 211.459 246.734 211.576C246.441 211.693 246.158 211.752 245.885 211.752C245.702 211.752 245.579 211.664 245.514 211.488C245.455 211.312 245.426 211.189 245.426 211.117C245.426 210.792 245.543 210.619 245.777 210.6C245.973 210.587 246.243 210.528 246.588 210.424C246.939 210.32 247.301 210.18 247.672 210.004C248.043 209.822 248.365 209.617 248.639 209.389H249.762L249.752 219.477C249.752 219.659 249.843 219.802 250.025 219.906C250.208 220.004 250.436 220.079 250.709 220.131C250.982 220.176 251.256 220.209 251.529 220.229C251.666 220.235 251.757 220.261 251.803 220.307C251.855 220.352 251.881 220.45 251.881 220.6C251.881 220.671 251.852 220.756 251.793 220.854C251.741 220.951 251.66 221 251.549 221H245.855ZM258.648 221.283C257.594 221.283 256.702 221.023 255.973 220.502C255.25 219.975 254.7 219.294 254.322 218.461C253.951 217.621 253.766 216.732 253.766 215.795C253.766 215.033 253.86 214.236 254.049 213.402C254.244 212.569 254.547 211.752 254.957 210.951C255.367 210.144 255.895 209.398 256.539 208.715C257.19 208.031 257.971 207.455 258.883 206.986C259.794 206.511 260.849 206.192 262.047 206.029L262.057 206.928C261.093 207.149 260.273 207.478 259.596 207.914C258.925 208.344 258.372 208.842 257.936 209.408C257.499 209.975 257.154 210.574 256.9 211.205C256.653 211.837 256.467 212.462 256.344 213.08C256.637 212.781 257.014 212.497 257.477 212.23C257.939 211.964 258.544 211.83 259.293 211.83C260.283 211.83 261.087 212.032 261.705 212.436C262.33 212.833 262.789 213.373 263.082 214.057C263.375 214.734 263.521 215.492 263.521 216.332C263.521 217.243 263.329 218.074 262.945 218.822C262.561 219.571 262.005 220.17 261.275 220.619C260.553 221.062 259.677 221.283 258.648 221.283ZM258.609 220.355C259.267 220.355 259.778 220.193 260.143 219.867C260.514 219.542 260.771 219.083 260.914 218.49C261.064 217.898 261.139 217.198 261.139 216.391C261.139 215.368 260.956 214.545 260.592 213.92C260.227 213.295 259.648 212.982 258.854 212.982C258.274 212.982 257.753 213.116 257.291 213.383C256.829 213.643 256.458 213.943 256.178 214.281C256.139 214.633 256.113 214.968 256.1 215.287C256.093 215.606 256.09 215.896 256.09 216.156C256.09 217.003 256.165 217.742 256.314 218.373C256.464 218.998 256.721 219.486 257.086 219.838C257.451 220.183 257.958 220.355 258.609 220.355Z" fill="black"/>
<path d="M320.855 221C320.745 221 320.66 220.951 320.602 220.854C320.549 220.756 320.523 220.671 320.523 220.6C320.523 220.372 320.631 220.248 320.846 220.229C321.054 220.209 321.295 220.18 321.568 220.141C321.842 220.095 322.079 220.03 322.281 219.945C322.49 219.861 322.594 219.747 322.594 219.604L322.604 211.146C322.324 211.316 322.034 211.459 321.734 211.576C321.441 211.693 321.158 211.752 320.885 211.752C320.702 211.752 320.579 211.664 320.514 211.488C320.455 211.312 320.426 211.189 320.426 211.117C320.426 210.792 320.543 210.619 320.777 210.6C320.973 210.587 321.243 210.528 321.588 210.424C321.939 210.32 322.301 210.18 322.672 210.004C323.043 209.822 323.365 209.617 323.639 209.389H324.762L324.752 219.477C324.752 219.659 324.843 219.802 325.025 219.906C325.208 220.004 325.436 220.079 325.709 220.131C325.982 220.176 326.256 220.209 326.529 220.229C326.666 220.235 326.757 220.261 326.803 220.307C326.855 220.352 326.881 220.45 326.881 220.6C326.881 220.671 326.852 220.756 326.793 220.854C326.741 220.951 326.66 221 326.549 221H320.855ZM333.98 221.293C332.906 221.293 332.008 221.117 331.285 220.766C330.569 220.414 330.029 219.942 329.664 219.35C329.306 218.751 329.127 218.087 329.127 217.357C329.127 216.719 329.273 216.163 329.566 215.688C329.859 215.212 330.221 214.815 330.65 214.496C331.08 214.177 331.503 213.943 331.92 213.793C331.327 213.357 330.826 212.862 330.416 212.309C330.012 211.749 329.811 211.072 329.811 210.277C329.811 209.73 329.977 209.193 330.309 208.666C330.641 208.139 331.122 207.706 331.754 207.367C332.392 207.022 333.163 206.85 334.068 206.85C335.038 206.85 335.826 207.006 336.432 207.318C337.044 207.631 337.49 208.051 337.77 208.578C338.049 209.099 338.189 209.675 338.189 210.307C338.189 210.821 338.069 211.286 337.828 211.703C337.594 212.113 337.294 212.475 336.93 212.787C336.565 213.093 336.194 213.344 335.816 213.539C336.344 213.839 336.829 214.171 337.271 214.535C337.714 214.893 338.069 215.313 338.336 215.795C338.609 216.277 338.746 216.846 338.746 217.504C338.746 218.194 338.567 218.829 338.209 219.408C337.851 219.981 337.317 220.44 336.607 220.785C335.904 221.124 335.029 221.293 333.98 221.293ZM334.967 213.08C335.305 212.872 335.595 212.553 335.836 212.123C336.077 211.687 336.197 211.046 336.197 210.199C336.197 209.783 336.126 209.389 335.982 209.018C335.846 208.646 335.618 208.347 335.299 208.119C334.986 207.891 334.566 207.777 334.039 207.777C333.329 207.777 332.796 207.982 332.438 208.393C332.079 208.803 331.9 209.376 331.9 210.111C331.9 210.489 331.995 210.827 332.184 211.127C332.372 211.42 332.691 211.719 333.141 212.025C333.59 212.331 334.199 212.683 334.967 213.08ZM334.029 220.365C334.856 220.365 335.497 220.154 335.953 219.73C336.409 219.301 336.637 218.708 336.637 217.953C336.637 217.406 336.493 216.951 336.207 216.586C335.927 216.221 335.576 215.915 335.152 215.668C334.729 215.414 334.312 215.18 333.902 214.965C333.694 214.867 333.489 214.763 333.287 214.652C333.085 214.535 332.88 214.418 332.672 214.301C332.249 214.535 331.894 214.913 331.607 215.434C331.327 215.954 331.184 216.615 331.178 217.416C331.178 217.82 331.266 218.249 331.441 218.705C331.617 219.161 331.91 219.551 332.32 219.877C332.737 220.202 333.307 220.365 334.029 220.365Z" fill="black"/>
<path d="M247 4.83547L247 18.1645C246.999 18.6908 247.146 19.2064 247.424 19.6519C247.702 20.0973 248.099 20.4543 248.57 20.6815C249.128 20.9475 249.75 21.05 250.363 20.9772C250.977 20.9045 251.558 20.6594 252.04 20.27L260.047 13.6054C260.346 13.3439 260.586 13.0205 260.75 12.6573C260.915 12.294 261 11.8993 261 11.5C261 11.1007 260.915 10.706 260.75 10.3427C260.586 9.97948 260.346 9.65612 260.047 9.39458L252.04 2.73004C251.558 2.34061 250.977 2.09554 250.363 2.02277C249.75 1.95 249.128 2.05246 248.57 2.31846C248.099 2.54569 247.702 2.90268 247.424 3.34813C247.146 3.79357 246.999 4.30925 247 4.83547ZM250.14 17.8321L250.14 5.3262L257.707 11.5L250.14 17.8321Z" fill="#2E2618"/>
<path d="M113 4.83547L113 18.1645C113.001 18.6908 112.854 19.2064 112.576 19.6519C112.298 20.0973 111.901 20.4543 111.43 20.6815C110.872 20.9475 110.25 21.05 109.637 20.9772C109.023 20.9045 108.442 20.6594 107.96 20.27L99.9535 13.6054C99.6542 13.3439 99.4141 13.0205 99.2496 12.6573C99.0851 12.294 99 11.8993 99 11.5C99 11.1007 99.0851 10.706 99.2496 10.3427C99.4141 9.97948 99.6542 9.65612 99.9535 9.39458L107.96 2.73004C108.442 2.34061 109.023 2.09554 109.637 2.02277C110.25 1.95 110.872 2.05246 111.43 2.31846C111.901 2.54569 112.298 2.90268 112.576 3.34813C112.854 3.79357 113.001 4.30925 113 4.83547ZM109.86 17.8321L109.86 5.3262L102.293 11.5L109.86 17.8321Z" fill="#2E2618"/>
<rect x="14" y="150" width="32" height="19" rx="4" fill="#4F6932"/>
<rect x="51" y="135" width="33" height="33" rx="4" fill="#4F6932"/>
<rect x="89" y="118" width="32" height="50" rx="4" fill="#4F6932"/>
<rect x="125" y="108" width="34" height="60" rx="4" fill="#4F6932"/>
<rect x="163" y="93" width="34" height="75" rx="4" fill="#4F6932"/>
<rect x="201" y="105" width="35" height="63" rx="4" fill="#4F6932"/>
<rect x="241" y="118" width="33" height="50" rx="4" fill="#4F6932"/>
<rect x="279" y="112" width="33" height="56" rx="4" fill="#4F6932"/>
<rect x="317" y="93" width="32" height="75" rx="4" fill="#4F6932"/>
<path d="M0.666667 196C0.666667 198.946 3.05448 201.333 6 201.333C8.94552 201.333 11.3333 198.946 11.3333 196C11.3333 193.054 8.94552 190.667 6 190.667C3.05448 190.667 0.666666 193.054 0.666667 196ZM360.667 196C360.667 198.945 363.054 201.333 366 201.333C368.946 201.333 371.333 198.945 371.333 196C371.333 193.054 368.946 190.667 366 190.667C363.054 190.667 360.667 193.054 360.667 196ZM6 197L366 197L366 195L6 195L6 197Z" fill="black"/>
</svg>
