<svg width="30" height="35" viewBox="0 0 30 35" fill="none" xmlns="http://www.w3.org/2000/svg">
<path d="M4.03846 35H1.73077C1.27174 35 0.831513 34.8156 0.506931 34.4874C0.182348 34.1592 0 33.7141 0 33.25V22.75C0 22.2859 0.182348 21.8408 0.506931 21.5126C0.831513 21.1844 1.27174 21 1.73077 21H4.03846C4.49749 21 4.93772 21.1844 5.2623 21.5126C5.58688 21.8408 5.76923 22.2859 5.76923 22.75V33.25C5.76923 33.7141 5.58688 34.1592 5.2623 34.4874C4.93772 34.8156 4.49749 35 4.03846 35ZM20.1923 35H17.8846C17.4256 35 16.9854 34.8156 16.6608 34.4874C16.3362 34.1592 16.1538 33.7141 16.1538 33.25V15.75C16.1538 15.2859 16.3362 14.8408 16.6608 14.5126C16.9854 14.1844 17.4256 14 17.8846 14H20.1923C20.6513 14 21.0916 14.1844 21.4161 14.5126C21.7407 14.8408 21.9231 15.2859 21.9231 15.75V33.25C21.9231 33.7141 21.7407 34.1592 21.4161 34.4874C21.0916 34.8156 20.6513 35 20.1923 35ZM28.2692 35H25.9615C25.5025 35 25.0623 34.8156 24.7377 34.4874C24.4131 34.1592 24.2308 33.7141 24.2308 33.25V7.58333C24.2308 7.1192 24.4131 6.67408 24.7377 6.3459C25.0623 6.01771 25.5025 5.83333 25.9615 5.83333H28.2692C28.7283 5.83333 29.1685 6.01771 29.4931 6.3459C29.8177 6.67408 30 7.1192 30 7.58333V33.25C30 33.7141 29.8177 34.1592 29.4931 34.4874C29.1685 34.8156 28.7283 35 28.2692 35ZM12.1154 35H9.80769C9.34866 35 8.90844 34.8156 8.58385 34.4874C8.25927 34.1592 8.07692 33.7141 8.07692 33.25V1.75C8.07692 1.28587 8.25927 0.840752 8.58385 0.512563C8.90844 0.184375 9.34866 0 9.80769 0H12.1154C12.5744 0 13.0146 0.184375 13.3392 0.512563C13.6638 0.840752 13.8462 1.28587 13.8462 1.75V33.25C13.8462 33.7141 13.6638 34.1592 13.3392 34.4874C13.0146 34.8156 12.5744 35 12.1154 35Z" fill="#2E2618"/>
</svg>
