<svg width="31" height="30" viewBox="0 0 31 30" fill="none" xmlns="http://www.w3.org/2000/svg">
<path d="M15.5 30C13.3558 30 11.3408 29.606 9.455 28.818C7.56917 28.03 5.92875 26.9615 4.53375 25.6125C3.13875 24.2625 2.03463 22.675 1.2214 20.85C0.408167 19.025 0.00103333 17.075 0 15C0 12.925 0.407133 10.975 1.2214 9.15C2.03567 7.325 3.13978 5.7375 4.53375 4.3875C5.92875 3.0375 7.56917 1.969 9.455 1.182C11.3408 0.395 13.3558 0.001 15.5 0C17.6442 0 19.6592 0.394 21.545 1.182C23.4308 1.97 25.0713 3.0385 26.4663 4.3875C27.8613 5.7375 28.9659 7.325 29.7801 9.15C30.5944 10.975 31.001 12.925 31 15C31 17.075 30.5929 19.025 29.7786 20.85C28.9643 22.675 27.8602 24.2625 26.4663 25.6125C25.0713 26.9625 23.4308 28.0315 21.545 28.8195C19.6592 29.6075 17.6442 30.001 15.5 30ZM17.05 26.8875C20.1242 26.5125 22.7013 25.206 24.7814 22.968C26.8615 20.73 27.901 18.074 27.9 15C27.9 11.925 26.8599 9.269 24.7798 7.032C22.6997 4.795 20.1231 3.4885 17.05 3.1125V26.8875Z" fill="#2E2618"/>
</svg>
