<svg width="190" height="95" viewBox="0 0 190 95" fill="none" xmlns="http://www.w3.org/2000/svg">
<path d="M27.3559 52.3166C27.4942 53.2385 27.4212 54.1226 27.5057 55.0028C27.5749 55.7085 27.6556 56.4369 27.6287 57.1502C27.6056 57.7876 27.7209 58.4061 27.7478 59.0321C27.7785 59.8516 27.7747 60.6712 27.8016 61.4907C27.8246 62.1433 27.8745 62.7921 27.9206 63.4408C27.9322 63.6381 27.9744 63.8354 27.986 64.0327C28.0397 65.0116 28.0781 65.9904 28.1319 66.9693C28.1934 68.1075 28.2587 69.2496 28.3355 70.3878C28.3893 71.177 28.4777 71.9661 28.5276 72.7553C28.5545 73.1271 28.5199 73.5065 28.5353 73.8784C28.5699 74.6827 28.6237 75.4871 28.6621 76.2952C28.7082 77.1792 28.7504 78.067 28.7889 78.951C28.8273 79.8199 28.858 80.6925 28.9041 81.5614C28.931 82.1191 28.9733 82.6768 29.0117 83.2345C29.0693 84.0085 29.1384 84.7825 29.1884 85.5603C29.2114 85.9208 29.1884 86.285 29.2076 86.6454C29.223 86.9527 29.2883 87.2563 29.3036 87.5636C29.3497 88.3755 29.3843 89.1875 29.4189 89.9994C29.4573 90.9366 29.4842 91.8737 29.5303 92.8146C29.5533 93.3192 29.6071 93.82 29.6379 94.3246C29.6455 94.4612 29.611 94.5978 29.5918 94.7838C29.0885 94.5865 28.7504 94.245 28.4277 93.9225C27.8861 93.3837 27.3828 92.8032 26.8834 92.2265C25.412 90.5344 23.9484 88.8384 22.4847 87.1425C21.8086 86.3609 21.144 85.5679 20.4678 84.7864C19.9915 84.2362 19.5036 83.6974 19.0272 83.1473C18.0245 81.9901 17.0257 80.8329 16.0269 79.6757C15.6811 79.2735 15.3354 78.8752 14.9781 78.4806C14.763 78.2454 14.6439 78.0139 14.617 77.6686C14.5632 76.9554 14.4057 76.2497 14.2943 75.5402C14.2175 75.0432 14.1483 74.5423 14.0676 74.0453C13.9178 73.1195 13.7565 72.1938 13.6105 71.268C13.4952 70.5358 13.4069 69.8035 13.2916 69.0713C13.138 68.0886 12.9689 67.1097 12.8153 66.1308C12.6309 64.9547 12.4541 63.7747 12.2697 62.5985C12.1276 61.7069 11.9701 60.8191 11.8356 59.9275C11.705 59.0549 11.6051 58.1746 11.4668 57.302C11.3247 56.4104 11.148 55.5264 11.002 54.6348C10.833 53.5838 10.687 52.5253 10.5218 51.4743C10.3566 50.4385 10.1722 49.4065 10.0109 48.3745C9.87255 47.4829 9.75346 46.5913 9.62284 45.6997C9.57674 45.3772 9.51528 45.0585 9.46534 44.7398C9.30399 43.7116 9.14648 42.6834 8.98129 41.659C8.84683 40.8205 8.68932 39.9858 8.55871 39.1511C8.48571 38.6883 8.45498 38.2178 8.38583 37.7511C8.24369 36.8215 8.09002 35.8958 7.9402 34.97C7.93636 34.9359 7.91331 34.9017 7.90563 34.8676C7.78653 34.2985 7.92868 34.0481 8.48956 33.9077C8.78152 33.8356 9.08886 33.8128 9.3885 33.7711C9.46534 34.1088 9.1849 34.1392 9.0658 34.2757C8.81994 34.5603 8.77384 34.7082 8.9544 35.0042C9.58059 36.0286 10.1453 37.0947 11.0174 37.9484C11.4207 38.343 11.8241 38.7414 12.2544 39.1094C15.1894 41.6211 18.5201 43.4043 22.2734 44.4135C23.641 44.7815 25.0202 45.0889 26.4262 45.2596C26.7413 45.2975 26.8872 45.4455 27.0563 45.7376C27.8361 47.077 28.9963 47.9078 30.5829 48.1848C31.9851 48.4276 32.9417 47.7523 33.8099 46.8379C34.148 46.4813 34.4515 46.0905 34.7396 45.6921C34.9163 45.4493 35.1622 45.4228 35.4119 45.3734C36.5259 45.1534 37.6631 45.0092 38.7541 44.7095C40.1486 44.3263 41.5355 43.8823 42.88 43.3512C45.0467 42.5013 46.9983 41.2682 48.8039 39.8151C49.8027 39.0107 50.7785 38.1874 51.5507 37.1554C52.1346 36.3777 52.6302 35.5619 52.8914 34.6172C52.9452 34.4275 52.8952 34.3061 52.7646 34.1847C52.6263 34.0557 52.488 33.9191 52.2806 33.7218C52.7915 33.6535 53.1795 33.7218 53.5329 33.8849C53.8864 34.0443 53.9286 34.382 53.8825 34.7272C53.7903 35.4253 53.6943 36.1272 53.5906 36.8254C53.483 37.5576 53.3716 38.2936 53.2563 39.0259C53.0374 40.4183 52.8107 41.8108 52.5994 43.207C52.4765 44.0303 52.3766 44.8574 52.2614 45.6845C52.1538 46.4737 52.0462 47.2629 51.9233 48.0482C51.7158 49.3496 51.4892 50.651 51.2817 51.9562C51.1819 52.6012 51.1281 53.2499 51.032 53.8949C50.8246 55.2342 50.5941 56.5697 50.3866 57.9128C50.256 58.7551 50.1638 59.6012 50.0447 60.4397C49.9026 61.4224 49.7528 62.4051 49.6029 63.3915C49.3071 65.3417 49.0113 67.2918 48.7194 69.242C48.4197 71.2263 48.1239 73.2106 47.8281 75.1949C47.7013 76.0372 47.6014 76.8795 47.4555 77.718C47.4132 77.957 47.2979 78.2074 47.1443 78.3933C45.7613 80.0627 44.3591 81.7131 42.9722 83.3749C41.9427 84.6042 40.9323 85.8525 39.9028 87.0817C38.8617 88.3262 37.8014 89.5555 36.7564 90.7962C35.9497 91.7561 35.1545 92.7274 34.3439 93.6873C34.0173 94.0705 33.7484 94.5068 33.2874 94.761C33.1376 94.8444 32.9801 94.9165 32.8149 95C32.4653 94.5068 32.5537 94.0173 32.5921 93.5393C32.6113 93.2851 32.6536 93.0347 32.6689 92.7843C32.7342 91.6271 32.7919 90.4661 32.8533 89.3089C32.8533 89.2709 32.8533 89.2368 32.8533 89.1989C32.9033 87.7268 32.9417 86.2585 33.0031 84.7864C33.0492 83.7012 33.1376 82.6161 33.1952 81.5272C33.2375 80.7494 33.2529 79.9679 33.2951 79.1863C33.3604 77.9191 33.4488 76.6556 33.5103 75.3884C33.5448 74.6979 33.5371 74.0073 33.5563 73.3168C33.5794 72.5011 33.5948 71.6892 33.6409 70.8734C33.71 69.591 33.8137 68.3086 33.8867 67.0224C33.9405 66.0625 33.9482 65.0988 34.0058 64.1389C34.0903 62.7275 34.2056 61.3199 34.2901 59.9123C34.3247 59.3318 34.3132 58.7476 34.3324 58.1671C34.3631 57.2034 34.3977 56.2435 34.4476 55.2798C34.4937 54.3958 34.5744 53.5117 34.6243 52.6239C34.6704 51.7892 34.7012 50.9545 34.7396 50.1236C34.7742 49.361 34.8126 48.6022 34.851 47.8396C34.8548 47.7182 34.851 47.5967 34.851 47.3881C34.6051 47.7068 34.4169 47.961 34.2171 48.2076C33.4257 49.1941 32.4115 49.8087 31.1361 49.9111C30.3716 49.9718 29.6263 49.7745 29.0001 49.3192C28.5737 49.0081 28.1896 48.6401 27.8092 48.2721C27.5864 48.0596 27.4097 47.7978 27.1792 47.5209C27.0332 47.8965 27.0985 48.2493 27.1177 48.5946C27.1907 49.8049 27.2752 51.0342 27.3559 52.3166Z" fill="#EDE0A6"/>
<path d="M123.728 58.7969C125.556 59.4609 126.567 60.7926 127.085 62.5379C127.312 63.3043 127.423 64.0858 127.508 64.8826C127.642 66.1005 127.573 67.3184 127.6 68.5325C127.619 69.4772 127.569 70.4295 127.65 71.3705C127.796 73.0475 127.854 74.7359 128.261 76.3787C128.445 77.1261 128.645 77.8698 128.841 78.621C128.51 78.7121 119.821 78.7462 119.114 78.6361C119.252 78.2036 119.406 77.7787 119.525 77.3462C119.932 75.8703 120.101 74.3602 120.22 72.8388C120.412 70.4447 120.462 68.0469 120.435 65.649C120.424 64.7271 120.401 63.7861 119.997 62.9286C119.832 62.5758 119.594 62.2306 119.314 61.9612C118.699 61.3655 117.593 61.5173 116.897 62.1167C116.225 62.701 115.841 63.456 115.537 64.2642C115.122 65.3758 114.923 66.5331 114.777 67.7054C114.631 68.8854 114.688 70.0615 114.773 71.2377C114.85 72.3038 114.892 73.3776 115.034 74.4323C115.218 75.7754 115.395 77.1261 115.96 78.382C115.994 78.4579 115.991 78.5527 116.01 78.6627C112.744 78.6627 109.506 78.6627 106.198 78.6627C106.336 78.2833 106.49 77.9532 106.571 77.608C106.774 76.7277 106.986 75.8437 107.112 74.9521C107.251 73.9657 107.289 72.9678 107.385 71.9738C107.62 69.5266 107.566 67.0718 107.566 64.617C107.57 61.0089 107.581 57.4007 107.558 53.7963C107.55 52.6733 107.451 51.5502 107.381 50.431C107.339 49.7253 107.308 49.0158 107.228 48.3139C107.063 46.8569 106.886 45.4 106.313 44.0265C106.267 43.9165 106.256 43.7913 106.217 43.6281C109.498 43.6281 112.733 43.6281 116.029 43.6281C115.902 44.0113 115.779 44.3832 115.664 44.7512C115.291 45.9502 115.103 47.187 114.992 48.4315C114.876 49.729 114.788 51.0342 114.688 52.3318C114.681 52.4418 114.688 52.5518 114.688 52.6581C114.688 55.0446 114.688 57.431 114.688 59.8175C114.688 59.9579 114.688 60.1021 114.688 60.3639C114.815 60.2045 114.876 60.14 114.926 60.0641C115.975 58.3568 117.047 56.6608 118.065 54.9383C119.01 53.3372 119.794 51.664 120.243 49.8467C120.704 47.9686 120.547 46.1436 119.89 44.3452C119.817 44.1441 119.748 43.9393 119.655 43.6737C119.825 43.6395 119.955 43.594 120.09 43.594C122.744 43.5902 125.403 43.5902 128.057 43.594C128.434 43.594 128.507 43.6851 128.487 44.0493C128.361 46.1512 127.638 48.0331 126.394 49.7329C125.234 51.315 123.847 52.6922 122.464 54.0771C121.042 55.4998 119.632 56.934 118.392 58.5199C118.257 58.6907 118.142 58.8766 117.965 59.127C118.146 59.0815 118.261 59.0739 118.361 59.0284C119.782 58.3985 121.265 58.3037 122.786 58.5351C123.09 58.592 123.386 58.7059 123.728 58.7969Z" fill="#EDE0A5"/>
<path d="M76.1872 44.7588C78.1311 45.7642 79.0684 47.3464 79.249 49.4445C79.3412 50.5068 79.2528 51.5312 78.9186 52.5329C78.4 54.0922 77.3781 55.2949 76.0681 56.2549C74.9963 57.044 73.8591 57.7497 72.7489 58.4934C72.5991 58.5958 72.4416 58.6869 72.1995 58.8424C72.3801 58.8576 72.4685 58.8728 72.553 58.869C73.8514 58.8045 75.123 58.9373 76.337 59.4343C78.0811 60.1476 79.2682 61.4034 79.9789 63.1108C80.4207 64.1693 80.6973 65.2658 80.7088 66.423C80.7126 66.9124 80.8202 67.4019 80.8087 67.8875C80.7357 70.3878 80.025 72.6719 78.3385 74.5917C77.0208 76.0941 75.3804 77.1375 73.5019 77.8242C71.8499 78.4275 70.1481 78.7196 68.3809 78.7045C65.4305 78.6817 62.4802 78.6969 59.5298 78.6969C59.33 78.6969 59.1302 78.6969 58.8921 78.6969C59.0572 78.1847 59.2301 77.7331 59.3415 77.2627C59.5029 76.5798 59.645 75.8892 59.7526 75.1949C59.8832 74.3564 59.9792 73.5141 60.0714 72.6719C60.106 72.3494 60.0868 72.0193 60.1022 71.6892C60.1406 70.6724 60.2213 69.6594 60.2213 68.6425C60.2328 63.5774 60.2366 58.5161 60.2213 53.451C60.2174 52.2369 60.1752 51.0152 60.0676 49.8049C59.9523 48.5301 59.7718 47.2553 59.549 45.9919C59.426 45.3052 59.1571 44.645 58.9574 43.9696C58.9266 43.871 58.9189 43.7647 58.8882 43.6016C59.1033 43.6016 59.2839 43.6016 59.4606 43.6016C63.1486 43.6016 66.8404 43.5637 70.5284 43.6168C72.4608 43.6471 74.3816 43.8596 76.1872 44.7588ZM72.5952 62.9173C72.3417 62.5872 72.1342 62.2002 71.8269 61.9308C70.9587 61.1758 69.9906 61.0696 69.084 61.7867C68.4232 62.3102 67.9968 63.0045 67.5857 63.7178C67.432 63.9834 67.3783 64.249 67.3821 64.5449C67.3898 66.275 67.3821 68.0013 67.3859 69.7314C67.3898 70.384 67.3821 71.0404 67.4321 71.693C67.505 72.6453 67.6164 73.5976 67.7202 74.5499C67.797 75.2632 67.8777 75.9765 68.1082 76.724C68.5077 76.6746 68.8842 76.6215 69.2645 76.5836C70.9817 76.4204 72.0305 75.415 72.7412 73.9429C73.4519 72.467 73.571 70.881 73.6863 69.2989C73.7631 68.2669 73.6248 67.2349 73.5134 66.2105C73.3981 65.0837 73.1446 64.0024 72.5952 62.9173ZM68.2657 59.5861C68.9303 58.7855 69.5987 57.9887 70.2633 57.1882C71.4658 55.7388 72.092 54.0619 72.1803 52.2028C72.2303 51.1329 72.1035 50.0667 71.8307 49.0309C71.6002 48.1621 71.2199 47.3615 70.5284 46.7393C69.7601 46.045 68.8419 45.7642 67.7778 45.7529C67.6587 47.0201 67.5242 48.2379 67.4359 49.4596C67.3859 50.1312 67.3936 50.8066 67.3936 51.4781C67.3898 54.4299 67.3898 57.3817 67.3936 60.3335C67.3936 60.4435 67.4167 60.5573 67.4397 60.747C67.7317 60.3259 67.9737 59.9882 68.2657 59.5861Z" fill="#EDE0A5"/>
<path d="M84.0664 72.5049C83.736 71.5261 83.398 70.5889 83.129 69.6366C82.9293 68.9271 82.7987 68.1987 82.6719 67.474C82.5451 66.7266 82.4299 65.9753 82.3646 65.2241C82.2877 64.359 82.2685 63.4864 82.2263 62.6137C82.1994 62.0333 82.1417 61.4528 82.1609 60.8761C82.1917 59.8972 82.2647 58.9221 82.3377 57.947C82.3991 57.1161 82.4491 56.2852 82.5682 55.4619C82.9216 53.0147 83.5439 50.6472 84.7733 48.4694C85.9334 46.413 87.5239 44.8005 89.7559 43.8824C91.281 43.2563 92.8868 43.0515 94.5119 43.1843C96.3136 43.3322 97.9924 43.8938 99.4561 44.9789C100.616 45.8401 101.546 46.9138 102.287 48.1469C103.555 50.2678 104.208 52.5936 104.608 55.0066C105 57.3779 105.119 59.7682 105.061 62.1623C105.03 63.5206 104.927 64.8712 104.761 66.2257C104.55 67.9786 104.177 69.6859 103.605 71.3515C102.898 73.4079 101.842 75.267 100.198 76.7391C99.0988 77.7256 97.8272 78.4351 96.3751 78.8107C95.4992 79.0384 94.6079 79.1901 93.7166 79.1825C91.6844 79.1636 89.7713 78.7044 88.0579 77.5397C86.3829 76.4014 85.2535 74.8383 84.3545 73.0816C84.2508 72.9071 84.1701 72.725 84.0664 72.5049ZM90.2323 60.0945C90.2553 61.2744 90.286 62.4582 90.3014 63.6381C90.3206 65.0381 90.2784 66.4344 90.4397 67.8306C90.5857 69.0864 90.6548 70.3537 90.7855 71.6133C90.9045 72.7629 91.1158 73.9049 91.4846 75.0014C91.7036 75.6464 91.984 76.3066 92.3836 76.853C93.0674 77.7939 94.0278 77.8129 94.8192 76.8643C95.0727 76.5608 95.2764 76.1965 95.4146 75.8285C95.6567 75.1873 95.8833 74.5348 96.0216 73.867C96.256 72.7364 96.4519 71.5944 96.6017 70.4485C96.7093 69.6404 96.717 68.8209 96.7592 68.0051C96.8245 66.791 96.886 65.5769 96.9398 64.3628C96.959 63.9644 96.9513 63.5623 96.9552 63.1601C96.9628 61.8853 96.9859 60.6105 96.9705 59.3357C96.9513 57.5752 96.9167 55.8147 96.7592 54.0581C96.6901 53.2993 96.6939 52.5329 96.5979 51.7779C96.4634 50.7383 96.279 49.7063 96.0908 48.6743C95.9333 47.8168 95.6682 46.9897 95.2917 46.2005C95.0766 45.7566 94.8192 45.3279 94.3889 45.0509C93.805 44.6791 93.4208 44.6336 92.8177 45.0509C92.4258 45.3203 92.1761 45.6959 91.9725 46.1095C91.3348 47.3919 91.0736 48.7729 90.8623 50.1691C90.7547 50.8824 90.7048 51.6071 90.6318 52.3242C90.5319 53.3334 90.3898 54.3388 90.3514 55.3481C90.2937 56.7291 90.3168 58.114 90.3014 59.4988C90.2976 59.6696 90.2668 59.8289 90.2323 60.0945Z" fill="#EDE0A5"/>
<path d="M150.923 75.6692C151.33 76.6784 151.714 77.6497 152.102 78.621C151.783 78.7234 141.972 78.7765 140.785 78.6627C140.808 78.5603 140.804 78.4464 140.854 78.3668C141.541 77.3575 141.78 76.2079 141.895 75.0355C141.979 74.1895 142.029 73.332 142.018 72.4821C142.006 71.5071 141.914 70.5282 141.856 69.5152C139.882 69.5152 137.923 69.5152 135.91 69.5152C135.913 71.1087 135.867 72.687 136.194 74.2691C136.516 75.8247 136.997 77.2931 137.953 78.6665C134.968 78.6665 132.076 78.6665 129.125 78.6665C129.306 78.2833 129.463 77.9456 129.625 77.6079C130.232 76.3407 130.6 74.9976 130.915 73.6432C131.28 72.0762 131.599 70.5016 131.899 68.9233C132.072 68.0013 132.149 67.0604 132.291 66.1346C132.487 64.8295 132.709 63.5319 132.898 62.2267C133.04 61.2441 133.147 60.2576 133.286 59.2712C133.432 58.1974 133.601 57.1313 133.751 56.0575C133.885 55.09 134.023 54.1264 134.131 53.1551C134.258 52.0055 134.327 50.8483 134.477 49.7025C134.661 48.3062 134.607 46.91 134.565 45.51C134.55 45.0623 134.415 44.6222 134.342 44.1783C134.315 44.0076 134.3 43.8368 134.273 43.6319C138.564 43.6319 142.801 43.6319 147.085 43.6319C147.054 43.8027 147.027 43.9544 147.004 44.1062C146.92 44.6563 146.824 45.2065 146.758 45.7604C146.712 46.136 146.67 46.5192 146.685 46.8986C146.724 47.8396 146.801 48.7805 146.858 49.7176C146.874 49.9908 146.851 50.264 146.881 50.5372C147.031 51.8993 147.189 53.2651 147.358 54.6272C147.481 55.6136 147.623 56.5963 147.765 57.579C147.903 58.5427 148.061 59.5026 148.199 60.4663C148.364 61.6083 148.518 62.7541 148.679 63.8961C148.86 65.1823 149.025 66.4723 149.229 67.7547C149.409 68.893 149.617 70.0312 149.855 71.158C150.12 72.4252 150.435 73.6849 150.727 74.9483C150.784 75.1759 150.846 75.3998 150.923 75.6692ZM136.962 60.3221C136.828 61.3806 136.701 62.443 136.551 63.4977C136.432 64.3476 136.286 65.1937 136.148 66.0625C137.919 66.0625 139.632 66.0625 141.338 66.0625C141.422 64.9509 139.125 50.3095 138.741 49.5849C138.687 49.7859 138.629 49.9529 138.599 50.1236C138.468 50.8521 138.337 51.5805 138.218 52.309C137.961 53.8949 137.704 55.4809 137.454 57.0706C137.296 58.1215 137.15 59.1763 136.962 60.3221Z" fill="#EDE0A5"/>
<path d="M179.743 72.3721C179.774 73.7304 179.992 75.0128 180.231 76.3559C181.099 76.3559 181.944 76.4014 182.782 76.3445C183.619 76.2876 184.46 76.1776 185.282 76.0069C186.085 75.8437 186.869 75.5819 187.66 75.3505C188.456 75.1152 189.143 74.6031 190 74.3526C190 75.8361 190 77.2247 190 78.6058C189.574 78.7196 171.783 78.75 171.111 78.6437C171.237 78.2302 171.391 77.828 171.487 77.4106C171.671 76.6025 171.864 75.7943 171.986 74.9748C172.221 73.4155 172.305 71.841 172.363 70.2664C172.394 69.4127 172.432 68.5591 172.436 67.7054C172.444 62.9704 172.451 58.2315 172.432 53.4965C172.428 52.4645 172.321 51.4326 172.255 50.4006C172.209 49.6949 172.182 48.9854 172.102 48.2835C171.933 46.8493 171.764 45.4113 171.203 44.0569C171.168 43.9734 171.145 43.8862 171.13 43.7989C171.122 43.7496 171.137 43.6926 171.145 43.6243C177.088 43.6243 183.024 43.6243 189.001 43.6243C189.001 44.8726 189.001 46.1095 189.001 47.4488C186.185 46.2233 183.25 46.0564 180.223 45.9805C180.112 46.7052 179.966 47.4109 179.9 48.1203C179.766 49.5811 179.67 51.0456 179.566 52.5101C179.547 52.7984 179.562 53.0944 179.562 53.3827C179.562 55.1318 179.562 56.8809 179.562 58.6299C179.562 58.8083 179.562 58.9904 179.562 59.1915C180.284 59.1915 180.976 59.2142 181.667 59.1839C182.363 59.1535 183.058 59.0928 183.75 59.0093C184.422 58.9259 185.087 58.7551 185.763 58.7058C186.443 58.6565 187.08 58.2771 187.856 58.3909C187.426 59.8782 187.015 61.2972 186.608 62.7124C185.421 62.3823 184.295 61.9991 183.143 61.7677C181.979 61.5324 180.784 61.4489 179.551 61.2934C179.624 65.0116 179.405 68.6691 179.743 72.3721Z" fill="#EDE0A5"/>
<path d="M153.508 73.4231C153.558 72.6111 153.643 71.8523 153.65 71.0935C153.685 64.7953 153.716 58.4934 153.719 52.1952C153.719 51.148 153.585 50.097 153.516 49.0499C153.42 47.6233 153.182 46.2195 152.84 44.8347C152.79 44.626 152.671 44.4325 152.609 44.2276C152.555 44.0417 152.536 43.8482 152.494 43.6281C158.46 43.6281 164.372 43.6281 170.331 43.6281C170.331 44.8802 170.331 46.1057 170.331 47.3577C169.386 47.0884 168.46 46.7696 167.511 46.5647C166.547 46.3561 165.559 46.2233 164.576 46.1247C163.592 46.026 162.601 46.0146 161.572 45.9615C161.476 46.5534 161.38 47.0997 161.303 47.6461C161.057 49.4065 160.969 51.1784 160.934 52.954C160.896 54.9535 160.88 56.9529 160.857 58.9562C160.857 59.0283 160.869 59.0966 160.876 59.2256C162.279 59.2674 163.665 59.1991 165.045 59.0093C166.397 58.8234 167.745 58.5844 169.19 58.3492C168.783 59.863 168.322 61.2744 167.887 62.7617C167.127 62.5075 166.401 62.2191 165.652 62.0256C164.876 61.8245 164.077 61.688 163.281 61.5704C162.501 61.4565 161.714 61.4072 160.896 61.3275C160.884 61.4717 160.861 61.6083 160.861 61.7449C160.857 63.9492 160.838 66.1536 160.869 68.358C160.888 69.7163 160.961 71.0783 161.057 72.4328C161.126 73.4041 161.234 74.3754 161.391 75.3353C161.549 76.3104 161.695 77.2968 162.11 78.215C162.167 78.3402 162.175 78.4882 162.213 78.6627C158.963 78.6627 155.763 78.6627 152.513 78.6627C152.54 78.4844 152.536 78.3174 152.594 78.1771C153.082 76.9402 153.27 75.6388 153.412 74.3298C153.427 74.0491 153.47 73.7645 153.508 73.4231Z" fill="#EDE0A5"/>
<path d="M23.6487 28.5922C24.5477 27.4843 25.3813 26.3689 26.3071 25.3369C28.0705 23.3791 29.4035 21.1824 30.3217 18.7314C30.9632 17.0165 31.3474 15.2446 31.5548 13.431C31.6355 12.7481 31.7431 12.0576 31.7316 11.3709C31.72 10.5741 31.6355 9.77356 31.5126 8.98818C31.2514 7.31879 30.9555 5.65317 30.6521 3.99136C30.4484 2.85693 30.0912 1.77183 29.4419 0.796748C29.2959 0.576691 29.1922 0.326287 29.0693 0.0910543C29.1077 0.0607016 29.1461 0.0303527 29.1807 0C29.3536 0.140381 29.5341 0.273165 29.7032 0.41734C30.7135 1.29377 31.478 2.34853 32.0888 3.52849C33.1069 5.49383 33.9828 7.51606 34.4438 9.68248C34.6858 10.8169 34.8548 11.9741 34.9701 13.1275C35.0661 14.1026 35.1007 15.0891 35.0546 16.0679C34.9778 17.7829 34.6243 19.4485 33.9866 21.0572C33.1799 23.0832 32.0735 24.9499 30.9133 26.7862C30.1488 27.9927 29.465 29.241 28.954 30.5651C28.7351 31.1342 28.6083 31.7641 28.5814 32.3711C28.5199 33.8394 29.1192 34.9928 30.4792 35.6757C31.7892 36.3359 33.1414 36.5787 34.5859 36.0589C35.3581 35.782 35.9459 35.2774 36.38 34.659C36.9408 33.8622 36.4875 32.8871 35.7883 32.7201C35.1814 32.576 34.5744 32.428 33.9597 32.318C33.5256 32.2421 33.0838 32.2345 32.642 32.189C32.5614 32.1814 32.4807 32.1434 32.4038 32.022C32.6113 31.9765 32.8149 31.9006 33.0224 31.8931C34.1787 31.8399 35.3427 31.7375 36.4991 31.7754C37.8244 31.8172 39.1421 32.0145 40.3714 32.557C40.8248 32.7581 41.2704 32.963 41.5623 33.4031C42.1616 34.3099 42.0656 35.2319 41.5201 36.0779C40.9976 36.8861 40.4022 37.6638 39.7414 38.3695C38.2124 40.0086 36.2378 40.8585 34.0673 41.3251C33.0992 41.5338 32.1349 41.4769 31.1592 41.3821C30.2487 41.291 29.3689 41.0747 28.5507 40.7143C27.4558 40.2324 26.4224 39.6292 25.5388 38.8097C25.0817 38.3847 24.6437 37.9408 24.2096 37.4969C23.1455 36.4118 22.5961 35.0839 22.3464 33.6156C22.0621 31.9538 22.5308 30.4513 23.3644 29.0323C23.4451 28.8995 23.5373 28.7629 23.6487 28.5922Z" fill="#4C6730"/>
<path d="M9.72657 56.3952C9.3693 55.8489 9.11959 55.2266 8.57023 54.8168C7.80958 54.2515 7.09119 53.5876 6.07316 53.5307C5.75046 53.5117 5.40471 53.5535 5.10506 53.6635C4.58644 53.857 4.31368 54.2326 4.2791 54.8282C4.19075 56.3117 4.65174 57.6549 5.23183 58.979C5.39318 59.347 5.58527 59.6999 5.77351 60.0527C6.49958 61.411 7.53298 62.5037 8.77384 63.4143C8.88909 63.5015 9.02355 63.566 9.15416 63.6305C9.54217 63.824 9.72657 63.7785 9.97628 63.4143C10.3259 62.9134 10.4104 62.3557 10.3412 61.76C10.322 61.6121 10.322 61.4641 10.3143 61.3161C10.3604 61.3009 10.4027 61.2858 10.4488 61.2744C10.5064 61.3616 10.6025 61.4413 10.6217 61.5324C10.7792 62.3481 10.9405 63.1638 11.0711 63.9872C11.3593 65.7742 11.6397 67.5612 11.9125 69.352C12.0815 70.4788 12.2236 71.6095 12.3773 72.7363C12.4004 72.9147 12.4042 73.0968 12.4234 73.423C12.2006 73.2068 12.0469 73.0892 11.9317 72.9412C9.76114 70.1981 7.59445 67.4474 5.42392 64.7043C4.09855 63.0273 2.81159 61.3237 1.77435 59.4533C1.06748 58.1784 0.425926 56.8695 0.141643 55.4239C-0.257889 53.3827 0.168535 51.5388 1.66678 50.0477C3.30332 48.42 4.97828 47.8699 7.50993 48.7767C7.90562 48.9171 8.28979 49.0916 8.68164 49.2472C8.84299 49.3117 8.9544 49.3951 8.98129 49.5924C9.26557 51.6716 9.55754 53.7469 9.8495 55.8261C9.86103 55.8982 9.85719 55.9703 9.85334 56.1258C9.80724 56.2738 9.76499 56.3345 9.72657 56.3952Z" fill="#ECDFA5"/>
<path d="M13.549 38.195C12.5886 37.4893 11.6282 36.8405 10.9713 35.8654C10.6678 35.4139 10.3835 34.9511 10.0992 34.4844C10.0416 34.3933 10.0147 34.2833 9.98396 34.1771C9.91481 33.9532 9.97243 33.7863 10.2183 33.7142C10.5179 33.6269 10.8099 33.5055 11.1172 33.4562C12.6385 33.221 14.156 32.9781 15.685 32.7884C16.557 32.6822 17.4406 32.6784 18.3203 32.6253C18.7045 32.6025 19.0887 32.576 19.4728 32.5608C19.5881 32.557 19.7072 32.6025 19.9454 32.6481C19.7302 32.7581 19.6265 32.815 19.5228 32.8643C19.0618 33.0692 18.6392 33.5245 18.9196 34.1884C19.0311 34.454 19.1425 34.731 19.3115 34.9624C19.9031 35.7706 20.5178 36.5598 21.1209 37.3603C22.2965 38.9197 23.8485 40.0275 25.5081 41.0216C26.2841 41.4883 27.0908 41.8639 27.9706 42.0801C28.0551 42.0991 28.1319 42.156 28.2818 42.2281C28.1281 42.3154 28.0282 42.4216 27.9283 42.4254C27.1946 42.4368 26.4608 42.4444 25.7309 42.4178C25.1431 42.3989 24.5515 42.3723 23.9753 42.2774C23.0878 42.1295 22.1966 41.9815 21.3399 41.7273C19.9723 41.3213 18.62 40.8471 17.2754 40.3652C16.2151 39.9858 15.2778 39.375 14.3673 38.73C14.1061 38.5517 13.841 38.3885 13.549 38.195Z" fill="#ECDFA4"/>
<path d="M41.7045 40.0769C42.6918 39.1815 43.414 38.1495 43.925 36.9733C44.1247 36.5105 44.336 36.0476 44.4935 35.5733C44.6779 35.0232 44.5588 34.4806 44.3091 33.976C44.0556 33.4638 43.6945 33.0275 43.2335 32.6822C43.149 32.6177 43.0452 32.5722 42.953 32.5191C42.9799 32.466 43.003 32.4166 43.0299 32.3635C43.6061 32.3597 44.1824 32.3294 44.7586 32.3559C45.4347 32.3901 46.1109 32.447 46.7832 32.538C48.2776 32.7353 49.7528 33.0351 51.2011 33.4524C51.6697 33.589 51.858 33.9949 51.6313 34.4275C51.5046 34.6665 51.3394 34.8904 51.1703 35.1066C50.2483 36.2942 49.1189 37.2806 47.9587 38.2291C46.7563 39.2118 45.4885 40.0996 44.1094 40.8281C43.2834 41.2644 42.4382 41.6438 41.497 41.7842C40.5213 41.9322 39.5493 42.1029 38.5735 42.2585C38.4545 42.2774 38.3277 42.2623 38.174 42.2623C38.2124 41.9701 38.4237 41.9474 38.5966 41.8601C39.461 41.4314 40.3215 40.9951 41.1743 40.5398C41.3664 40.4297 41.5086 40.2476 41.7045 40.0769Z" fill="#EBDEA4"/>
<path d="M36.9716 25.2268C36.0457 26.8317 35.0123 28.3038 33.783 29.6507C32.8841 30.6334 32.0581 31.6768 31.1976 32.6898C31.1246 32.7733 31.017 32.8264 30.871 32.9326C30.8326 32.7771 30.7904 32.6974 30.7942 32.6139C30.8211 31.9082 30.8633 31.1987 30.8902 30.493C30.9363 29.3169 31.1476 28.1786 31.7316 27.1429C32.3385 26.0615 33.0147 25.0182 33.6178 23.9369C34.5974 22.1802 35.4195 20.3552 35.9881 18.4241C36.3147 17.3124 36.5567 16.1893 36.3838 15.0397C36.2493 14.1253 36.0227 13.2224 35.7999 12.3232C35.6654 11.7692 35.4656 11.2305 35.2736 10.631C35.3619 10.7372 35.4388 10.798 35.4772 10.8776C35.8575 11.663 36.2762 12.437 36.5951 13.2489C37.1406 14.6376 37.64 16.0528 37.8091 17.5438C38.0665 19.7785 38.0933 22.0057 37.3903 24.1835C37.2866 24.5211 37.1252 24.8512 36.9716 25.2268Z" fill="#4C662F"/>
<path d="M9.72657 56.4332C9.76499 56.3345 9.80725 56.2738 9.85334 56.179C9.93018 56.4408 9.99933 56.7367 10.08 57.0971C9.74578 56.9416 9.8495 56.6532 9.72657 56.4332Z" fill="#B4AD7D"/>
</svg>
