<svg width="190" height="95" viewBox="0 0 190 95" fill="none" xmlns="http://www.w3.org/2000/svg">
<path d="M30.8698 30.5469C30.8967 29.061 31.2847 27.7271 32.0069 26.4844C32.8251 25.0783 33.6626 23.6836 34.4271 22.247C35.2262 20.7421 35.7717 19.1308 36.2019 17.4852C36.4939 16.368 36.4785 15.2469 36.2288 14.1258C35.9983 13.0959 35.7525 12.0698 35.4874 10.9259C35.6257 11.0969 35.714 11.1729 35.7601 11.2717C36.006 11.8 36.2788 12.3244 36.4785 12.8679C37.0163 14.3234 37.5887 15.7713 37.7731 17.3256C38.0459 19.5868 38.0997 21.8404 37.3813 24.0408C37.1969 24.607 36.928 25.1543 36.636 25.6787C35.5527 27.6283 34.0775 29.2814 32.5678 30.9079C32.1452 31.364 31.7764 31.8656 31.3807 32.3483C31.2693 32.4851 31.154 32.6219 31.0542 32.7435C30.766 32.6865 30.8083 32.5117 30.816 32.3483C30.8352 31.7668 30.8506 31.1816 30.8698 30.5469Z" fill="#1E3223"/>
<path d="M27.5737 56.8565C27.6121 57.7723 27.6313 58.6388 27.6697 59.5053C27.7004 60.2122 27.7427 60.9228 27.7888 61.6297C27.8541 62.6102 27.9348 63.5906 27.9924 64.5711C28.0923 66.2243 28.1922 67.8774 28.2805 69.5343C28.342 70.7162 28.3804 71.9019 28.4419 73.0838C28.4995 74.1745 28.5763 75.2652 28.6339 76.3559C28.6877 77.3554 28.7108 78.3587 28.7722 79.3581C28.826 80.2474 28.9144 81.1329 28.9758 82.0222C28.9951 82.33 28.9643 82.6416 28.9835 82.9494C29.0412 83.8919 29.118 84.8344 29.1679 85.7806C29.2217 86.7801 29.2371 87.7796 29.2909 88.7791C29.337 89.6304 29.4215 90.4817 29.4868 91.3329C29.4906 91.3709 29.4945 91.4051 29.4983 91.4431C29.5367 92.4084 29.5751 93.3699 29.6059 94.3351C29.6097 94.472 29.579 94.6126 29.5598 94.8026C29.433 94.7646 29.3331 94.7646 29.2755 94.7152C28.7991 94.2857 28.2959 93.8791 27.8695 93.4079C26.9475 92.3932 26.0601 91.3405 25.165 90.303C24.1623 89.1401 23.1673 87.9658 22.1647 86.8067C20.87 85.3132 19.5677 83.8273 18.2731 82.3338C17.2666 81.1709 16.2678 80.0004 15.2613 78.8375C15.1307 78.6855 14.9732 78.5525 14.8656 78.3852C14.758 78.2218 14.6582 78.0356 14.6274 77.8494C14.493 77.0437 14.3816 76.2342 14.2625 75.4248C14.032 73.8781 13.813 72.3275 13.571 70.7846C13.425 69.8497 13.2368 68.9225 13.0908 67.9876C12.9179 66.9083 12.7758 65.8252 12.6067 64.7459C12.4607 63.811 12.2956 62.88 12.1457 61.9451C12.0113 61.1204 11.8883 60.2919 11.7616 59.4635C11.581 58.2778 11.4081 57.0883 11.2276 55.9026C11.1008 55.0741 10.9702 54.2495 10.8357 53.4248C10.6782 52.4557 10.513 51.4866 10.3594 50.5138C10.1788 49.3813 10.0098 48.2449 9.82924 47.1125C9.67173 46.1244 9.5027 45.1401 9.3452 44.152C9.23763 43.487 9.14159 42.8219 9.04171 42.1569C8.85347 40.918 8.66523 39.6753 8.47315 38.4364C8.28107 37.1937 8.07746 35.9547 7.88538 34.7158C7.81239 34.2598 7.87002 34.1382 8.30028 33.9444C8.63066 33.7962 8.9764 33.7088 9.46045 33.8304C9.28373 34.0128 9.16464 34.1344 9.04555 34.256C8.84195 34.4612 8.76511 34.6968 8.92646 34.9477C9.4374 35.7457 9.93681 36.559 10.4938 37.3266C11.2199 38.3299 12.2149 39.071 13.1753 39.8387C15.5532 41.7351 18.2116 43.1259 21.1236 44.0494C22.8331 44.5929 24.5695 44.9805 26.3443 45.2313C26.6709 45.2769 26.863 45.41 27.0474 45.7216C27.7849 46.9681 28.8376 47.7965 30.3166 48.1195C31.4998 48.378 32.4679 48.0777 33.313 47.2987C33.7548 46.892 34.1505 46.4284 34.5231 45.9572C34.8113 45.5886 35.1301 45.3871 35.6142 45.3225C37.3352 45.0945 39.014 44.6917 40.6659 44.1597C42.022 43.7264 43.3128 43.1449 44.592 42.5483C45.4525 42.1454 46.2516 41.5982 47.0468 41.0738C48.353 40.2111 49.5746 39.242 50.6771 38.1323C51.407 37.3989 52.0217 36.578 52.475 35.6545C52.644 35.3125 52.767 34.9439 52.863 34.579C52.8976 34.4536 52.8131 34.275 52.7401 34.1458C52.6632 34.0128 52.5326 33.914 52.4135 33.7848C53.2356 33.4504 53.9771 33.9444 53.8657 34.7196C53.6044 36.521 53.324 38.3224 53.0551 40.1237C52.9706 40.7014 52.9053 41.279 52.8207 41.8566C52.5826 43.4604 52.3367 45.0603 52.0985 46.664C51.8796 48.1424 51.6683 49.6207 51.4493 51.0952C51.1458 53.1474 50.8423 55.2033 50.5312 57.2555C50.3045 58.749 50.0548 60.2388 49.8243 61.7323C49.5938 63.2448 49.3825 64.7611 49.1597 66.2736C48.8677 68.2384 48.5681 70.1994 48.2723 72.1641C47.9995 73.9655 47.7421 75.7706 47.4502 77.5682C47.4002 77.8798 47.2696 78.2104 47.0775 78.4575C46.3899 79.3353 45.6638 80.1866 44.9493 81.0417C43.4818 82.7974 42.0143 84.5531 40.5468 86.3089C39.2791 87.8252 38.0075 89.3378 36.7397 90.8541C35.7755 92.0056 34.8189 93.1609 33.8432 94.3009C33.6434 94.5328 33.3975 94.7342 33.1478 94.909C32.9097 95.0762 32.7099 95.0116 32.6561 94.7266C32.5908 94.377 32.5985 94.0083 32.5985 93.6511C32.5985 93.4877 32.6561 93.3281 32.6638 93.1647C32.7061 92.1462 32.7406 91.1239 32.7829 90.1054C32.8559 88.342 32.925 86.5749 33.0095 84.8116C33.0748 83.4093 33.1594 82.0107 33.2285 80.6084C33.3053 79.0465 33.386 77.4808 33.4475 75.9188C33.4974 74.6989 33.5013 73.479 33.5627 72.2591C33.628 71.005 33.7548 69.7547 33.8355 68.5006C33.9046 67.4099 33.9431 66.3154 34.0007 65.2248C34.0929 63.4614 34.2004 61.7019 34.285 59.9385C34.3503 58.6274 34.381 57.3163 34.4425 56.0052C34.527 54.2761 34.6345 52.5507 34.7229 50.8254C34.7728 49.8449 34.8074 48.8606 34.842 47.8763C34.8458 47.7547 34.8266 47.6369 34.8074 47.3899C34.6345 47.6217 34.5308 47.7623 34.4271 47.9029C33.7971 48.739 33.0403 49.4231 32.003 49.7119C30.3896 50.1603 29.0757 49.6321 27.9847 48.4426C27.7273 48.1613 27.4891 47.8611 27.1857 47.5039C27.1472 47.6863 27.1011 47.7965 27.105 47.9067C27.1472 48.7998 27.201 49.6891 27.2548 50.5821C27.2855 51.0534 27.3278 51.5247 27.3585 51.9997C27.42 53.0144 27.4853 54.0253 27.5352 55.0399C27.5391 55.6138 27.5468 56.2104 27.5737 56.8565Z" fill="#724D32"/>
<path d="M107.472 52.6267C107.383 49.6283 107.272 46.6299 106.292 43.7188C109.558 43.677 112.765 43.677 115.977 43.677C115.8 44.2661 115.585 44.8475 115.462 45.4479C115.27 46.3904 115.101 47.3367 115.005 48.2906C114.878 49.5181 114.832 50.7494 114.732 52.0491C114.694 52.1479 114.686 52.1821 114.69 52.2163C114.686 54.8081 114.682 57.3962 114.675 60.064C114.69 60.1856 114.709 60.2312 114.728 60.2768C114.778 60.216 114.828 60.1552 114.878 60.0982C116.357 57.6432 118.024 55.2908 119.231 52.68C120.003 51.0078 120.537 49.2711 120.498 47.4051C120.479 46.3372 120.222 45.3149 119.868 44.3117C119.803 44.1254 119.742 43.9354 119.653 43.6656C119.911 43.6314 120.114 43.5782 120.322 43.5782C121.816 43.5706 123.311 43.5744 124.805 43.5744C125.838 43.5744 126.872 43.5706 127.905 43.5782C128.435 43.582 128.485 43.6808 128.454 44.2015C128.308 46.7553 127.206 48.9062 125.539 50.7836C124.213 52.2733 122.78 53.6681 121.42 55.1312C120.376 56.2561 119.369 57.4227 118.351 58.5704C118.255 58.6806 118.182 58.8099 118.109 58.9353C118.086 58.9771 118.082 59.0303 118.055 59.1443C118.405 59.0151 118.704 58.8897 119.016 58.7946C120.806 58.2398 122.588 58.2474 124.298 59.0341C125.8 59.7219 126.645 60.9989 127.071 62.5342C127.283 63.3018 127.413 64.0999 127.479 64.8942C127.567 66.0001 127.571 67.1135 127.594 68.2232C127.617 69.2265 127.571 70.2336 127.644 71.2331C127.794 73.3005 127.909 75.3754 128.474 77.3896C128.589 77.8076 128.731 78.2143 128.877 78.6779C125.627 78.6779 122.427 78.6779 119.173 78.6779C119.192 78.5221 119.188 78.3815 119.235 78.2561C119.845 76.5763 120.045 74.8244 120.195 73.061C120.399 70.6592 120.46 68.2574 120.429 65.8519C120.418 65.0538 120.295 64.2557 120.176 63.469C120.126 63.1536 119.984 62.8382 119.819 62.557C119.173 61.4587 117.871 61.28 116.899 62.1199C116.25 62.6786 115.862 63.3968 115.57 64.1721C115.151 65.2666 114.936 66.4105 114.79 67.5734C114.632 68.8123 114.663 70.0474 114.778 71.2825C114.913 72.7494 115.024 74.2201 115.228 75.6795C115.343 76.5041 115.62 77.306 115.831 78.1155C115.873 78.2865 115.942 78.4499 116.004 78.6171C115.531 78.7425 106.872 78.7615 106.281 78.6437C106.3 78.5259 106.292 78.3929 106.338 78.2827C106.788 77.211 106.995 76.0785 107.114 74.9384C107.279 73.3841 107.46 71.8183 107.479 70.2602C107.541 64.4609 107.541 58.6617 107.56 52.7826C107.518 52.68 107.498 52.6495 107.472 52.6267Z" fill="#724D32"/>
<path d="M58.879 78.6855C59.5474 76.9145 59.8048 75.0638 59.9623 73.1902C60.1505 70.9556 60.2159 68.7173 60.212 66.4789C60.2043 62.4658 60.2351 58.4526 60.1966 54.4395C60.1813 52.6951 60.043 50.947 59.9546 49.2026C59.8893 47.9295 59.7203 46.6679 59.413 45.429C59.2747 44.8665 59.0672 44.3193 58.9481 43.7226C59.6089 43.6808 60.2159 43.677 60.8228 43.677C64.2419 43.6732 67.6647 43.6694 71.0838 43.6656C72.947 43.6808 74.7525 43.9696 76.4083 44.8741C78.1101 45.8014 78.9629 47.2797 79.2088 49.1457C79.3279 50.0577 79.2856 50.9584 79.0936 51.8553C78.7785 53.3146 77.9872 54.5041 76.9154 55.5188C75.8858 56.4954 74.7064 57.2745 73.504 58.0232C73.1237 58.2588 72.7434 58.502 72.363 58.7415C72.3746 58.7833 72.3861 58.8289 72.3938 58.8707C72.7703 58.8707 73.1506 58.8669 73.5271 58.8707C74.5336 58.8783 75.5016 59.0911 76.4236 59.4863C78.1178 60.2084 79.2703 61.4625 79.9618 63.1384C80.3959 64.1911 80.6648 65.278 80.6878 66.4257C80.6955 66.9159 80.7992 67.4062 80.7839 67.8964C80.7109 70.4084 79.9963 72.7076 78.3022 74.6343C76.9922 76.1241 75.3595 77.1577 73.5002 77.8532C72.2708 78.313 70.9954 78.5753 69.5894 78.7159C66.2088 78.7235 62.9242 78.7235 59.6396 78.7235C59.3938 78.7159 59.1364 78.6969 58.879 78.6855ZM67.5341 60.596C67.9298 60.0678 68.3101 59.5319 68.7212 59.0189C69.236 58.3766 69.7815 57.7572 70.3001 57.1187C71.4756 55.6632 72.098 53.9911 72.1556 52.1327C72.194 50.928 72.0711 49.7271 71.6754 48.5794C71.2567 47.3709 70.5268 46.417 69.259 45.9762C68.798 45.8166 68.3217 45.6836 67.7493 45.79C67.634 47.0403 67.4803 48.264 67.4189 49.4915C67.3574 50.7646 67.3766 52.0453 67.3728 53.3184C67.3651 55.762 67.3689 58.2056 67.3613 60.6796C67.4074 60.6758 67.4535 60.6682 67.5341 60.596ZM67.3689 67.6C67.3152 70.0816 67.4611 72.5518 67.7454 75.0106C67.8107 75.5654 67.9413 76.1089 68.0374 76.6257C68.4984 76.7853 68.8749 76.6561 69.2552 76.6143C70.9301 76.4357 71.9866 75.4704 72.6934 74.0339C73.4387 72.5252 73.577 70.8872 73.6654 69.2531C73.7038 68.531 73.5962 67.8014 73.5732 67.0755C73.5463 66.1786 73.4041 65.3008 73.1659 64.4381C72.9124 63.5146 72.582 62.6216 71.8444 61.9565C70.9685 61.1698 69.9544 61.071 69.0477 61.8007C68.4331 62.2947 68.022 62.9408 67.6302 63.602C67.4381 63.9251 67.3536 64.2633 67.3613 64.6433C67.3805 65.5934 67.3689 66.5435 67.3689 67.6Z" fill="#724D32"/>
<path d="M104.89 64.8941C104.66 67.3453 104.241 69.7129 103.353 71.9703C102.666 73.7223 101.725 75.3222 100.322 76.6181C98.8856 77.952 97.2068 78.7881 95.2399 79.0655C94.3448 79.1909 93.4535 79.2555 92.5507 79.1643C90.3725 78.9439 88.4517 78.1458 86.8651 76.6447C85.1018 74.9764 84.0415 72.8862 83.3462 70.6022C82.8084 68.8389 82.4665 67.0337 82.332 65.1944C82.2245 63.7427 82.1169 62.2833 82.14 60.8316C82.1745 58.4868 82.3128 56.1382 82.8084 53.8352C83.2194 51.9389 83.7919 50.0995 84.7599 48.4008C85.8279 46.531 87.2531 45.0185 89.2316 44.0684C90.5262 43.4452 91.9092 43.1639 93.3421 43.1335C94.9133 43.0993 96.4231 43.3692 97.8483 44.0304C99.7461 44.9121 101.156 46.3182 102.224 48.0778C103.507 50.1907 104.16 52.5127 104.563 54.9183C104.955 57.2631 105.071 59.6269 105.032 61.9983C105.017 62.9484 104.94 63.8947 104.89 64.8941ZM96.7381 54.1088C96.7035 53.6908 96.6497 53.2766 96.6344 52.8585C96.5729 51.4562 96.3539 50.0729 96.0735 48.6972C95.8737 47.7129 95.6125 46.74 95.0824 45.8736C94.8864 45.5543 94.6214 45.2541 94.3256 45.0223C93.8185 44.6271 93.3306 44.6651 92.7966 45.0337C92.4086 45.3035 92.155 45.6798 91.9476 46.094C91.4482 47.0821 91.1985 48.1462 90.9872 49.2178C90.5954 51.2016 90.4609 53.2196 90.3341 55.2337C90.2189 57.0693 90.2304 58.9124 90.2112 60.7518C90.2035 61.4434 90.2765 62.1351 90.2765 62.8268C90.2688 65.2856 90.3303 67.7406 90.5954 70.1918C90.7298 71.4611 90.9104 72.7152 91.1754 73.9617C91.3906 74.965 91.6979 75.9379 92.2818 76.7967C92.9771 77.8152 94.1258 77.8494 94.8288 76.8385C95.1592 76.3635 95.4243 75.8276 95.6125 75.2842C96.2003 73.5892 96.4461 71.8221 96.596 70.0398C96.715 68.6451 96.838 67.2465 96.9071 65.848C96.9647 64.7193 96.9571 63.5868 96.9532 62.4581C96.9494 60.5428 96.9494 58.6274 96.911 56.7159C96.8994 55.8798 96.7996 55.0475 96.7381 54.1088Z" fill="#714D32"/>
<path d="M140.778 78.7121C140.824 78.5601 140.836 78.3891 140.921 78.2598C141.497 77.3782 141.727 76.3787 141.839 75.3716C141.965 74.2353 141.985 73.0876 141.996 71.9437C142.004 71.1837 141.912 70.4198 141.831 69.5837C141.566 69.4735 141.332 69.4089 141.101 69.4089C139.622 69.4013 138.139 69.3975 136.66 69.4089C136.41 69.4089 136.161 69.4773 135.911 69.5153C135.919 70.5908 135.842 71.6739 135.949 72.738C136.115 74.4253 136.468 76.0822 137.271 77.61C137.448 77.9444 137.655 78.2598 137.855 78.5943C137.44 78.7501 130.099 78.8033 129.188 78.6665C129.219 78.5487 129.23 78.4232 129.284 78.3206C130.076 76.8613 130.521 75.2842 130.894 73.6881C131.263 72.1109 131.585 70.5224 131.873 68.9301C132.108 67.6227 132.262 66.304 132.457 64.9891C132.707 63.298 132.961 61.6107 133.207 59.9195C133.341 59.0037 133.452 58.084 133.579 57.1643C133.744 55.9748 133.933 54.7891 134.075 53.5996C134.225 52.3379 134.317 51.0648 134.455 49.8031C134.597 48.5148 134.632 47.2227 134.551 45.9306C134.513 45.3339 134.401 44.7411 134.321 44.1482C134.305 44.0228 134.29 43.8974 134.328 43.7264C138.604 43.6808 142.826 43.6846 147.044 43.6846C146.975 44.095 146.879 44.5055 146.84 44.9159C146.764 45.7102 146.645 46.512 146.679 47.3063C146.752 48.9404 146.887 50.5745 147.044 52.2011C147.175 53.5388 147.367 54.8727 147.555 56.2028C147.739 57.4987 147.958 58.787 148.15 60.0829C148.285 60.9836 148.392 61.8843 148.519 62.7849C148.707 64.134 148.892 65.487 149.092 66.8323C149.218 67.6759 149.345 68.5234 149.51 69.3595C149.814 70.9138 150.117 72.4643 150.463 74.0073C150.751 75.307 151.151 76.5763 151.727 77.7848C151.861 78.066 152.007 78.3358 152.111 78.655C151.942 78.7045 151.811 78.7121 151.681 78.7121C148.043 78.7159 144.409 78.7121 140.778 78.7121ZM141.347 65.848C141.301 65.487 141.259 65.126 141.209 64.7649C141.074 63.8301 140.936 62.8952 140.798 61.9603C140.613 60.7024 140.421 59.4445 140.241 58.1866C140.102 57.2137 139.995 56.237 139.845 55.2679C139.649 54.01 139.438 52.7559 139.211 51.5018C139.103 50.9052 138.954 50.3161 138.827 49.7233C138.785 49.7233 138.738 49.7233 138.696 49.7233C138.654 49.8715 138.604 50.0197 138.577 50.1679C138.447 50.8824 138.308 51.5968 138.193 52.3151C137.974 53.6604 137.763 55.0095 137.559 56.3548C137.428 57.2175 137.317 58.084 137.19 58.9466C136.987 60.3489 136.775 61.7513 136.568 63.1536C136.426 64.1075 136.288 65.0613 136.222 66.0646C136.514 66.0836 136.806 66.114 137.098 66.114C138.35 66.1178 139.599 66.1216 140.851 66.1102C141.02 66.1178 141.262 66.2242 141.347 65.848Z" fill="#724D32"/>
<path d="M172.391 69.8459C172.399 69.7357 172.41 69.6293 172.41 69.5191C172.41 63.8947 172.406 58.2702 172.399 52.5697C172.383 52.4595 172.36 52.4291 172.333 52.4063C172.23 49.4801 172.114 46.5576 171.158 43.7188C177.135 43.6808 183.063 43.6808 188.991 43.6846C188.991 44.8551 188.994 46.0294 188.948 47.2493C188.841 47.3063 188.779 47.3139 188.718 47.3253C186.021 46.2004 183.171 46.0294 180.228 45.9686C179.775 48.0131 179.644 50.0539 179.594 52.1707C179.571 52.2657 179.563 52.2961 179.563 52.3265C179.552 52.4177 179.533 52.5051 179.533 52.5963C179.533 54.7701 179.536 56.9439 179.552 59.1746C179.563 59.2354 179.59 59.2431 179.59 59.2431L179.613 59.224C180.846 59.243 182.076 59.1899 183.305 59.0492C184.604 58.901 185.898 58.73 187.166 58.407C187.331 58.3652 187.515 58.3994 187.773 58.3994C187.727 58.6388 187.708 58.8326 187.658 59.0151C187.343 60.1171 187.02 61.2192 186.693 62.3213C186.567 62.7545 186.501 62.804 186.071 62.6292C185.061 62.2187 184.023 61.9071 182.948 61.7437C182.022 61.603 181.088 61.5271 180.074 61.4055C179.844 61.4017 179.694 61.4169 179.544 61.432C179.536 63.2562 179.529 65.0804 179.529 66.9045C179.529 67.8888 179.533 68.8731 179.544 69.9333C179.563 70.0436 179.579 70.0702 179.606 70.093C179.613 71.8221 179.721 73.5436 180.02 75.2538C180.078 75.5768 180.132 75.8998 180.232 76.2913C181.065 76.3787 181.853 76.4015 182.64 76.4129C182.744 76.4129 182.852 76.3597 182.955 76.3293C184.653 76.2152 186.309 75.8923 187.896 75.269C188.391 75.0752 188.86 74.8168 189.348 74.604C189.521 74.5279 189.709 74.4899 189.924 74.4215C189.959 74.6192 189.997 74.7407 189.997 74.8623C190.001 76.029 190.001 77.1958 189.997 78.3625C189.997 78.4499 189.963 78.5411 189.874 78.6741C183.566 78.7197 177.331 78.7197 171.096 78.7197C171.212 78.3206 171.327 77.9216 171.442 77.5264C171.822 76.2115 172.022 74.87 172.107 73.5095C172.18 72.3694 172.253 71.2292 172.341 70.0207C172.383 69.9143 172.391 69.8801 172.391 69.8459Z" fill="#724D32"/>
<path d="M153.682 70.6136C153.69 70.5034 153.702 70.397 153.702 70.2868C153.702 64.1531 153.698 58.0156 153.69 51.8059C153.675 51.6957 153.652 51.6653 153.625 51.6425C153.617 50.0083 153.467 48.3894 153.206 46.7743C153.056 45.8584 152.883 44.9539 152.541 44.0874C152.503 43.9886 152.511 43.8746 152.553 43.7226C158.507 43.6808 164.404 43.6808 170.301 43.6808C170.301 44.8779 170.301 46.0788 170.301 47.3481C170.128 47.3139 169.986 47.3101 169.863 47.2569C168.407 46.6412 166.878 46.3296 165.311 46.189C164.231 46.0902 163.144 46.0408 162.061 45.98C161.538 45.9496 161.542 45.961 161.458 46.4436C161.293 47.3937 161.139 48.3438 161.104 49.3129C161.058 50.6392 160.966 51.9655 160.878 53.3602C160.839 53.459 160.832 53.4932 160.835 53.5274C160.805 55.4009 160.824 57.2745 160.82 59.1861C161.811 59.2773 162.725 59.2165 163.636 59.1367C164.535 59.0569 165.43 58.9581 166.325 58.8365C167.228 58.7149 168.111 58.483 169.114 58.2854C168.98 59.1671 168.703 59.8511 168.499 60.558C168.292 61.2724 168.077 61.9831 167.843 62.7584C167.082 62.5075 166.383 62.2377 165.664 62.0477C164.919 61.8539 164.158 61.7095 163.394 61.5993C162.649 61.489 161.896 61.451 161.074 61.3636C160.947 61.3712 160.889 61.394 160.832 61.4168C160.828 63.8262 160.828 66.2319 160.832 68.7173C160.851 68.8275 160.866 68.8541 160.893 68.8769C160.928 70.0398 160.92 71.2065 161.012 72.3694C161.127 73.8325 161.258 75.3032 161.6 76.7359C161.715 77.211 161.877 77.6784 162.015 78.1496C162.061 78.3016 162.099 78.4537 162.138 78.6019C161.688 78.7425 153.267 78.7767 152.503 78.6475C152.518 78.5031 152.507 78.3397 152.557 78.2028C153.022 76.9449 153.244 75.6414 153.363 74.3189C153.467 73.1636 153.533 72.0007 153.632 70.7732C153.679 70.6782 153.686 70.6478 153.682 70.6136Z" fill="#724D32"/>
<path d="M33.217 41.3968C31.3692 41.4956 29.6443 41.2334 28.0116 40.4391C26.3751 39.6411 25.0497 38.4554 23.8703 37.1139C23.0213 36.1486 22.5604 34.9667 22.3491 33.6974C22.0148 31.7022 22.6026 29.9351 23.7781 28.3465C24.5157 27.3471 25.2879 26.359 26.1292 25.4469C29.0143 22.3154 30.7161 18.6405 31.3807 14.4792C31.5382 13.4911 31.6727 12.4878 31.6996 11.4884C31.7226 10.6371 31.6189 9.7744 31.4883 8.93073C31.2347 7.2548 30.9389 5.58267 30.6393 3.91054C30.4318 2.75144 30.0669 1.64555 29.4061 0.653666C29.3139 0.516855 29.2524 0.364829 29.1833 0.212817C29.1641 0.171013 29.1795 0.110209 29.1795 0C29.3062 0.0760063 29.4138 0.125414 29.506 0.19382C30.6969 1.1363 31.5459 2.34099 32.2105 3.6825C33.1939 5.67007 34.0583 7.70324 34.4924 9.88842C34.8881 11.8798 35.1378 13.8864 35.0418 15.9233C34.9111 18.7165 34.0583 21.297 32.6638 23.7064C31.9301 24.9719 31.1195 26.1956 30.4203 27.4763C29.8056 28.5936 29.118 29.6881 28.7953 30.9422C28.5878 31.7402 28.4457 32.5459 28.6608 33.3744C28.9144 34.3473 29.4599 35.0959 30.3511 35.5747C31.7457 36.3196 33.1901 36.5552 34.7152 35.9586C35.4182 35.6849 35.9369 35.1909 36.3517 34.6133C36.8819 33.8798 36.5246 32.9297 35.6487 32.6143C34.8266 32.3179 33.9584 32.2571 33.0941 32.1735C32.902 32.1545 32.7137 32.124 32.5217 32.0974C32.5217 32.0556 32.5217 32.0176 32.5178 31.9758C32.6676 31.934 32.8175 31.8656 32.9673 31.8542C34.8458 31.7022 36.7282 31.5692 38.5837 31.9872C39.3136 32.1507 40.0359 32.4053 40.7235 32.7055C41.5917 33.0817 42.0604 33.99 41.8914 34.9097C41.8107 35.3467 41.6455 35.7952 41.4112 36.179C39.7247 38.9684 37.2468 40.652 34.0314 41.2866C33.7817 41.3436 33.5205 41.3588 33.217 41.3968Z" fill="#1E3223"/>
<path d="M11.3083 65.7454C11.7078 68.265 12.1112 70.7314 12.3916 73.2206C12.3532 73.2396 12.3109 73.2548 12.2725 73.2738C12.1573 73.1674 12.0305 73.0762 11.9344 72.9546C9.7332 70.1689 7.53196 67.3833 5.33455 64.5977C3.81327 62.6709 2.35346 60.6986 1.26244 58.4906C0.670833 57.2897 0.175263 56.0584 0.0369654 54.7093C-0.139749 53.0181 0.313562 51.5284 1.47373 50.2743C1.831 49.8867 2.24589 49.5447 2.67231 49.2254C4.02456 48.207 5.52279 48.1461 7.08633 48.6288C7.55885 48.7732 8.00832 48.9936 8.47699 49.1608C8.79201 49.271 8.93415 49.4535 8.98025 49.7917C9.21458 51.5626 9.47581 53.3298 9.72936 55.0969C9.78314 55.4769 9.85613 55.8532 9.90607 56.2294C9.93296 56.4346 9.94065 56.6398 9.91376 56.8565C9.58722 56.0622 9.21074 55.3135 8.52693 54.7815C8.05057 54.4129 7.55116 54.067 7.0287 53.763C6.57155 53.497 6.04525 53.459 5.52279 53.516C4.76215 53.5958 4.32037 54.1164 4.27427 54.8575C4.16286 56.6246 4.81594 58.179 5.56505 59.7181C6.21428 61.0558 7.19005 62.1427 8.31949 63.1004C8.56919 63.3132 8.85731 63.4842 9.14544 63.64C9.52575 63.8452 9.71399 63.7768 9.98291 63.4196C10.3018 63.0016 10.3287 62.5076 10.3632 62.0173C10.3786 61.8045 10.3671 61.5879 10.3671 61.2573C10.4938 61.4093 10.5899 61.4738 10.6052 61.5498C10.7282 62.1579 10.8511 62.766 10.951 63.374C11.0701 64.1493 11.1815 64.9245 11.3083 65.7454Z" fill="#714C31"/>
<path d="M25.7681 42.3659C23.8473 42.3621 22.0033 41.9745 20.2016 41.336C19.9404 41.2448 19.683 41.1384 19.4179 41.0738C17.5931 40.6558 15.9681 39.8159 14.4469 38.767C13.6593 38.2273 12.8872 37.6649 12.1381 37.0759C11.2237 36.3576 10.6129 35.3999 10.0789 34.3966C9.83693 33.9444 9.94065 33.7126 10.4362 33.5872C11.0778 33.4237 11.7308 33.2907 12.3839 33.1919C13.3827 33.0399 14.3892 32.9069 15.3957 32.8043C16.3638 32.7055 17.3396 32.6523 18.3115 32.5839C18.6765 32.5573 19.0453 32.5307 19.4141 32.5193C19.514 32.5155 19.6138 32.5611 19.7982 32.6029C19.6215 32.7169 19.5216 32.7891 19.4179 32.8499C18.7956 33.2261 18.6227 33.6822 18.9492 34.3282C19.2028 34.8299 19.5178 35.3087 19.8443 35.7723C21.381 37.9537 23.2288 39.8083 25.6183 41.0776C26.279 41.431 26.9936 41.6856 27.6851 41.982C27.8195 42.039 27.9578 42.0923 28.0846 42.1607C28.0961 42.1683 28.0539 42.2747 27.954 42.3431C27.1703 42.3583 26.4673 42.3621 25.7681 42.3659Z" fill="#714C31"/>
<path d="M49.3787 36.9201C47.5577 38.5884 45.6216 40.0363 43.4165 41.0966C42.7557 41.412 42.0681 41.6628 41.3228 41.7503C40.4277 41.8567 39.5441 42.0277 38.6567 42.1759C38.48 42.2063 38.2994 42.2861 38.1419 42.0581C38.2303 41.9935 38.2994 41.8985 38.3916 41.8757C39.0985 41.7009 39.6978 41.2942 40.3432 40.9978C41.4841 40.4696 42.2717 39.5575 42.9901 38.5808C43.501 37.8853 43.8813 37.1139 44.2347 36.331C44.519 35.7001 44.6765 35.0617 44.4729 34.3701C44.2885 33.7354 43.8852 33.2452 43.428 32.7929C43.3012 32.6675 43.1668 32.5535 42.9555 32.3597C43.5433 32.2647 44.035 32.2875 44.519 32.3103C45.9904 32.3787 47.4579 32.5345 48.8985 32.8538C49.6168 33.0134 50.3352 33.1805 51.0421 33.3858C51.7528 33.591 51.8949 34.0052 51.457 34.6133C51.1151 35.0883 50.7348 35.533 50.3467 35.97C50.0471 36.293 49.7167 36.5856 49.3787 36.9201Z" fill="#714C31"/>
<path d="M171.15 78.7311C177.343 78.7121 183.582 78.7121 189.87 78.7083C189.671 78.7463 189.417 78.8223 189.163 78.8223C183.393 78.8299 177.619 78.8299 171.849 78.8223C171.627 78.8223 171.408 78.7729 171.15 78.7311Z" fill="#1C0000"/>
<path d="M188.964 43.6504C183.067 43.6808 177.139 43.677 171.162 43.677C171.285 43.639 171.457 43.5706 171.63 43.5706C177.254 43.5668 182.879 43.5668 188.503 43.5668C188.645 43.5668 188.787 43.601 188.964 43.6504Z" fill="#554C31"/>
<path d="M170.274 43.6504C164.412 43.6808 158.511 43.677 152.564 43.677C152.687 43.639 152.86 43.5706 153.033 43.5706C158.627 43.5668 164.216 43.5668 169.809 43.5668C169.952 43.5668 170.094 43.601 170.274 43.6504Z" fill="#554C31"/>
<path d="M147.013 43.6504C142.822 43.6808 138.604 43.6808 134.336 43.6808C134.44 43.6428 134.593 43.5706 134.747 43.5706C138.7 43.563 142.653 43.5668 146.606 43.5668C146.729 43.5706 146.856 43.601 147.013 43.6504Z" fill="#554C31"/>
<path d="M71.0415 43.639C67.6647 43.6694 64.2419 43.6732 60.8228 43.677C60.2159 43.677 59.6089 43.6808 58.952 43.6846C59.0557 43.6466 59.2094 43.5744 59.363 43.5744C63.1124 43.5668 66.8657 43.5706 70.6151 43.5706C70.7457 43.5706 70.8725 43.5972 71.0415 43.639Z" fill="#554C31"/>
<path d="M140.817 78.7311C144.409 78.7159 148.039 78.7159 151.673 78.7159C151.804 78.7159 151.931 78.7083 152.111 78.6931C151.911 78.7311 151.662 78.8185 151.412 78.8185C148.116 78.8261 144.816 78.8261 141.52 78.8223C141.297 78.8223 141.078 78.7729 140.817 78.7311Z" fill="#1C0000"/>
<path d="M58.9174 78.7082C59.1364 78.6968 59.3937 78.7159 59.6511 78.7159C62.9357 78.7197 66.2165 78.7159 69.5548 78.7197C69.3358 78.7577 69.0631 78.8223 68.7903 78.8223C65.767 78.8299 62.7436 78.8299 59.7203 78.8223C59.4629 78.8185 59.2094 78.7615 58.9174 78.7082Z" fill="#1C0000"/>
<path d="M115.942 43.6428C112.765 43.677 109.558 43.6732 106.296 43.6732C106.4 43.6352 106.553 43.5668 106.707 43.5668C109.665 43.5592 112.623 43.563 115.585 43.5668C115.693 43.5706 115.8 43.5972 115.942 43.6428Z" fill="#554C31"/>
<path d="M135.957 69.5116C136.157 69.4773 136.407 69.4089 136.656 69.4051C138.135 69.3937 139.618 69.3937 141.097 69.4051C141.332 69.4051 141.562 69.4697 141.831 69.5305C141.65 69.5419 141.431 69.5077 141.216 69.5077C139.484 69.5077 137.747 69.5116 135.957 69.5116Z" fill="#563A26"/>
<path d="M182.909 76.3217C182.859 76.3521 182.752 76.4091 182.648 76.4091C181.861 76.3977 181.073 76.3787 180.251 76.3331C181.1 76.3065 181.98 76.3141 182.909 76.3217Z" fill="#1E3223"/>
<path d="M25.8104 42.3773C26.4673 42.3583 27.1703 42.3545 27.9232 42.3545C27.2702 42.5293 26.5633 42.4913 25.8104 42.3773Z" fill="#563A26"/>
<path d="M114.84 60.0981C114.821 60.1589 114.771 60.2197 114.725 60.2805C114.705 60.2349 114.686 60.1894 114.675 60.1171C114.725 60.0943 114.767 60.0943 114.84 60.0981Z" fill="#1D130D"/>
<path d="M179.594 61.4321C179.702 61.4169 179.851 61.4017 180.032 61.4017C179.921 61.4207 179.778 61.4245 179.594 61.4321Z" fill="#1D130D"/>
<path d="M160.882 61.4207C160.901 61.4016 160.958 61.3788 161.039 61.3712C161.012 61.3978 160.962 61.4092 160.882 61.4207Z" fill="#1D130D"/>
<path d="M179.606 59.2165C179.617 59.2203 179.594 59.2393 179.594 59.2393C179.594 59.2393 179.567 59.2317 179.563 59.2203C179.559 59.2089 179.594 59.2127 179.606 59.2165Z" fill="#1D130D"/>
<path d="M160.858 53.5084C160.839 53.4932 160.847 53.459 160.889 53.4096C160.901 53.4286 160.889 53.459 160.858 53.5084Z" fill="#1D130D"/>
<path d="M160.901 68.8617C160.882 68.8617 160.862 68.8351 160.851 68.7781C160.87 68.7781 160.885 68.8085 160.901 68.8617Z" fill="#1D130D"/>
<path d="M107.475 52.6534C107.498 52.6534 107.518 52.6799 107.529 52.7407C107.51 52.7369 107.495 52.7066 107.475 52.6534Z" fill="#1D130D"/>
<path d="M172.376 69.8687C172.391 69.8839 172.383 69.9143 172.349 69.9637C172.337 69.9485 172.349 69.9181 172.376 69.8687Z" fill="#1D130D"/>
<path d="M179.609 70.0664C179.59 70.0664 179.571 70.0398 179.559 69.9828C179.579 69.9828 179.594 70.0094 179.609 70.0664Z" fill="#1D130D"/>
<path d="M153.671 70.6326C153.686 70.6478 153.679 70.6782 153.644 70.7276C153.632 70.7124 153.64 70.682 153.671 70.6326Z" fill="#1D130D"/>
<path d="M172.341 52.4329C172.364 52.4329 172.383 52.4595 172.395 52.5203C172.376 52.5165 172.36 52.4899 172.341 52.4329Z" fill="#1D130D"/>
<path d="M179.583 52.3037C179.571 52.2923 179.575 52.2619 179.602 52.2163C179.617 52.2277 179.609 52.2581 179.583 52.3037Z" fill="#1D130D"/>
<path d="M114.698 52.1973C114.678 52.1821 114.686 52.1479 114.728 52.0985C114.74 52.1137 114.728 52.1441 114.698 52.1973Z" fill="#1D130D"/>
<path d="M153.636 51.6653C153.659 51.6653 153.678 51.6919 153.69 51.7527C153.671 51.7527 153.652 51.7223 153.636 51.6653Z" fill="#1D130D"/>
<path d="M67.3613 60.6682C67.3882 60.6568 67.4074 60.6606 67.465 60.6606C67.4535 60.6682 67.4074 60.6758 67.3613 60.6682Z" fill="#563A26"/>
<path d="M136.18 66.0495C137.578 66.0229 139.007 66.0266 140.44 66.0228C140.713 66.0228 140.99 65.9886 141.309 65.9582C141.262 66.2243 141.02 66.1178 140.844 66.1178C139.595 66.1292 138.343 66.1292 137.09 66.1216C136.802 66.1216 136.51 66.0913 136.18 66.0495Z" fill="#1E3223"/>
</svg>
