<svg width="41" height="57" viewBox="0 0 41 57" fill="none" xmlns="http://www.w3.org/2000/svg">
<path d="M4.36778 45.6778C4.33135 44.3931 4.28399 43.1048 3.86507 41.8565C5.25299 41.8383 6.6154 41.8383 7.97782 41.8383C7.90132 42.0894 7.81025 42.3405 7.75925 42.5989C7.67911 43.0029 7.60625 43.4105 7.56618 43.8181C7.51154 44.3458 7.49332 44.8735 7.44961 45.4304C7.43504 45.474 7.4314 45.4886 7.4314 45.5031C7.4314 46.6168 7.4314 47.7268 7.42411 48.8696C7.4314 48.9205 7.43868 48.9424 7.44597 48.9606C7.46782 48.9351 7.48968 48.9096 7.50789 48.8841C8.13446 47.8324 8.84481 46.8206 9.35845 45.7033C9.6863 44.9864 9.91216 44.2403 9.89759 43.4396C9.8903 42.9811 9.78102 42.5443 9.63166 42.1112C9.60252 42.0312 9.57702 41.9511 9.54059 41.8346C9.64988 41.8201 9.7373 41.7983 9.82473 41.7983C10.4586 41.7983 11.0961 41.7983 11.7299 41.7983C12.1707 41.7983 12.6078 41.7983 13.0486 41.7983C13.2745 41.7983 13.2963 41.8419 13.2818 42.0639C13.2198 43.1594 12.7499 44.0838 12.0432 44.8881C11.4786 45.5286 10.8702 46.1255 10.2947 46.7551C9.85023 47.2391 9.42402 47.7377 8.99052 48.229C8.95045 48.2764 8.91767 48.3309 8.88853 48.3855C8.8776 48.4037 8.8776 48.4256 8.86667 48.4765C9.01602 48.4219 9.14352 48.3673 9.27466 48.3273C10.036 48.0907 10.7937 48.0908 11.5186 48.4292C12.1561 48.724 12.5168 49.2735 12.6953 49.9323C12.7863 50.2598 12.841 50.6056 12.8665 50.944C12.9029 51.4171 12.9066 51.8975 12.9138 52.3707C12.9248 52.8001 12.9029 53.2332 12.9357 53.6626C12.9976 54.5506 13.0486 55.4387 13.2891 56.3048C13.3364 56.4832 13.3983 56.6579 13.4603 56.858H9.33659C9.34388 56.7925 9.34388 56.7306 9.36209 56.676C9.62073 55.9555 9.70816 55.2021 9.77009 54.4487C9.85752 53.4188 9.88302 52.3889 9.86845 51.3553C9.8648 51.0132 9.81016 50.6711 9.75916 50.3326C9.7373 50.198 9.67902 50.0633 9.60616 49.9396C9.33295 49.4701 8.77924 49.39 8.3676 49.7503C8.09075 49.9905 7.92682 50.2999 7.80296 50.631C7.62447 51.1005 7.53339 51.5918 7.47147 52.0904C7.4059 52.6218 7.41682 53.1531 7.46782 53.6808C7.52611 54.3105 7.57347 54.9401 7.65725 55.566C7.70461 55.9191 7.82482 56.2648 7.91225 56.6105C7.93046 56.6833 7.95961 56.7525 7.98511 56.8253C7.78475 56.8799 4.1055 56.8871 3.85414 56.8362C3.86143 56.7852 3.85778 56.727 3.87964 56.6797C4.06907 56.2211 4.16014 55.7335 4.2075 55.2458C4.27671 54.5798 4.35321 53.9065 4.36414 53.2405C4.38964 50.7511 4.38964 48.2654 4.39692 45.7433C4.37871 45.6997 4.37142 45.6851 4.36049 45.6778H4.36778Z" fill="#724D32"/>
<path d="M10.7937 40.6773C11.0779 39.5782 11.1871 38.4318 11.2527 37.2709C11.3329 35.8843 11.362 34.4977 11.3584 33.1074C11.3584 30.6181 11.3693 28.1287 11.3511 25.643C11.3438 24.5621 11.2855 23.4776 11.2491 22.3967C11.2199 21.607 11.1507 20.8245 11.0196 20.0566C10.9613 19.7072 10.8739 19.3687 10.8229 18.9975C11.1034 18.9721 11.362 18.9684 11.6206 18.9684C13.0741 18.9684 14.5276 18.9648 15.9811 18.9611C16.7716 18.9721 17.5402 19.1504 18.2433 19.7108C18.9646 20.2859 19.3289 21.203 19.4345 22.3603C19.4855 22.9244 19.4673 23.4849 19.3871 24.0417C19.2524 24.9479 18.9172 25.6831 18.4619 26.3127C18.0247 26.9168 17.522 27.4009 17.012 27.8667C16.8517 28.0123 16.6878 28.1651 16.5275 28.3107C16.5312 28.3362 16.5385 28.3653 16.5421 28.3908C16.7024 28.3908 16.8627 28.3908 17.023 28.3908C17.4492 28.3944 17.8608 28.5291 18.2542 28.7729C18.9755 29.2206 19.4636 29.9994 19.7587 31.0366C19.9445 31.6881 20.0574 32.365 20.0684 33.0747C20.0684 33.3804 20.1157 33.6824 20.1084 33.9881C20.0756 35.5458 19.7733 36.9724 19.0557 38.1662C18.4983 39.0906 17.8062 39.7311 17.0157 40.1605C16.4947 40.4444 15.952 40.6082 15.3545 40.6955C13.9193 40.6992 12.5241 40.6992 11.1289 40.6992C11.0232 40.6955 10.9139 40.681 10.8047 40.6773M14.4803 29.4608C14.6478 29.1332 14.8081 28.802 14.983 28.4818C15.2015 28.0851 15.4347 27.6993 15.6533 27.3026C16.1523 26.4 16.4182 25.3628 16.4401 24.2091C16.4547 23.4631 16.4037 22.717 16.2361 22.0073C16.0576 21.2576 15.748 20.668 15.2088 20.3914C15.0121 20.2931 14.8118 20.2094 14.5677 20.275C14.5203 21.0501 14.4548 21.8108 14.4256 22.5714C14.4001 23.3611 14.4074 24.1545 14.4074 24.9443C14.4074 26.4583 14.4074 27.9759 14.4038 29.5081C14.422 29.5081 14.4438 29.5008 14.4766 29.4571M14.4074 33.7989C14.3855 35.3384 14.4475 36.8705 14.5677 38.3954C14.5968 38.7412 14.6515 39.076 14.6915 39.3963C14.8883 39.4945 15.0485 39.4145 15.2088 39.389C15.9192 39.2798 16.3709 38.6793 16.6696 37.7877C16.9865 36.8523 17.0448 35.837 17.0812 34.8216C17.0958 34.3739 17.0521 33.9226 17.0412 33.4714C17.0302 32.9145 16.9683 32.3723 16.87 31.8373C16.7607 31.2659 16.6222 30.7091 16.309 30.2978C15.9374 29.8101 15.5075 29.7483 15.1214 30.1995C14.8591 30.5053 14.6843 30.9056 14.5203 31.3168C14.4402 31.517 14.4038 31.7281 14.4074 31.961C14.4147 32.5506 14.4074 33.1402 14.4074 33.7953V33.7989Z" fill="#724D32"/>
<path d="M30.3411 32.1248C30.2428 33.646 30.0643 35.1127 29.6891 36.5139C29.3976 37.602 28.9969 38.592 28.4031 39.3963C27.7911 40.2224 27.0808 40.7428 26.2429 40.9139C25.8641 40.9903 25.4852 41.0303 25.0991 40.9758C24.1738 40.8375 23.3578 40.3425 22.6839 39.4145C21.9335 38.3809 21.4854 37.0853 21.1903 35.6659C20.9608 34.5741 20.8151 33.4532 20.7605 32.314C20.7131 31.4151 20.6694 30.5089 20.6804 29.61C20.6949 28.1542 20.7532 26.6985 20.9645 25.2718C21.1393 24.0963 21.3834 22.9535 21.7951 21.9018C22.2504 20.7408 22.8551 19.8055 23.693 19.2159C24.243 18.8301 24.8295 18.6554 25.4379 18.6372C26.1045 18.6154 26.7457 18.7828 27.354 19.1941C28.1591 19.74 28.7601 20.6134 29.2118 21.7052C29.7583 23.0154 30.0351 24.4566 30.2063 25.9487C30.3739 27.4045 30.4213 28.8675 30.4067 30.3378C30.3994 30.9274 30.3666 31.5134 30.3448 32.1321M26.8804 25.4429C26.8659 25.1845 26.844 24.9261 26.8367 24.6677C26.8112 23.7979 26.7165 22.939 26.5999 22.0874C26.5162 21.4759 26.4032 20.8754 26.1774 20.3368C26.0936 20.1403 25.9807 19.951 25.8568 19.8091C25.6419 19.5653 25.4342 19.5871 25.2084 19.8164C25.0445 19.9838 24.9352 20.2167 24.8477 20.4751C24.6365 21.0865 24.5308 21.7489 24.4397 22.4113C24.2722 23.6414 24.2175 24.8933 24.1629 26.1416C24.1155 27.2808 24.1192 28.4235 24.1119 29.5627C24.1119 29.9921 24.141 30.4215 24.141 30.851C24.141 32.3759 24.1629 33.8972 24.2758 35.4184C24.3341 36.2045 24.4106 36.9834 24.5235 37.7549C24.6146 38.3772 24.7457 38.9814 24.9935 39.5127C25.2885 40.146 25.7767 40.1642 26.0754 39.5382C26.2174 39.2434 26.3267 38.9122 26.4069 38.5738C26.6582 37.522 26.7602 36.4265 26.8258 35.3202C26.8768 34.454 26.9278 33.5878 26.9569 32.7216C26.9824 32.0229 26.9788 31.3205 26.9752 30.6181C26.9752 29.4316 26.9752 28.2416 26.9569 27.0588C26.9533 26.542 26.9096 26.0252 26.8841 25.4429H26.8804Z" fill="#714D32"/>
<path d="M19.0302 56.9854C19.0484 56.9199 19.0557 56.8471 19.0921 56.7925C19.3361 56.414 19.4345 55.9846 19.4819 55.5551C19.5365 55.0674 19.5438 54.5761 19.5474 54.0848C19.5474 53.7573 19.511 53.4297 19.4782 53.0731C19.3653 53.0258 19.2669 52.9966 19.1686 52.9966C18.542 52.9966 17.9118 52.993 17.2816 52.9966C17.176 52.9966 17.0703 53.0258 16.9647 53.0439C16.9647 53.5062 16.9355 53.9684 16.9792 54.4269C17.0485 55.1512 17.1978 55.8608 17.5402 56.5159C17.6167 56.6579 17.7042 56.7961 17.7879 56.9381C17.6131 57.0036 14.4912 57.0291 14.1051 56.9708C14.1196 56.9199 14.1233 56.8653 14.1451 56.8216C14.4803 56.1957 14.6697 55.5187 14.83 54.8345C14.9866 54.1576 15.125 53.477 15.2453 52.7928C15.3436 52.2324 15.4092 51.6646 15.493 51.1005C15.5986 50.3763 15.7079 49.652 15.8099 48.9242C15.8682 48.5311 15.9155 48.1381 15.9665 47.7414C16.0357 47.2319 16.1159 46.7223 16.1778 46.2128C16.2397 45.6706 16.2798 45.1247 16.3381 44.5824C16.4 44.0292 16.4146 43.476 16.3782 42.9192C16.3636 42.6644 16.3162 42.4097 16.2798 42.1549C16.2725 42.1003 16.2652 42.0457 16.2798 41.9729C18.0976 41.9548 19.8899 41.9548 21.6821 41.9548C21.653 42.1294 21.6129 42.3078 21.5947 42.4825C21.5619 42.8246 21.5109 43.1667 21.5255 43.5088C21.5583 44.2112 21.6129 44.9099 21.6821 45.6087C21.7368 46.1837 21.8206 46.7551 21.9007 47.3265C21.9808 47.8833 22.0719 48.4365 22.1521 48.9897C22.2103 49.3755 22.2541 49.7612 22.3087 50.1506C22.3888 50.7293 22.4653 51.3116 22.5528 51.8866C22.6074 52.2469 22.662 52.6109 22.7313 52.9712C22.8588 53.6372 22.9899 54.3032 23.1356 54.9655C23.2595 55.5224 23.427 56.0683 23.6711 56.5851C23.7294 56.7052 23.7913 56.8216 23.835 56.9599C23.7622 56.9818 23.7075 56.9854 23.6529 56.9854C22.1083 56.9854 20.5638 56.9854 19.0229 56.9854M19.2633 51.4681C19.2451 51.3116 19.2269 51.1587 19.205 51.0023C19.1467 50.6019 19.0884 50.2016 19.0302 49.7976C18.95 49.259 18.8699 48.7167 18.7934 48.1781C18.7351 47.7596 18.6877 47.341 18.6258 46.9261C18.542 46.3875 18.4546 45.8489 18.3562 45.3103C18.3089 45.0555 18.2469 44.8007 18.1923 44.546H18.1377C18.1194 44.6079 18.0976 44.6734 18.0867 44.7352C18.032 45.0409 17.9737 45.3467 17.9227 45.656C17.828 46.2347 17.7406 46.8133 17.6532 47.3884C17.5985 47.7596 17.5512 48.1308 17.4965 48.502C17.4091 49.1025 17.3217 49.7066 17.2306 50.3071C17.1687 50.7147 17.1104 51.126 17.0849 51.5554C17.2087 51.5627 17.3326 51.5773 17.4564 51.5773C17.9883 51.5773 18.5202 51.5773 19.052 51.5773C19.1249 51.5773 19.2269 51.6246 19.2633 51.4645V51.4681Z" fill="#724D32"/>
<path d="M32.4576 53.1823C32.4576 53.1349 32.4649 53.0876 32.4649 53.0403C32.4649 50.6274 32.4649 48.2145 32.4613 45.7688C32.454 45.7215 32.4467 45.707 32.4321 45.6997C32.3884 44.4441 32.3374 43.1921 31.933 41.9729C34.4721 41.9584 36.9893 41.9584 39.5101 41.9584C39.5101 42.4606 39.5101 42.9629 39.4919 43.4869C39.4445 43.5124 39.419 43.516 39.3935 43.5197C38.2497 43.0356 37.0366 42.9629 35.7871 42.9374C35.5941 43.8145 35.5394 44.6916 35.5176 45.5978C35.5067 45.6378 35.503 45.6524 35.503 45.6633C35.4994 45.7033 35.4884 45.7397 35.4884 45.7797C35.4884 46.7114 35.4884 47.6467 35.4957 48.6003C35.4994 48.6257 35.5103 48.6294 35.5103 48.6294L35.5212 48.6221C36.0458 48.6294 36.5667 48.6075 37.0913 48.5457C37.6413 48.4838 38.1914 48.4074 38.7306 48.2691C38.7998 48.2509 38.8799 48.2691 38.9892 48.2691C38.971 48.371 38.9601 48.4547 38.9418 48.5348C38.8071 49.0079 38.6723 49.481 38.5338 49.9541C38.4792 50.1397 38.4537 50.1616 38.2679 50.0851C37.8381 49.9104 37.3973 49.7758 36.9419 49.7066C36.5485 49.6448 36.1514 49.612 35.7216 49.5611C35.6232 49.5611 35.5613 49.5647 35.4957 49.572C35.4957 50.3545 35.4884 51.1369 35.4884 51.9194C35.4884 52.3416 35.4884 52.7637 35.4957 53.2186C35.503 53.266 35.5103 53.2769 35.5212 53.2878C35.5212 54.0302 35.5686 54.769 35.6961 55.5005C35.7216 55.6388 35.7434 55.7771 35.7871 55.9445C36.1405 55.9809 36.4756 55.9919 36.8108 55.9955C36.8545 55.9955 36.9019 55.9737 36.9456 55.9591C37.6668 55.9118 38.3699 55.7698 39.0438 55.5042C39.2551 55.4205 39.4518 55.3113 39.6595 55.2203C39.7323 55.1875 39.8125 55.173 39.9035 55.1402C39.9181 55.2239 39.9363 55.2785 39.9363 55.3295C39.9363 55.8317 39.9363 56.3303 39.9363 56.8326C39.9363 56.8689 39.9218 56.909 39.8853 56.9672C37.2042 56.9854 34.5559 56.9854 31.9075 56.9854C31.9549 56.8144 32.0059 56.6433 32.0533 56.4722C32.2135 55.9081 32.301 55.3331 32.3374 54.7472C32.3702 54.2595 32.3993 53.7682 32.4357 53.2514C32.454 53.2041 32.4576 53.1895 32.4576 53.175V53.1823Z" fill="#724D32"/>
<path d="M24.509 53.5134C24.509 53.4661 24.5162 53.4188 24.5162 53.3715C24.5162 50.7402 24.5162 48.1053 24.5126 45.4413C24.5053 45.394 24.498 45.3794 24.4835 45.3721C24.4835 44.6697 24.4179 43.9782 24.305 43.2831C24.243 42.8901 24.1665 42.5007 24.0208 42.1294C24.0063 42.0858 24.0063 42.0385 24.0245 41.9729C26.5526 41.9548 29.0589 41.9548 31.5651 41.9548V43.527C31.4923 43.5124 31.4303 43.5124 31.3793 43.4869C30.76 43.2213 30.1116 43.0902 29.445 43.0284C28.986 42.9847 28.5234 42.9665 28.0644 42.9374C27.8421 42.9228 27.8458 42.9301 27.8094 43.1376C27.7401 43.5452 27.6746 43.9528 27.66 44.3677C27.6418 44.9354 27.6017 45.5068 27.5653 46.1036C27.5507 46.1473 27.5471 46.1619 27.5471 46.1764C27.5325 46.9807 27.5434 47.785 27.5398 48.6039C27.9624 48.6439 28.3485 48.6185 28.7346 48.5821C29.1171 48.5493 29.496 48.5056 29.8785 48.4547C30.261 48.4037 30.6362 48.3018 31.0624 48.2181C31.0041 48.5966 30.8875 48.8914 30.8001 49.1935C30.7127 49.4992 30.6216 49.8049 30.5196 50.1361C30.1954 50.0269 29.9003 49.9141 29.5943 49.8304C29.2774 49.7467 28.9532 49.6848 28.629 49.6375C28.3121 49.5902 27.9915 49.5756 27.6418 49.5356C27.5871 49.5356 27.5616 49.5501 27.5398 49.5574C27.5398 50.591 27.5398 51.6246 27.5398 52.6909C27.5471 52.7382 27.5544 52.7492 27.5653 52.7601C27.5799 53.2587 27.5762 53.7609 27.6163 54.2595C27.6636 54.8855 27.7219 55.5187 27.8676 56.1338C27.915 56.3376 27.9842 56.5378 28.0425 56.7416C28.0607 56.8071 28.0789 56.8726 28.0935 56.9344C27.9041 56.9963 24.3268 57.0109 23.999 56.9526C24.0063 56.8908 23.999 56.8216 24.0208 56.7634C24.2175 56.2248 24.3122 55.6643 24.3632 55.0966C24.407 54.6016 24.4361 54.103 24.4762 53.5753C24.4944 53.5353 24.498 53.5207 24.498 53.5062L24.509 53.5134Z" fill="#724D32"/>
<path d="M22.0537 17.7601C19.6822 17.8038 17.471 17.691 15.3764 17.3489C13.2781 17.0068 11.5769 16.4973 10.0652 15.9223C8.97595 15.5074 8.38582 15.0015 8.1126 14.4556C7.68275 13.6003 8.43681 12.8397 9.94494 12.1591C10.8921 11.7297 11.8829 11.3075 12.9612 10.9145C16.6623 9.57153 18.8444 7.99568 19.6968 6.20874C19.8971 5.78657 20.072 5.35349 20.1048 4.92404C20.1339 4.5601 20.0028 4.18888 19.8352 3.82495C19.511 3.10435 19.1321 2.38739 18.746 1.67043C18.4801 1.17184 18.0102 0.698716 17.165 0.272908C17.0485 0.214678 16.9683 0.149169 16.8809 0.0836603C16.8554 0.0654634 16.8772 0.0399877 16.8772 -0.00732422C17.0412 0.0254302 17.1796 0.0472665 17.2962 0.0763816C18.8225 0.480353 19.9117 0.997145 20.7641 1.57217C22.0246 2.42378 23.1356 3.29724 23.6893 4.2362C24.1957 5.09145 24.5162 5.95034 24.3924 6.8238C24.2248 8.02115 23.132 9.12753 21.3433 10.1647C20.4035 10.707 19.3616 11.2311 18.4655 11.7806C17.6787 12.261 16.7935 12.7305 16.3818 13.2691C16.1159 13.6112 15.9337 13.957 16.2106 14.3136C16.5348 14.7322 17.2342 15.0524 18.3781 15.2562C20.1667 15.5765 22.0209 15.6784 23.9735 15.42C24.8769 15.3036 25.5399 15.0925 26.0717 14.8414C26.7529 14.5284 26.2939 14.1208 25.1683 13.9825C24.1155 13.8551 23.0008 13.8296 21.8934 13.7932C21.6457 13.7859 21.4053 13.7714 21.1576 13.7605C21.1576 13.7423 21.1576 13.7277 21.1539 13.7095C21.347 13.6913 21.5364 13.6622 21.7295 13.6586C24.1374 13.593 26.5526 13.5348 28.9314 13.7168C29.8676 13.7859 30.7928 13.8951 31.6744 14.0261C32.7891 14.1863 33.3902 14.5757 33.1716 14.9724C33.0696 15.1616 32.8547 15.3509 32.556 15.5183C30.3921 16.7156 27.2156 17.4362 23.0919 17.7092C22.7713 17.7347 22.4362 17.7419 22.0464 17.7565L22.0537 17.7601Z" fill="#1E3223"/>
<path d="M9.24188 17.9203C8.42589 17.9203 7.64268 17.7529 6.87769 17.4799C6.7684 17.4399 6.65912 17.3962 6.54619 17.3671C5.77027 17.1888 5.08177 16.8285 4.43335 16.3772C4.09821 16.1443 3.77036 15.9041 3.45343 15.6529C3.06365 15.3436 2.80501 14.9323 2.57915 14.5029C2.47715 14.31 2.52087 14.2081 2.73215 14.1572C3.00536 14.088 3.28222 14.0298 3.55907 13.9861C3.98164 13.9206 4.41149 13.8624 4.8377 13.8187C5.24934 13.775 5.66463 13.7532 6.07626 13.7241C6.23291 13.7131 6.38955 13.7022 6.54619 13.6949C6.5899 13.6949 6.62997 13.7131 6.71012 13.7313C6.63362 13.7787 6.59355 13.8114 6.54983 13.8369C6.28391 13.997 6.21105 14.1935 6.34948 14.4701C6.45876 14.6849 6.5899 14.8923 6.72833 15.0888C7.3804 16.0242 8.16725 16.8212 9.17995 17.3634C9.46045 17.5163 9.7628 17.6255 10.0579 17.7529C10.1162 17.7783 10.1744 17.8002 10.2291 17.8293C10.2327 17.8293 10.2145 17.8766 10.1744 17.9094C9.84295 17.9166 9.54423 17.9166 9.24552 17.9203H9.24188Z" fill="#714C31"/>
<path d="M19.0447 13.1054C19.0775 12.4685 19.5766 11.8971 20.5019 11.3621C21.551 10.758 22.6256 10.1611 23.6055 9.54241C24.6292 8.89824 25.3286 8.20676 25.8823 7.50072C26.2575 7.02032 26.2357 6.53992 25.9151 6.05953C25.62 5.61916 25.3031 5.1788 24.9643 4.68748C25.1428 4.76027 25.2557 4.79302 25.314 4.83669C25.6309 5.06233 25.9807 5.28798 26.2357 5.5209C26.9242 6.14687 27.66 6.76557 27.8968 7.43521C28.2465 8.40693 28.3157 9.37136 27.3941 10.3176C27.1573 10.5614 26.8112 10.7944 26.4397 11.02C25.0517 11.8571 23.1575 12.5667 21.2231 13.2619C20.6804 13.4584 20.2068 13.6731 19.7004 13.8806C19.5584 13.9388 19.409 13.997 19.2815 14.0516C18.9136 14.0261 18.9646 13.9533 18.9755 13.8806C19.001 13.6294 19.0192 13.3783 19.0447 13.109V13.1054Z" fill="#1E3223"/>
<path d="M37.9146 15.5838C37.1423 16.3007 36.319 16.9194 35.3828 17.3744C35.1023 17.509 34.8109 17.6182 34.4939 17.6546C34.1151 17.7019 33.7399 17.7747 33.361 17.8366C33.2845 17.8511 33.208 17.8839 33.1425 17.7856C33.1789 17.7565 33.208 17.7165 33.2481 17.7055C33.5468 17.6291 33.8018 17.4544 34.0787 17.3307C34.5632 17.1051 34.8983 16.712 35.2043 16.2935C35.4229 15.995 35.5831 15.6639 35.7325 15.329C35.8527 15.0597 35.9219 14.7831 35.8345 14.4883C35.7544 14.2154 35.5832 14.0043 35.3901 13.8114C35.3354 13.7568 35.2808 13.7095 35.1897 13.6258C35.4411 13.5858 35.6487 13.593 35.8527 13.604C36.4793 13.6331 37.1022 13.6986 37.7142 13.8369C38.0202 13.906 38.3262 13.9788 38.6249 14.0662C38.9273 14.1535 38.9856 14.3318 38.7998 14.5939C38.6541 14.7977 38.4938 14.9869 38.3298 15.1762C38.2023 15.3145 38.0639 15.4419 37.9182 15.5838H37.9146Z" fill="#714C31"/>
<path d="M9.18724 39.167C9.15809 38.803 9.12531 38.4355 9.10345 38.0715C9.08159 37.6421 9.07431 37.2126 9.05245 36.7868C9.0306 36.3792 8.99781 35.9752 8.97231 35.5713C8.96502 35.4403 8.97595 35.3056 8.97231 35.1746C8.94681 34.7924 8.91038 34.414 8.88488 34.0318C8.85938 33.6024 8.84845 33.1729 8.8266 32.7435C8.8011 32.274 8.76831 31.8082 8.74646 31.3387C8.72096 30.8328 8.70274 30.3233 8.67724 29.8174C8.64081 29.1077 8.5971 28.3981 8.55339 27.6884C8.52789 27.2662 8.4951 26.8477 8.46596 26.4255C8.44774 26.1234 8.42953 25.8177 8.41496 25.5157C8.40039 25.1444 8.38946 24.7732 8.37489 24.3802C8.36396 24.1036 8.36032 23.8488 8.36032 23.6013C8.33846 23.1646 8.31296 22.7315 8.28382 22.2984C8.26925 22.0946 8.25103 21.8908 8.2401 21.6907C8.21825 21.3085 8.19275 20.9264 8.17817 20.5443C8.17817 20.497 8.19639 20.4496 8.21096 20.3769C8.20367 20.3041 8.19639 20.2313 8.18546 20.1549C8.15267 19.9911 8.10532 19.8237 8.10168 19.6563C8.07982 19.6235 8.05796 19.5907 8.04339 19.558C8.02153 19.518 7.99968 19.4743 7.98146 19.4343C7.94503 19.4161 7.90496 19.4015 7.85396 19.3942C7.0999 19.285 6.36405 19.1213 5.63548 18.8883C4.39692 18.4917 3.26765 17.8948 2.25858 17.0832C1.85059 16.7557 1.42802 16.4354 1.11838 16.006C0.881595 15.6784 0.670312 15.329 0.451742 14.9869C0.382528 14.8777 0.415314 14.7795 0.502742 14.6885C0.553741 14.6375 0.604741 14.583 0.677597 14.5065C0.473599 14.4556 0.324243 14.492 0.185816 14.5538C0.00367452 14.6376 -0.0218252 14.6885 0.0109602 14.885C0.0911023 15.4164 0.17853 15.9477 0.262315 16.4827C0.342457 17.0141 0.422599 17.5491 0.502742 18.0804C0.546455 18.3643 0.586527 18.6518 0.63024 18.9357C0.695811 19.3578 0.768668 19.7836 0.834239 20.2058C0.910738 20.6935 0.983595 21.1775 1.06009 21.6652C1.12566 22.0837 1.19488 22.4986 1.26409 22.9135C1.32238 23.2665 1.37702 23.6195 1.43166 23.9762C1.50816 24.4857 1.58102 24.9952 1.65752 25.5047C1.71216 25.8614 1.76316 26.2144 1.82144 26.5711C1.88337 26.9714 1.95623 27.3717 2.01816 27.7721C2.09101 28.2343 2.1493 28.7001 2.22216 29.1623C2.28408 29.5627 2.36423 29.963 2.42615 30.3633C2.52815 31.0257 2.62287 31.6917 2.72122 32.3541C2.77222 32.6998 2.81958 33.0492 2.87786 33.3949C2.89243 33.475 2.93251 33.5551 2.97986 33.6242C3.02722 33.697 3.09279 33.7516 3.14743 33.8171C3.57364 34.3157 3.99985 34.8179 4.42606 35.3165C4.97613 35.957 5.52984 36.5939 6.07991 37.2345C6.50612 37.7331 6.92869 38.2353 7.3549 38.7339C7.73375 39.1779 8.1126 39.6292 8.50239 40.0659C8.68453 40.2697 8.89581 40.4408 9.09981 40.6264C9.12531 40.6482 9.16538 40.6482 9.22002 40.6628C9.22731 40.5827 9.24188 40.5208 9.23824 40.4626C9.22367 40.0477 9.20909 39.6365 9.19088 39.2216C9.19088 39.207 9.19088 39.1888 9.18724 39.1743V39.167Z" fill="#724D32"/>
<path d="M40.3807 14.4774C40.4317 14.532 40.4864 14.5757 40.5192 14.6339C40.552 14.6885 40.5848 14.7649 40.5702 14.8195C40.5301 14.976 40.4755 15.1325 40.4062 15.2817C40.2132 15.6784 39.9509 16.0314 39.6413 16.3444C39.1713 16.8212 38.6541 17.2361 38.1003 17.6073C37.7616 17.8329 37.4228 18.0658 37.0585 18.2405C36.5157 18.4953 35.9656 18.7464 35.3901 18.932C34.687 19.1613 33.9767 19.3324 33.2445 19.4306C33.0805 19.4525 32.9603 19.5143 32.8547 19.6199C32.8875 19.7691 32.8947 19.9219 32.8875 20.0748C32.8947 20.1658 32.8875 20.2568 32.8765 20.3477C32.8838 20.3368 32.8911 20.3295 32.8984 20.3186C32.9057 20.4242 32.913 20.4751 32.913 20.5261C32.8984 20.9482 32.8838 21.3704 32.862 21.7926C32.8255 22.5314 32.7782 23.2738 32.7417 24.0162C32.7162 24.5803 32.7017 25.1408 32.6762 25.7049C32.6397 26.4619 32.596 27.2153 32.556 27.9722C32.5305 28.4417 32.5159 28.9112 32.4867 29.377C32.454 29.9157 32.3993 30.4507 32.3702 30.9893C32.3447 31.5134 32.341 32.0374 32.3228 32.5579C32.2973 33.2275 32.2609 33.9008 32.2281 34.5704C32.199 35.1709 32.1625 35.7714 32.1334 36.3719C32.097 37.1289 32.0678 37.8859 32.0387 38.6429C32.0205 39.0796 32.0059 39.52 31.9877 39.9567C31.9877 40.0259 31.9585 40.095 31.9585 40.1642C31.9585 40.317 31.9585 40.4772 31.984 40.6264C32.0059 40.7501 32.0933 40.7756 32.1917 40.7064C32.2973 40.63 32.403 40.5463 32.4867 40.4444C32.902 39.9567 33.3064 39.4581 33.718 38.9668C34.2572 38.3154 34.7963 37.6676 35.3354 37.0161C35.9584 36.2628 36.5813 35.5094 37.2042 34.7561C37.5066 34.3885 37.8162 34.0245 38.1076 33.646C38.1878 33.5405 38.2461 33.3986 38.2643 33.2639C38.3881 32.4924 38.4974 31.7172 38.614 30.9456C38.7378 30.1013 38.8653 29.2606 38.9892 28.4199C39.0839 27.7721 39.175 27.1206 39.2733 26.4728C39.3717 25.8323 39.4773 25.1918 39.572 24.5512C39.7032 23.6705 39.8343 22.7898 39.9618 21.909C40.0565 21.2758 40.144 20.6425 40.2387 20.0093C40.3407 19.3214 40.4427 18.6336 40.5447 17.9457C40.5811 17.6983 40.6066 17.4508 40.643 17.2033C40.756 16.4318 40.8762 15.6566 40.9891 14.885C41.0365 14.5538 40.7232 14.3391 40.3735 14.4847L40.3807 14.4774Z" fill="#724D32"/>
</svg>
