<svg width="130" height="130" viewBox="0 0 130 130" fill="none" xmlns="http://www.w3.org/2000/svg">
<circle cx="65" cy="65" r="65" fill="#EDE1A5"/>
<path d="M66.3997 41.0486C66.4367 39.3437 66.9696 37.8132 67.9616 36.3873C69.0855 34.774 70.2357 33.1738 71.2858 31.5256C72.3833 29.7989 73.1325 27.9501 73.7235 26.062C74.1245 24.7801 74.1034 23.4938 73.7604 22.2075C73.4438 21.0258 73.1061 19.8485 72.7421 18.536C72.932 18.7322 73.0534 18.8195 73.1167 18.9328C73.4544 19.5389 73.829 20.1407 74.1034 20.7642C74.8421 22.4342 75.6283 24.0955 75.8816 25.8789C76.2562 28.4733 76.3301 31.059 75.3434 33.5836C75.0901 34.2333 74.7207 34.8612 74.3197 35.463C72.8318 37.6998 70.8056 39.5966 68.7319 41.4628C68.1515 41.9861 67.645 42.5616 67.1015 43.1154C66.9485 43.2723 66.7902 43.4293 66.653 43.5689C66.2573 43.5035 66.3153 43.3029 66.3259 43.1154C66.3522 42.4482 66.3734 41.7768 66.3997 41.0486Z" fill="#1E3223"/>
<path d="M61.8725 71.2353C61.9253 72.2862 61.9517 73.2804 62.0044 74.2745C62.0466 75.0856 62.1047 75.9009 62.168 76.7119C62.2577 77.8369 62.3685 78.9619 62.4477 80.0869C62.5848 81.9836 62.722 83.8803 62.8434 85.7815C62.9278 87.1375 62.9806 88.498 63.065 89.8541C63.1442 91.1055 63.2497 92.3569 63.3288 93.6083C63.4027 94.7551 63.4344 95.9063 63.5188 97.053C63.5927 98.0734 63.714 99.0893 63.7984 100.11C63.8248 100.463 63.7826 100.82 63.809 101.174C63.8881 102.255 63.9937 103.336 64.0623 104.422C64.1361 105.569 64.1572 106.716 64.2311 107.862C64.2944 108.839 64.4105 109.816 64.5002 110.793C64.5055 110.836 64.5108 110.875 64.516 110.919C64.5688 112.026 64.6216 113.13 64.6638 114.237C64.6691 114.394 64.6268 114.555 64.6005 114.773C64.4263 114.73 64.2892 114.73 64.21 114.673C63.5557 114.18 62.8645 113.714 62.2788 113.173C61.0125 112.009 59.7936 110.801 58.5642 109.611C57.187 108.277 55.8204 106.929 54.4433 105.599C52.6651 103.886 50.8764 102.181 49.0982 100.467C47.7158 99.1329 46.3439 97.7899 44.9614 96.4557C44.782 96.2813 44.5657 96.1286 44.418 95.9368C44.2702 95.7493 44.133 95.5356 44.0908 95.3219C43.9061 94.3975 43.7531 93.4688 43.5896 92.54C43.273 90.7654 42.9722 88.9863 42.6398 87.216C42.4393 86.1434 42.1807 85.0795 41.9802 84.0068C41.7428 82.7685 41.5476 81.5258 41.3154 80.2874C41.1149 79.2148 40.888 78.1465 40.6822 77.0738C40.4975 76.1276 40.3287 75.1771 40.1546 74.2265C39.9066 72.8661 39.6691 71.5013 39.4211 70.1409C39.247 69.1903 39.0676 68.2441 38.8829 67.298C38.6666 66.1861 38.4397 65.0742 38.2287 63.9579C37.9807 62.6585 37.7485 61.3547 37.5005 60.0553C37.2842 58.9217 37.052 57.7924 36.8357 56.6587C36.6879 55.8956 36.556 55.1325 36.4188 54.3695C36.1603 52.948 35.9017 51.5221 35.6379 50.1007C35.3741 48.6748 35.0944 47.2533 34.8306 45.8319C34.7304 45.3086 34.8095 45.1691 35.4005 44.9467C35.8542 44.7767 36.3291 44.6764 36.994 44.8159C36.7512 45.0252 36.5877 45.1647 36.4241 45.3043C36.1444 45.5397 36.0389 45.8101 36.2605 46.0978C36.9623 47.0135 37.6482 47.9466 38.4133 48.8274C39.4106 49.9786 40.7772 50.8289 42.0963 51.7097C45.3624 53.8855 49.0138 55.4814 53.0133 56.5409C55.3614 57.1645 57.7463 57.6092 60.1841 57.897C60.6326 57.9493 60.8964 58.1019 61.1496 58.4595C62.1627 59.8897 63.6085 60.8402 65.6399 61.2109C67.2651 61.5074 68.5947 61.1629 69.7556 60.269C70.3624 59.8024 70.9058 59.2705 71.4177 58.7298C71.8134 58.3069 72.2513 58.0758 72.9162 58.0016C75.28 57.74 77.5859 57.2778 79.8547 56.6674C81.7173 56.1703 83.4902 55.5031 85.2473 54.8186C86.4292 54.3564 87.5267 53.7285 88.619 53.1268C90.413 52.137 92.0909 51.025 93.6052 49.7518C94.6078 48.9103 95.452 47.9685 96.0746 46.9089C96.3068 46.5165 96.4756 46.0935 96.6075 45.6749C96.655 45.531 96.539 45.3261 96.4387 45.1778C96.3332 45.0252 96.1538 44.9118 95.9902 44.7636C97.1194 44.3799 98.1377 44.9467 97.9847 45.8362C97.6259 47.903 97.2407 49.9699 96.8714 52.0367C96.7553 52.6995 96.6656 53.3622 96.5495 54.025C96.2224 55.8651 95.8847 57.7008 95.5575 59.5409C95.2568 61.237 94.9666 62.9332 94.6658 64.625C94.249 66.9796 93.8321 69.3386 93.4047 71.6932C93.0934 73.4068 92.7504 75.1161 92.4338 76.8297C92.1173 78.5651 91.8271 80.3049 91.521 82.0403C91.12 84.2946 90.7084 86.5445 90.3022 88.7989C89.9275 90.8657 89.574 92.9368 89.173 94.9993C89.1044 95.3568 88.925 95.7362 88.6612 96.0196C87.7167 97.0269 86.7194 98.0036 85.738 98.9846C83.7224 100.999 81.7068 103.014 79.6912 105.028C77.9499 106.768 76.2034 108.503 74.4622 110.243C73.1378 111.564 71.824 112.89 70.4837 114.198C70.2094 114.464 69.8717 114.695 69.5287 114.896C69.2015 115.087 68.9272 115.013 68.8533 114.686C68.7636 114.285 68.7741 113.862 68.7741 113.452C68.7741 113.265 68.8533 113.082 68.8639 112.894C68.9219 111.726 68.9694 110.553 69.0274 109.384C69.1277 107.361 69.2226 105.333 69.3387 103.31C69.4284 101.701 69.5445 100.097 69.6395 98.4876C69.745 96.6955 69.8558 94.899 69.9403 93.1069C70.0088 91.7072 70.0141 90.3075 70.0985 88.9079C70.1882 87.4689 70.3624 86.0344 70.4732 84.5955C70.5682 83.344 70.6209 82.0883 70.7001 80.8368C70.8267 78.8136 70.9744 76.7948 71.0905 74.7716C71.1802 73.2672 71.2224 71.7629 71.3069 70.2586C71.4229 68.2746 71.5707 66.295 71.692 64.3154C71.7606 63.1905 71.8081 62.0611 71.8556 60.9318C71.8609 60.7923 71.8345 60.6571 71.8081 60.3737C71.5707 60.6397 71.4282 60.801 71.2858 60.9623C70.4204 61.9216 69.3809 62.7065 67.9563 63.0379C65.7402 63.5524 63.9356 62.9463 62.4371 61.5815C62.0836 61.2588 61.7564 60.9143 61.3396 60.5045C61.2868 60.7138 61.2235 60.8402 61.2288 60.9667C61.2868 61.9914 61.3607 63.0117 61.4346 64.0364C61.4768 64.577 61.5348 65.1178 61.577 65.6628C61.6615 66.827 61.7512 67.9869 61.8198 69.1511C61.825 69.8095 61.8356 70.4941 61.8725 71.2353Z" fill="#724D32"/>
<path d="M69.6237 53.4974C67.0857 53.6108 64.7165 53.3099 62.474 52.3986C60.2263 51.4829 58.4059 50.1225 56.786 48.5833C55.6199 47.4758 54.9867 46.1197 54.6965 44.6633C54.2375 42.3741 55.0448 40.3466 56.6594 38.5239C57.6725 37.3772 58.733 36.2435 59.8886 35.197C63.8512 31.604 66.1887 27.3876 67.1015 22.613C67.3178 21.4793 67.5025 20.3282 67.5395 19.1814C67.5711 18.2047 67.4287 17.2148 67.2493 16.2468C66.901 14.3239 66.4947 12.4054 66.0832 10.4868C65.7982 9.15692 65.297 7.88805 64.3894 6.75C64.2628 6.59302 64.1783 6.41859 64.0834 6.24418C64.057 6.19622 64.0781 6.12645 64.0781 6C64.2522 6.08721 64.4 6.1439 64.5266 6.22238C66.1623 7.30375 67.3284 8.68598 68.2412 10.2252C69.592 12.5057 70.7792 14.8385 71.3755 17.3457C71.9189 19.6305 72.2619 21.9328 72.13 24.2699C71.9506 27.4748 70.7792 30.4355 68.8639 33.1999C67.8561 34.6519 66.7427 36.056 65.7824 37.5254C64.9382 38.8074 63.9937 40.0631 63.5504 41.5021C63.2655 42.4177 63.0703 43.3421 63.3658 44.2927C63.714 45.409 64.4633 46.2679 65.6874 46.8173C67.6028 47.6719 69.5867 47.9423 71.6815 47.2577C72.6471 46.9438 73.3594 46.377 73.9293 45.7142C74.6574 44.8726 74.1667 43.7825 72.9637 43.4206C71.8345 43.0805 70.642 43.0107 69.4548 42.9148C69.191 42.893 68.9324 42.8581 68.6686 42.8276C68.6686 42.7796 68.6686 42.736 68.6633 42.6881C68.8691 42.6401 69.0749 42.5616 69.2807 42.5486C71.8609 42.3741 74.4464 42.2215 76.9949 42.7012C77.9974 42.8887 78.9894 43.1808 79.9339 43.5253C81.1264 43.957 81.7701 44.999 81.5379 46.0543C81.4271 46.5557 81.2002 47.0703 80.8784 47.5107C78.562 50.7112 75.1587 52.6428 70.7423 53.3709C70.3993 53.4364 70.0405 53.4538 69.6237 53.4974Z" fill="#1E3223"/>
<path d="M39.5319 81.4342C40.0807 84.3251 40.6347 87.155 41.0199 90.011C40.9671 90.0328 40.9091 90.0503 40.8563 90.0721C40.698 89.95 40.5239 89.8453 40.392 89.7058C37.3686 86.5096 34.3452 83.3135 31.327 80.1174C29.2375 77.9067 27.2325 75.6437 25.734 73.1103C24.9214 71.7324 24.2407 70.3196 24.0508 68.7717C23.8081 66.8313 24.4307 65.1221 26.0242 63.6832C26.5149 63.2384 27.0847 62.846 27.6704 62.4797C29.5278 61.3112 31.5856 61.2414 33.7331 61.7951C34.3821 61.9608 34.9995 62.2137 35.6432 62.4056C36.0759 62.532 36.2711 62.7414 36.3344 63.1294C36.6563 65.1614 37.0151 67.1889 37.3633 69.2165C37.4372 69.6525 37.5374 70.0842 37.606 70.5158C37.643 70.7513 37.6535 70.9868 37.6166 71.2353C37.1681 70.324 36.651 69.465 35.7118 68.8546C35.0575 68.4316 34.3716 68.0348 33.654 67.686C33.0261 67.3808 32.3032 67.3372 31.5856 67.4026C30.5408 67.4942 29.934 68.0915 29.8707 68.9418C29.7177 70.9693 30.6147 72.7527 31.6436 74.5187C32.5353 76.0535 33.8756 77.3006 35.4268 78.3994C35.7698 78.6436 36.1656 78.8398 36.5613 79.0185C37.0837 79.254 37.3422 79.1755 37.7116 78.7657C38.1495 78.286 38.1864 77.7192 38.2339 77.1567C38.255 76.9125 38.2392 76.664 38.2392 76.2846C38.4133 76.4591 38.5452 76.5331 38.5663 76.6203C38.7352 77.318 38.904 78.0157 39.0412 78.7133C39.2048 79.6029 39.3578 80.4924 39.5319 81.4342Z" fill="#714C31"/>
<path d="M59.3926 54.6093C56.7543 54.6049 54.2216 54.1602 51.747 53.4276C51.3882 53.323 51.0347 53.2009 50.6706 53.1268C48.1643 52.6471 45.9323 51.6835 43.8428 50.48C42.7611 49.8608 41.7006 49.2155 40.6717 48.5397C39.4159 47.7156 38.5769 46.6167 37.8435 45.4656C37.5111 44.9467 37.6535 44.6807 38.3342 44.5368C39.2154 44.3493 40.1124 44.1967 41.0094 44.0834C42.3812 43.9089 43.7637 43.7564 45.1461 43.6386C46.4758 43.5253 47.816 43.4642 49.151 43.3857C49.6522 43.3552 50.1588 43.3247 50.6653 43.3116C50.8025 43.3073 50.9397 43.3596 51.1929 43.4075C50.9502 43.5383 50.813 43.6212 50.6706 43.691C49.8158 44.1226 49.5783 44.6459 50.0268 45.3871C50.3751 45.9627 50.8078 46.5121 51.2563 47.0441C53.3669 49.5469 55.9048 51.6747 59.1868 53.1311C60.0944 53.5366 61.0758 53.8288 62.0255 54.1689C62.2102 54.2343 62.4002 54.2954 62.5743 54.3738C62.5901 54.3826 62.5321 54.5046 62.3949 54.5831C61.3185 54.6006 60.3529 54.6049 59.3926 54.6093Z" fill="#714C31"/>
<path d="M91.8218 48.3609C89.3207 50.2751 86.6614 51.9364 83.6327 53.153C82.7251 53.5149 81.7807 53.8026 80.757 53.9029C79.5276 54.025 78.314 54.2212 77.0951 54.3913C76.8524 54.4262 76.6044 54.5178 76.3881 54.2561C76.5095 54.182 76.6044 54.073 76.7311 54.0468C77.7019 53.8463 78.5251 53.3797 79.4115 53.0396C80.9786 52.4335 82.0603 51.387 83.047 50.2664C83.7488 49.4685 84.2712 48.5833 84.7566 47.685C85.147 46.9612 85.3634 46.2287 85.0837 45.4351C84.8305 44.707 84.2764 44.1445 83.6485 43.6256C83.4744 43.4817 83.2897 43.3509 82.9995 43.1285C83.8068 43.0195 84.4822 43.0456 85.147 43.0718C87.1679 43.1503 89.1835 43.3291 91.1622 43.6954C92.1489 43.8785 93.1356 44.0703 94.1065 44.3058C95.0826 44.5412 95.2779 45.0166 94.6763 45.7142C94.2067 46.2593 93.6844 46.7694 93.1515 47.2708C92.7399 47.6415 92.2861 47.9772 91.8218 48.3609Z" fill="#714C31"/>
<path d="M59.4506 54.6224C60.3529 54.6006 61.3185 54.5962 62.3527 54.5962C61.4557 54.7968 60.4848 54.7532 59.4506 54.6224Z" fill="#563A26"/>
</svg>
