<svg width="191" height="97" viewBox="0 0 191 97" fill="none" xmlns="http://www.w3.org/2000/svg">
<path d="M27.7186 58.0706C27.7548 59.0059 27.779 59.8925 27.8152 60.7731C27.8455 61.4958 27.8878 62.2185 27.9361 62.9412C28.0026 63.9433 28.0811 64.9453 28.1416 65.9474C28.2443 67.6357 28.341 69.324 28.4316 71.0184C28.492 72.2269 28.5343 73.4355 28.5948 74.644C28.6552 75.7554 28.7277 76.8728 28.7881 77.9842C28.8425 79.0045 28.8667 80.0308 28.9271 81.0511C28.9815 81.9621 29.0722 82.8609 29.1326 83.7718C29.1507 84.0876 29.1205 84.4034 29.1386 84.7192C29.1991 85.6788 29.2716 86.6444 29.326 87.61C29.3803 88.6303 29.3985 89.6506 29.4468 90.6708C29.4952 91.5393 29.5798 92.4077 29.6462 93.2762C29.6523 93.3126 29.6523 93.3491 29.6583 93.3916C29.6946 94.3754 29.7369 95.3592 29.7671 96.3431C29.7731 96.4828 29.7429 96.6285 29.7187 96.8228C29.5918 96.7864 29.4891 96.7864 29.4347 96.7317C28.9573 96.2945 28.4497 95.8754 28.0207 95.3957C27.0962 94.3572 26.2018 93.2822 25.3014 92.2255C24.2923 91.0352 23.2952 89.8388 22.2861 88.6546C20.9869 87.1302 19.6756 85.612 18.3764 84.0876C17.3672 82.8973 16.3581 81.707 15.3489 80.5167C15.216 80.3588 15.0589 80.2252 14.9501 80.0551C14.8413 79.8911 14.7386 79.6968 14.7084 79.5085C14.5754 78.6887 14.4606 77.8567 14.3398 77.0307C14.1101 75.4517 13.8866 73.8667 13.6448 72.2937C13.4998 71.3403 13.3064 70.3929 13.1614 69.4394C12.9862 68.3402 12.8472 67.2288 12.672 66.1296C12.5269 65.1761 12.3577 64.2226 12.2067 63.2692C12.0737 62.425 11.9468 61.5809 11.8199 60.7367C11.6386 59.5282 11.4634 58.3135 11.2821 57.0989C11.1552 56.2548 11.0223 55.4106 10.8893 54.5665C10.7322 53.5766 10.563 52.5867 10.4119 51.5907C10.2307 50.4368 10.0615 49.2708 9.88017 48.1169C9.72306 47.1088 9.55386 46.1006 9.3907 45.0925C9.28193 44.4123 9.18525 43.7321 9.08856 43.0519C8.90123 41.7887 8.70786 40.5195 8.51449 39.2502C8.32112 37.9809 8.11567 36.7177 7.9223 35.4485C7.84978 34.9808 7.90417 34.8594 8.33925 34.659C8.67161 34.5071 9.01605 34.416 9.50552 34.5436C9.33027 34.7318 9.20942 34.8533 9.08856 34.9808C8.88311 35.1934 8.80455 35.4302 8.96771 35.6853C9.48135 36.4991 9.9829 37.3311 10.5449 38.1145C11.2761 39.1409 12.2731 39.894 13.24 40.6774C15.6329 42.6147 18.3039 44.0358 21.2286 44.9771C22.9447 45.5298 24.6911 45.9306 26.4737 46.1856C26.8001 46.2342 26.9934 46.3678 27.1808 46.6836C27.924 47.959 28.9815 48.8031 30.468 49.1311C31.6585 49.3922 32.6314 49.0886 33.4774 48.293C33.9185 47.88 34.3173 47.4063 34.692 46.9205C34.982 46.544 35.3023 46.3375 35.7857 46.2707C37.514 46.0399 39.206 45.6269 40.8617 45.0803C42.2274 44.637 43.5205 44.0419 44.8076 43.4345C45.6718 43.0216 46.4755 42.4629 47.2731 41.9284C48.5844 41.0478 49.8111 40.0579 50.923 38.9223C51.6542 38.1753 52.2766 37.3372 52.7298 36.3898C52.899 36.0376 53.0259 35.661 53.1226 35.2906C53.1588 35.163 53.0742 34.9808 53.0017 34.8472C52.9231 34.7136 52.7902 34.6104 52.6754 34.4768C53.5033 34.1367 54.2465 34.6408 54.1378 35.4302C53.8779 37.2704 53.5939 39.1105 53.322 40.9507C53.2374 41.5398 53.1709 42.1288 53.0863 42.7179C52.8446 44.3577 52.5968 45.9913 52.3612 47.625C52.1436 49.1372 51.9261 50.6433 51.7085 52.1494C51.4064 54.2446 51.0982 56.3459 50.784 58.4411C50.5544 59.9654 50.3066 61.4898 50.0709 63.0141C49.8413 64.5567 49.6298 66.1053 49.4002 67.6539C49.1041 69.658 48.808 71.6621 48.5058 73.6723C48.2339 75.5125 47.9741 77.3526 47.678 79.1927C47.6296 79.5085 47.4967 79.8486 47.3033 80.1037C46.6144 81.0025 45.8833 81.871 45.1642 82.7455C43.6897 84.537 42.2153 86.3286 40.7408 88.1262C39.4658 89.6748 38.1908 91.2174 36.9157 92.766C35.9489 93.9442 34.982 95.1224 34.0031 96.2884C33.8037 96.5253 33.5559 96.7318 33.3021 96.9079C33.0604 97.0779 32.861 97.0111 32.8066 96.7196C32.7401 96.3613 32.7462 95.9848 32.7462 95.6204C32.7462 95.4564 32.8066 95.2924 32.8127 95.1224C32.855 94.0839 32.8912 93.0393 32.9335 92.0008C33.006 90.1971 33.0785 88.3934 33.1631 86.5958C33.2296 85.1626 33.3142 83.7354 33.3807 82.3022C33.4592 80.7049 33.5378 79.1077 33.5982 77.5105C33.6466 76.2655 33.6526 75.0205 33.713 73.7756C33.7795 72.4942 33.9064 71.2188 33.985 69.9374C34.0575 68.826 34.0937 67.7086 34.1481 66.5911C34.2388 64.7874 34.3475 62.9959 34.4321 61.1922C34.4986 59.8561 34.5288 58.514 34.5892 57.1779C34.6738 55.4106 34.7826 53.6494 34.8733 51.8883C34.9216 50.8862 34.9579 49.8841 34.9941 48.876C35.0002 48.7546 34.976 48.6331 34.9579 48.378C34.7826 48.6149 34.6799 48.7606 34.5772 48.9003C33.9427 49.7566 33.1813 50.455 32.1419 50.7465C30.5224 51.202 29.1991 50.6676 28.1053 49.453C27.8455 49.1675 27.6098 48.8578 27.3016 48.4934C27.2654 48.6817 27.217 48.791 27.2231 48.9064C27.2654 49.8173 27.3197 50.7283 27.3741 51.6393C27.4043 52.119 27.4466 52.5988 27.4769 53.0846C27.5373 54.1231 27.6038 55.1556 27.6521 56.188C27.6823 56.8014 27.6944 57.4087 27.7186 58.0706Z" fill="#D14E5D" fill-opacity="0.5"/>
<path d="M108.034 53.7527C107.943 50.6919 107.834 47.631 106.849 44.6552C110.13 44.6127 113.357 44.6127 116.584 44.6127C116.409 45.214 116.191 45.8091 116.065 46.4225C115.871 47.382 115.702 48.3537 115.605 49.3254C115.478 50.5765 115.43 51.8336 115.333 53.1636C115.297 53.2668 115.285 53.2972 115.291 53.3336C115.291 55.9815 115.291 58.6233 115.273 61.3501C115.291 61.4715 115.309 61.5201 115.327 61.5687C115.376 61.508 115.43 61.4473 115.478 61.3865C116.965 58.8783 118.639 56.4795 119.853 53.8134C120.627 52.1069 121.165 50.3335 121.128 48.4266C121.11 47.3335 120.85 46.295 120.494 45.2686C120.427 45.0803 120.367 44.886 120.276 44.6066C120.536 44.5702 120.742 44.5156 120.947 44.5156C122.452 44.5095 123.95 44.5095 125.455 44.5095C126.494 44.5095 127.534 44.5034 128.573 44.5156C129.105 44.5216 129.153 44.6188 129.123 45.1532C128.978 47.7586 127.866 49.957 126.192 51.8761C124.863 53.4004 123.419 54.8215 122.053 56.3155C121.002 57.4633 119.992 58.6536 118.965 59.8257C118.868 59.9411 118.796 60.0687 118.723 60.1962C118.699 60.2387 118.699 60.2934 118.669 60.4088C119.019 60.2752 119.322 60.1476 119.636 60.0504C121.437 59.4856 123.225 59.4917 124.947 60.2934C126.458 60.9978 127.304 62.2975 127.733 63.8704C127.945 64.6538 128.078 65.4676 128.144 66.2814C128.235 67.411 128.235 68.5467 128.259 69.6823C128.283 70.7087 128.235 71.735 128.307 72.7553C128.458 74.8687 128.573 76.9882 129.141 79.0409C129.256 79.466 129.401 79.8851 129.546 80.3588H119.793C119.811 80.2009 119.811 80.0551 119.853 79.9276C120.47 78.215 120.669 76.4234 120.82 74.6197C121.026 72.1662 121.086 69.7127 121.056 67.2592C121.044 66.4454 120.923 65.6316 120.802 64.8239C120.754 64.502 120.609 64.1801 120.446 63.8947C119.799 62.7712 118.488 62.589 117.509 63.4514C116.856 64.0222 116.463 64.7571 116.173 65.5466C115.75 66.664 115.539 67.83 115.388 69.0204C115.231 70.2836 115.261 71.5468 115.376 72.81C115.509 74.31 115.623 75.81 115.829 77.2979C115.944 78.1421 116.222 78.962 116.433 79.7879C116.475 79.964 116.548 80.128 116.608 80.298C116.131 80.4256 107.429 80.4438 106.837 80.3223C106.855 80.2009 106.849 80.0673 106.898 79.9519C107.351 78.8587 107.556 77.6988 107.677 76.5388C107.84 74.9537 108.028 73.3505 108.046 71.7593C108.106 65.8381 108.106 59.9168 108.124 53.9106C108.082 53.8073 108.064 53.777 108.034 53.7527Z" fill="#D14E5D" fill-opacity="0.5"/>
<path d="M59.1895 80.3648C59.8603 78.5551 60.1201 76.6663 60.2773 74.7533C60.4646 72.4699 60.5311 70.1864 60.5311 67.8968C60.525 63.7975 60.5552 59.6982 60.5129 55.5989C60.4948 53.8195 60.3558 52.034 60.2712 50.2485C60.2047 48.9489 60.0355 47.6614 59.7274 46.3921C59.5884 45.8152 59.3769 45.2565 59.2621 44.6492C59.9268 44.6066 60.5371 44.6006 61.1474 44.6006C64.5858 44.5945 68.0241 44.5945 71.4625 44.5884C73.3358 44.6066 75.1486 44.8982 76.8164 45.8213C78.5266 46.7687 79.3846 48.2808 79.6324 50.1817C79.7533 51.1109 79.711 52.034 79.5176 52.951C79.2034 54.4389 78.4057 55.6535 77.3301 56.692C76.2968 57.688 75.1124 58.4836 73.9038 59.2488C73.5231 59.4917 73.1364 59.7407 72.7557 59.9836C72.7678 60.0262 72.7798 60.0747 72.7859 60.1172C73.1666 60.1172 73.5473 60.1112 73.928 60.1172C74.9371 60.1233 75.91 60.342 76.8406 60.7488C78.5447 61.4837 79.7049 62.7651 80.3998 64.4777C80.8349 65.5526 81.1068 66.664 81.131 67.8361C81.131 68.3341 81.2458 68.8382 81.2277 69.3362C81.1552 71.899 80.4361 74.2493 78.732 76.2169C77.4147 77.7413 75.771 78.7919 73.9038 79.5025C72.6711 79.9701 71.384 80.2373 69.9699 80.3831C66.5739 80.3891 63.2684 80.3891 59.9691 80.3891C59.7032 80.3891 59.4494 80.377 59.1895 80.3648ZM67.8912 61.8906C68.29 61.3501 68.6707 60.8035 69.0816 60.2812C69.6013 59.6253 70.1452 58.9937 70.6709 58.3378C71.8553 56.8499 72.4777 55.1434 72.5381 53.2486C72.5744 52.0158 72.4535 50.789 72.0547 49.6169C71.6317 48.3841 70.9005 47.4063 69.6255 46.9569C69.1602 46.793 68.6828 46.6593 68.1087 46.7687C67.9939 48.044 67.8368 49.2951 67.7764 50.5461C67.716 51.8457 67.7341 53.1514 67.728 54.4572C67.728 56.9532 67.728 59.4492 67.716 61.9756C67.7643 61.9756 67.8066 61.9635 67.8912 61.8906ZM67.722 69.0447C67.6676 71.5771 67.8126 74.1035 68.1027 76.6117C68.1692 77.1765 68.3021 77.7352 68.3988 78.2636C68.8641 78.4275 69.2388 78.2939 69.6255 78.2514C71.3114 78.0692 72.3689 77.0854 73.082 75.6157C73.8313 74.0732 73.9703 72.4031 74.0609 70.733C74.0972 69.9981 73.9884 69.2511 73.9703 68.5102C73.9461 67.5932 73.8011 66.7005 73.5594 65.8138C73.3056 64.8725 72.9732 63.9615 72.2299 63.2813C71.3477 62.4797 70.3325 62.3764 69.42 63.1234C68.8037 63.6275 68.3867 64.2894 67.9939 64.9636C67.8006 65.2915 67.716 65.6377 67.722 66.0263C67.7341 66.992 67.722 67.9636 67.722 69.0447Z" fill="#D14E5D" fill-opacity="0.5"/>
<path d="M105.441 66.2814C105.212 68.7835 104.789 71.2006 103.894 73.5084C103.205 75.2999 102.257 76.9336 100.849 78.2575C99.4045 79.6179 97.7185 80.4742 95.7425 80.7596C94.8422 80.8871 93.9478 80.9539 93.0414 80.8628C90.8539 80.6381 88.9202 79.8243 87.3249 78.2879C85.5544 76.5813 84.4848 74.4497 83.7899 72.1176C83.252 70.3139 82.9076 68.4738 82.7686 66.5972C82.6598 65.1154 82.5511 63.6214 82.5752 62.1396C82.6115 59.7468 82.7505 57.3479 83.246 54.9916C83.6569 53.0543 84.237 51.1777 85.2099 49.4408C86.2855 47.5339 87.7177 45.9852 89.7058 45.0135C91.005 44.3759 92.3948 44.0904 93.8391 44.0601C95.4162 44.0236 96.939 44.303 98.3712 44.9771C100.281 45.8759 101.695 47.3152 102.77 49.1129C104.057 51.2688 104.716 53.6434 105.121 56.0969C105.514 58.4897 105.629 60.9067 105.592 63.3299C105.568 64.2894 105.49 65.2551 105.441 66.2814ZM97.2472 55.2649C97.2109 54.8398 97.1566 54.4146 97.1445 53.9895C97.084 52.5563 96.8605 51.1473 96.5825 49.7384C96.3831 48.7303 96.1172 47.7403 95.5854 46.8537C95.386 46.5257 95.1201 46.2221 94.824 45.9852C94.3164 45.5844 93.8209 45.6208 93.2892 45.9974C92.8964 46.2707 92.6426 46.6593 92.4371 47.0784C91.9356 48.0865 91.6818 49.1736 91.4703 50.2667C91.0775 52.2951 90.9385 54.3539 90.8116 56.4127C90.6968 58.2893 90.7089 60.1719 90.6908 62.0485C90.6908 62.753 90.7572 63.4635 90.7572 64.168C90.7572 66.6762 90.8116 69.1843 91.0775 71.6864C91.2104 72.98 91.3917 74.2614 91.6576 75.5368C91.8751 76.5631 92.1833 77.553 92.7695 78.4336C93.4704 79.4721 94.6246 79.5085 95.3316 78.4761C95.664 77.9903 95.9299 77.4437 96.1172 76.8911C96.7094 75.1602 96.9571 73.3565 97.1082 71.5346C97.2291 70.1074 97.3499 68.6803 97.4224 67.2531C97.4829 66.0992 97.4708 64.9453 97.4708 63.7915C97.4708 61.8359 97.4708 59.8804 97.4285 57.9249C97.4104 57.0746 97.3076 56.2244 97.2472 55.2649Z" fill="#D14E5D" fill-opacity="0.5"/>
<path d="M141.517 80.3891C141.565 80.2312 141.577 80.0612 141.662 79.9276C142.242 79.0288 142.472 78.0085 142.586 76.9761C142.713 75.8161 142.731 74.644 142.744 73.478C142.75 72.7006 142.659 71.9233 142.58 71.067C142.315 70.9516 142.079 70.8909 141.849 70.8909C140.363 70.8848 138.87 70.8787 137.384 70.8909C137.13 70.8909 136.882 70.9637 136.628 71.0002C136.628 72.0994 136.556 73.2047 136.664 74.2918C136.828 76.0165 137.184 77.7048 137.994 79.2656C138.169 79.6057 138.381 79.9276 138.58 80.2737C138.163 80.4316 130.785 80.4863 129.866 80.3466C129.897 80.2252 129.909 80.0976 129.963 79.9944C130.761 78.5065 131.208 76.8911 131.582 75.2635C131.951 73.6541 132.277 72.0326 132.567 70.405C132.803 69.069 132.96 67.7207 133.154 66.3786C133.407 64.6538 133.661 62.9291 133.909 61.2043C134.042 60.2691 134.157 59.3278 134.284 58.3925C134.447 57.1779 134.64 55.9694 134.779 54.7547C134.93 53.4672 135.021 52.1676 135.16 50.8801C135.305 49.5623 135.335 48.2444 135.257 46.9266C135.22 46.3192 135.105 45.7119 135.027 45.1046C135.009 44.9771 134.997 44.8496 135.027 44.6735C139.323 44.6249 143.571 44.6309 147.807 44.6309C147.735 45.05 147.644 45.469 147.602 45.8881C147.523 46.7019 147.403 47.5156 147.439 48.3294C147.511 49.9995 147.65 51.6696 147.807 53.3276C147.94 54.694 148.134 56.0544 148.321 57.4147C148.508 58.7387 148.726 60.0565 148.919 61.3744C149.052 62.2914 149.161 63.2145 149.288 64.1315C149.475 65.5101 149.663 66.8887 149.862 68.2673C149.989 69.1297 150.116 69.9921 150.285 70.8484C150.587 72.4334 150.895 74.0185 151.24 75.5975C151.53 76.9275 151.929 78.2211 152.509 79.4539C152.642 79.7393 152.793 80.0187 152.896 80.3405C152.726 80.3891 152.593 80.4013 152.46 80.4013C148.811 80.3952 145.161 80.3891 141.511 80.3891M142.079 67.2531C142.031 66.8826 141.988 66.5183 141.94 66.1478C141.807 65.1943 141.668 64.2409 141.529 63.2813C141.342 61.9938 141.148 60.7124 140.967 59.4249C140.828 58.4289 140.719 57.433 140.568 56.443C140.369 55.1556 140.157 53.8802 139.934 52.5988C139.825 51.9915 139.674 51.3903 139.547 50.783H139.414C139.372 50.9348 139.323 51.0866 139.293 51.2384C139.16 51.9672 139.021 52.696 138.906 53.4308C138.689 54.8033 138.471 56.1819 138.272 57.5544C138.139 58.435 138.03 59.3217 137.903 60.2023C137.698 61.6355 137.486 63.0688 137.275 64.4959C137.13 65.4676 136.991 66.4454 136.924 67.4717C137.22 67.49 137.51 67.5203 137.807 67.5203C139.063 67.5264 140.32 67.5264 141.577 67.5142C141.753 67.5264 141.994 67.6357 142.079 67.2531Z" fill="#D14E5D" fill-opacity="0.5"/>
<path d="M173.296 71.3342C173.302 71.2188 173.314 71.1156 173.314 71.0002C173.314 65.2551 173.308 59.5099 173.302 53.692C173.284 53.5766 173.266 53.5462 173.236 53.528C173.133 50.54 173.018 47.5521 172.051 44.6552C178.058 44.6188 184.016 44.6188 189.98 44.6188C189.98 45.8152 189.986 47.0116 189.938 48.2566C189.829 48.3173 189.769 48.3234 189.708 48.3355C186.995 47.1877 184.131 47.0116 181.176 46.9508C180.723 49.04 180.59 51.123 180.541 53.2851C180.517 53.3822 180.511 53.4126 180.511 53.443C180.499 53.5341 180.481 53.6251 180.481 53.7162C180.481 55.939 180.487 58.1557 180.499 60.4331C180.511 60.4938 180.535 60.5059 180.535 60.5059L180.56 60.4877C181.798 60.5059 183.037 60.4513 184.27 60.3116C185.575 60.1598 186.874 59.9836 188.149 59.6557C188.312 59.6132 188.5 59.6496 188.76 59.6496C188.711 59.8925 188.693 60.093 188.645 60.2812C188.331 61.4047 188.004 62.5343 187.678 63.6578C187.551 64.1012 187.485 64.1498 187.049 63.9736C186.034 63.5546 184.989 63.2388 183.907 63.0688C182.977 62.923 182.04 62.8501 181.019 62.7226C180.789 62.7165 180.638 62.7347 180.487 62.7469C180.481 64.6113 180.469 66.4697 180.469 68.3341C180.469 69.3422 180.475 70.3443 180.487 71.4253C180.505 71.5407 180.523 71.565 180.547 71.5893C180.553 73.3565 180.662 75.1116 180.964 76.8607C181.025 77.1886 181.079 77.5227 181.176 77.9174C182.016 78.0085 182.807 78.0328 183.599 78.0389C183.702 78.0389 183.811 77.9842 183.913 77.9538C185.617 77.8384 187.285 77.5105 188.88 76.8728C189.376 76.6724 189.847 76.4113 190.343 76.1926C190.518 76.1137 190.705 76.0773 190.923 76.0044C190.959 76.2048 190.995 76.3323 190.995 76.4538C191.001 77.6441 191.001 78.8344 190.995 80.0308C190.995 80.1219 190.959 80.213 190.875 80.3466C184.536 80.3952 178.263 80.3952 171.997 80.3952C172.112 79.9883 172.226 79.5814 172.347 79.1745C172.728 77.8324 172.927 76.4599 173.018 75.0752C173.091 73.9092 173.163 72.7492 173.254 71.5103C173.284 71.4071 173.296 71.3706 173.296 71.3342Z" fill="#D14E5D" fill-opacity="0.5"/>
<path d="M154.485 72.1176C154.491 72.0022 154.503 71.899 154.503 71.7836C154.503 65.5223 154.497 59.2488 154.491 52.9085C154.473 52.7931 154.455 52.7628 154.424 52.7446C154.418 51.0745 154.267 49.4226 154.001 47.7707C153.85 46.8355 153.675 45.9124 153.331 45.0257C153.294 44.9224 153.3 44.8071 153.343 44.6552C159.331 44.6127 165.253 44.6127 171.181 44.6127V48.3598C171.006 48.3234 170.867 48.3234 170.74 48.2687C169.278 47.6371 167.737 47.3213 166.166 47.1756C165.078 47.0723 163.99 47.0237 162.896 46.963C162.371 46.9326 162.377 46.9448 162.292 47.4367C162.129 48.4084 161.972 49.3801 161.936 50.3639C161.887 51.7182 161.797 53.0725 161.706 54.4997C161.67 54.6029 161.658 54.6333 161.664 54.6697C161.633 56.5827 161.652 58.4957 161.645 60.4513C162.643 60.5424 163.561 60.4816 164.474 60.4027C165.38 60.3237 166.274 60.2205 167.175 60.099C168.081 59.9776 168.969 59.7407 169.979 59.5342C169.846 60.433 169.568 61.1315 169.362 61.8541C169.151 62.5829 168.939 63.3117 168.703 64.1012C167.936 63.8461 167.235 63.5667 166.516 63.3724C165.767 63.172 164.999 63.0262 164.232 62.9169C163.483 62.8015 162.727 62.7651 161.899 62.674C161.772 62.6801 161.712 62.7044 161.658 62.7287C161.652 65.1883 161.652 67.6478 161.658 70.1864C161.676 70.3018 161.694 70.3261 161.718 70.3504C161.754 71.5407 161.742 72.731 161.839 73.9152C161.954 75.4092 162.087 76.9093 162.431 78.3729C162.546 78.8587 162.709 79.3324 162.848 79.8183C162.896 79.9762 162.933 80.128 162.969 80.2798C162.516 80.4256 154.05 80.4559 153.282 80.3284C153.3 80.1827 153.288 80.0126 153.337 79.8729C153.802 78.5854 154.026 77.2554 154.146 75.9072C154.249 74.729 154.316 73.5387 154.418 72.2877C154.485 72.1844 154.491 72.1541 154.485 72.1176Z" fill="#D14E5D" fill-opacity="0.5"/>
<path d="M33.3928 42.2807C31.5376 42.3839 29.8033 42.1167 28.1597 41.3029C26.516 40.4891 25.1806 39.2745 23.9962 37.9081C23.1442 36.9242 22.6789 35.7157 22.4674 34.416C22.129 32.3755 22.7212 30.5718 23.9055 28.9503C24.6488 27.93 25.4223 26.9219 26.2683 25.9866C29.1688 22.7861 30.879 19.033 31.5497 14.7879C31.7068 13.7798 31.8458 12.7534 31.87 11.7332C31.8942 10.8647 31.7914 9.98412 31.6585 9.12174C31.4047 7.40914 31.1086 5.70261 30.8064 3.99608C30.5949 2.81183 30.2324 1.68224 29.5677 0.668037C29.477 0.528356 29.4106 0.370457 29.3441 0.21863C29.326 0.176119 29.338 0.115388 29.338 0C29.4649 0.0789498 29.5737 0.127534 29.6644 0.200411C30.8608 1.15996 31.7129 2.39279 32.3836 3.7653C33.3746 5.7937 34.2388 7.87069 34.6799 10.1056C35.0787 12.1401 35.3265 14.1867 35.2298 16.2697C35.0968 19.1241 34.2388 21.7598 32.8368 24.2194C32.0996 25.5129 31.2838 26.764 30.5829 28.0697C29.9665 29.2114 29.2716 30.3289 28.9513 31.6103C28.7398 32.4241 28.6008 33.25 28.8184 34.0942C29.0722 35.0902 29.6221 35.8493 30.5164 36.3412C31.9183 37.1003 33.3686 37.3433 34.9035 36.736C35.6105 36.4566 36.1302 35.9525 36.5471 35.3634C37.0789 34.6165 36.7224 33.6448 35.8401 33.3229C35.0122 33.0192 34.1421 32.9585 33.2719 32.8735C33.0785 32.8553 32.8912 32.8249 32.6978 32.7945C32.6978 32.752 32.6978 32.7156 32.6918 32.6731C32.8429 32.6306 32.9939 32.5577 33.145 32.5516C35.0304 32.3937 36.9278 32.2601 38.789 32.6852C39.5202 32.8492 40.2514 33.1103 40.9402 33.4201C41.8104 33.8027 42.2818 34.7318 42.1126 35.6732C42.034 36.1165 41.8648 36.5781 41.6291 36.9667C39.9311 39.815 37.4415 41.5337 34.2085 42.1835C33.9608 42.226 33.6949 42.2442 33.3928 42.2807Z" fill="#D14E5D" fill-opacity="0.5"/>
<path d="M11.3667 67.1499C11.7655 69.7248 12.1764 72.2391 12.4544 74.7837C12.4182 74.8019 12.3759 74.8201 12.3336 74.8384C12.2187 74.729 12.0918 74.6379 11.9952 74.5104C9.78349 71.6682 7.57181 68.8199 5.36014 65.9778C3.83131 64.0101 2.36291 61.9938 1.26916 59.7407C0.676961 58.514 0.175408 57.2568 0.036423 55.8783C-0.138819 54.1535 0.314393 52.6292 1.48066 51.3477C1.83718 50.953 2.25414 50.6008 2.68318 50.2789C4.04281 49.2404 5.54747 49.1797 7.1186 49.6716C7.59599 49.8173 8.04315 50.042 8.51449 50.2121C8.82872 50.3275 8.97375 50.5097 9.02209 50.8558C9.25776 52.6656 9.5176 54.4693 9.77744 56.273C9.83183 56.6617 9.90434 57.0443 9.95268 57.4269C9.97685 57.6394 9.98894 57.8459 9.95268 58.0646C9.62637 57.2508 9.24567 56.4916 8.55679 55.9451C8.07941 55.5685 7.57786 55.2163 7.05213 54.9066C6.59288 54.6333 6.06111 54.5968 5.53539 54.6515C4.76795 54.7304 4.32682 55.2649 4.27848 56.024C4.16367 57.8277 4.82233 59.4188 5.57768 60.9857C6.23031 62.3521 7.20925 63.4635 8.3453 64.4413C8.59909 64.6599 8.88311 64.836 9.17316 64.9939C9.55386 65.2065 9.74723 65.1336 10.0131 64.7692C10.3334 64.3441 10.3636 63.84 10.3938 63.336C10.4119 63.1173 10.3938 62.8987 10.3938 62.5586C10.5207 62.7165 10.6174 62.7773 10.6355 62.8562C10.7564 63.4757 10.8833 64.0951 10.986 64.7206C11.1189 65.5162 11.2277 66.3118 11.3546 67.1499H11.3667Z" fill="#D14E5D" fill-opacity="0.5"/>
<path d="M25.9057 43.2706C23.972 43.2645 22.1229 42.8697 20.3101 42.2199C20.0502 42.1288 19.7904 42.0195 19.5245 41.9527C17.6875 41.5276 16.0559 40.6652 14.5271 39.5964C13.7355 39.0437 12.962 38.4729 12.2067 37.8716C11.2881 37.1368 10.6718 36.159 10.134 35.1327C9.89226 34.6711 9.99498 34.4343 10.4905 34.3067C11.1371 34.1428 11.7897 34.0031 12.4484 33.9059C13.4515 33.748 14.4667 33.6144 15.4758 33.5112C16.4487 33.4079 17.4276 33.3533 18.4066 33.2865C18.7752 33.2622 19.1438 33.2318 19.5124 33.2197C19.6151 33.2136 19.7118 33.2622 19.8992 33.3047C19.7239 33.4201 19.6212 33.4929 19.5185 33.5597C18.89 33.9423 18.7208 34.41 19.0471 35.0719C19.3009 35.5821 19.6212 36.074 19.9475 36.5477C21.4945 38.7765 23.3496 40.6713 25.7546 41.9649C26.4194 42.3232 27.1385 42.5843 27.8334 42.888C27.9663 42.9487 28.1053 43.0034 28.2322 43.0702C28.2443 43.0762 28.202 43.1856 28.0993 43.2584C27.3137 43.2584 26.6067 43.2706 25.9057 43.2706Z" fill="#D14E5D" fill-opacity="0.5"/>
<path d="M31.03 31.2034C31.0542 29.6851 31.447 28.3248 32.1721 27.0555C32.9939 25.6223 33.8339 24.1951 34.6074 22.7254C35.4111 21.1889 35.961 19.5431 36.39 17.8609C36.6861 16.7191 36.668 15.5774 36.4142 14.4296C36.1845 13.379 35.9368 12.3283 35.6709 11.1623C35.8099 11.3384 35.9005 11.4174 35.9428 11.5145C36.1906 12.055 36.4625 12.5895 36.668 13.1421C37.2058 14.63 37.7859 16.1058 37.9672 17.6969C38.2391 20.0047 38.2935 22.3064 37.5744 24.5534C37.3871 25.1303 37.1212 25.6891 36.8251 26.2235C35.7374 28.2155 34.2508 29.9038 32.7341 31.5617C32.3111 32.0293 31.9364 32.5395 31.5437 33.0314C31.4289 33.1711 31.314 33.3107 31.2174 33.4322C30.9273 33.3715 30.9696 33.1954 30.9756 33.0314C30.9998 32.4484 31.0119 31.8471 31.03 31.2034Z" fill="#D14E5D" fill-opacity="0.5"/>
<path d="M49.6359 37.7076C47.8049 39.4142 45.8591 40.8899 43.6414 41.9709C42.9767 42.2928 42.2878 42.5479 41.5385 42.639C40.6381 42.7483 39.7498 42.9244 38.8555 43.0762C38.6802 43.1066 38.4989 43.1916 38.3358 42.9548C38.4264 42.888 38.4929 42.7908 38.5896 42.7665C39.3026 42.5904 39.9009 42.1714 40.5535 41.8677C41.7016 41.3272 42.4932 40.398 43.2123 39.402C43.726 38.6915 44.1067 37.902 44.4632 37.1064C44.7472 36.4627 44.9043 35.8129 44.7049 35.1023C44.5176 34.4525 44.1127 33.9545 43.6535 33.4929C43.5266 33.3654 43.3936 33.25 43.1761 33.0496C43.7683 32.9524 44.2638 32.9767 44.7472 33.001C46.2277 33.0739 47.7022 33.2318 49.1524 33.5537C49.8776 33.7176 50.5967 33.8877 51.3097 34.0942C52.0228 34.3067 52.1678 34.7258 51.7267 35.3452C51.3822 35.8311 51.0015 36.2866 50.6088 36.7299C50.3127 37.07 49.9803 37.3676 49.6359 37.7076Z" fill="#D14E5D" fill-opacity="0.5"/>
<path d="M136.671 70.9941C136.87 70.9577 137.124 70.8909 137.372 70.8848C138.858 70.8726 140.351 70.8726 141.837 70.8848C142.073 70.8848 142.302 70.9516 142.574 71.0123C142.393 71.0245 142.176 70.988 141.958 70.988C140.218 70.988 138.471 70.9941 136.671 70.9941Z" fill="#D14E5D" fill-opacity="0.5"/>
</svg>
