<svg width="87" height="86" viewBox="0 0 87 86" fill="none" xmlns="http://www.w3.org/2000/svg">
<path fill-rule="evenodd" clip-rule="evenodd" d="M43.5 68.0833C44.4614 68.0833 45.3834 68.4609 46.0633 69.1329C46.7431 69.8049 47.125 70.7163 47.125 71.6667V75.25C47.125 76.2004 46.7431 77.1118 46.0633 77.7838C45.3834 78.4558 44.4614 78.8333 43.5 78.8333C42.5386 78.8333 41.6166 78.4558 40.9367 77.7838C40.2569 77.1118 39.875 76.2004 39.875 75.25V71.6667C39.875 70.7163 40.2569 69.8049 40.9367 69.1329C41.6166 68.4609 42.5386 68.0833 43.5 68.0833ZM61.4438 60.7375C62.068 60.1205 62.8984 59.7499 63.7794 59.6951C64.6604 59.6404 65.5313 59.9053 66.2288 60.4401L66.5695 60.7375L69.1324 63.2709C69.7825 63.9158 70.16 64.7811 70.1881 65.691C70.2162 66.601 69.8928 67.4875 69.2837 68.1703C68.6746 68.8532 67.8254 69.2813 66.9085 69.3676C65.9917 69.4539 65.076 69.1921 64.3474 68.6352L64.0066 68.3377L61.4438 65.8043C60.7642 65.1324 60.3824 64.2211 60.3824 63.2709C60.3824 62.3207 60.7642 61.4095 61.4438 60.7375ZM25.5563 60.7375C26.2358 61.4095 26.6176 62.3207 26.6176 63.2709C26.6176 64.2211 26.2358 65.1324 25.5563 65.8043L22.9934 68.3377C22.3097 68.9905 21.394 69.3517 20.4435 69.3435C19.4931 69.3353 18.5839 68.9585 17.9118 68.2941C17.2397 67.6297 16.8584 66.731 16.8502 65.7914C16.8419 64.8519 17.2073 63.9467 17.8676 63.2709L20.4305 60.7375C21.1103 60.0657 22.0322 59.6883 22.9934 59.6883C23.9546 59.6883 24.8765 60.0657 25.5563 60.7375ZM43.5 7.16667C44.3879 7.16678 45.2449 7.48901 45.9084 8.07223C46.5719 8.65545 46.9957 9.4591 47.0996 10.3307L47.125 10.75V14.6917L76.7594 43.989C78.967 46.1677 77.5678 49.8298 74.5844 50.1452L74.1711 50.1667H61.2625C60.4374 54.146 58.2694 57.7303 55.1137 60.3322C51.9581 62.934 48.0019 64.3992 43.8936 64.4874C39.7853 64.5757 35.7684 63.2819 32.5014 60.8181C29.2343 58.3542 26.9107 54.8665 25.9115 50.9263L25.7375 50.1667H12.8289C9.70775 50.1667 8.08012 46.5977 9.9615 44.2936L10.2406 43.989L39.875 14.6917V10.75C39.875 9.79964 40.2569 8.88821 40.9367 8.2162C41.6166 7.54419 42.5386 7.16667 43.5 7.16667ZM53.7588 50.1667H33.2412C33.9721 52.2102 35.3105 53.9877 37.0811 55.2662C38.8517 56.5447 40.9718 57.2644 43.1634 57.331C45.355 57.3977 47.5159 56.8081 49.3626 55.6396C51.2093 54.4711 52.6558 52.7783 53.5122 50.783L53.7588 50.1667ZM65.5074 43L43.7537 21.4928L43.5 21.5L43.2535 21.4928L21.4963 43H65.5074Z" fill="#2E2618"/>
</svg>
