<svg width="28" height="38" viewBox="0 0 28 38" fill="none" xmlns="http://www.w3.org/2000/svg">
<path d="M14 2C7.375 2 2 7.0177 2 13.1977C2 20.3086 10 31.5774 12.9375 35.4696C13.0594 35.6339 13.2192 35.7676 13.4039 35.8598C13.5886 35.952 13.7928 36 14 36C14.2072 36 14.4115 35.952 14.5961 35.8598C14.7808 35.7676 14.9406 35.6339 15.0625 35.4696C18 31.579 26 20.3143 26 13.1977C26 7.0177 20.625 2 14 2Z" stroke="#2E2618" stroke-width="4" stroke-linecap="round" stroke-linejoin="round"/>
<path d="M14 17.6931C16.2091 17.6931 18 15.9366 18 13.7698C18 11.6031 16.2091 9.84654 14 9.84654C11.7909 9.84654 10 11.6031 10 13.7698C10 15.9366 11.7909 17.6931 14 17.6931Z" stroke="#2E2618" stroke-width="4" stroke-linecap="round" stroke-linejoin="round"/>
</svg>
