<svg width="83" height="63" viewBox="0 0 83 63" fill="none" xmlns="http://www.w3.org/2000/svg">
<path d="M9.06145 16.2387L9.39286 16.12V15.768V12C9.39286 8.94809 10.5908 6.02237 12.7214 3.86615C14.8517 1.71013 17.7398 0.5 20.75 0.5H62.25C65.2602 0.5 68.1482 1.71013 70.2786 3.86615C72.4091 6.02237 73.6071 8.94809 73.6071 12V15.768V16.12L73.9385 16.2387C76.4411 17.1351 78.6087 18.7948 80.1423 20.9904C81.676 23.1862 82.5 25.8098 82.5 28.5V42C82.5 47.3625 78.8761 51.863 73.9811 53.1381L73.6071 53.2356V53.622V60C73.6071 60.665 73.3461 61.3015 72.8833 61.7699C72.4206 62.2381 71.7945 62.5 71.1429 62.5C70.4912 62.5 69.8651 62.2381 69.4025 61.7699C68.9396 61.3015 68.6786 60.665 68.6786 60V54V53.5H68.1786H14.8214H14.3214V54V60C14.3214 60.665 14.0604 61.3015 13.5975 61.7699C13.1349 62.2381 12.5088 62.5 11.8571 62.5C11.2055 62.5 10.5794 62.2381 10.1167 61.7699C9.65392 61.3015 9.39286 60.665 9.39286 60V53.622V53.236L9.01946 53.1383C6.58271 52.5005 4.42315 51.0614 2.88066 49.0455C1.3381 47.0295 0.500349 44.5513 0.5 42C0.5 42 0.5 42 0.5 41.9999V28.5C0.500032 25.8098 1.32398 23.1862 2.85764 20.9904C4.39125 18.7948 6.55887 17.1351 9.06145 16.2387ZM68.235 15.5808L68.6786 15.5304V15.084V12C68.6786 10.278 68.0027 8.62536 66.7978 7.40593C65.5927 6.18629 63.9569 5.5 62.25 5.5H20.75C19.0431 5.5 17.4073 6.18629 16.2022 7.40593C14.9973 8.62536 14.3214 10.278 14.3214 12V15.084V15.5305L14.7651 15.5808C17.6581 15.9086 20.3561 17.2218 22.4162 19.3062C24.4765 21.3908 25.7765 24.123 26.1016 27.0551L26.1509 27.5H26.5985H56.4044H56.8521L56.9014 27.0551C57.2264 24.1234 58.5259 21.3916 60.5856 19.307C62.6452 17.2226 65.3426 15.9092 68.235 15.5808ZM11.8571 48.5H71.1429C72.8498 48.5 74.4855 47.8137 75.6907 46.5941C76.8956 45.3746 77.5714 43.722 77.5714 42V28.5C77.5714 26.3802 76.7394 24.346 75.2565 22.8453C73.7735 21.3443 71.7607 20.5 69.6607 20.5C67.5607 20.5 65.548 21.3443 64.0649 22.8453C62.582 24.346 61.75 26.3802 61.75 28.5V30C61.75 30.665 61.4889 31.3015 61.0261 31.7699C60.5635 32.2381 59.9373 32.5 59.2857 32.5H23.7143C23.0627 32.5 22.4365 32.2381 21.9739 31.7699C21.5111 31.3015 21.25 30.665 21.25 30V28.5C21.25 26.3802 20.418 24.346 18.9351 22.8453C17.452 21.3443 15.4393 20.5 13.3393 20.5C11.2393 20.5 9.22653 21.3443 7.74345 22.8453C6.26058 24.346 5.42857 26.3802 5.42857 28.5V42C5.42857 43.722 6.10443 45.3746 7.30935 46.5941C8.51446 47.8137 10.1502 48.5 11.8571 48.5Z" fill="#2E2618" stroke="#2E2618"/>
</svg>
