<svg width="176" height="176" viewBox="0 0 176 176" fill="none" xmlns="http://www.w3.org/2000/svg">
<path d="M88 0C70.5953 0 53.5814 5.16111 39.1098 14.8307C24.6383 24.5002 13.3591 38.244 6.69864 54.3239C0.0381289 70.4037 -1.70456 88.0976 1.69093 105.168C5.08643 122.238 13.4676 137.918 25.7746 150.225C38.0817 162.532 53.7618 170.914 70.8321 174.309C87.9024 177.705 105.596 175.962 121.676 169.301C137.756 162.641 151.5 151.362 161.169 136.89C170.839 122.419 176 105.405 176 88C176 64.6609 166.729 42.2778 150.225 25.7746C133.722 9.2714 111.339 0 88 0ZM75.4286 123.137L44 91.7086L53.9943 81.7143L75.4286 103.149L122.006 56.5714L132.038 66.5406L75.4286 123.137Z" fill="#D14E5D"/>
</svg>
