<svg width="70" height="69" viewBox="0 0 70 69" fill="none" xmlns="http://www.w3.org/2000/svg">
<path d="M43.8889 29.25C37.6667 35.837 31.4444 52 31.4444 52C31.4444 52 22.5556 29.25 13.6667 24M67 5.1V63.9C67 64.457 66.7752 64.9911 66.3752 65.3849C65.9751 65.7788 65.4325 66 64.8667 66H5.13333C4.56754 66 4.02492 65.7788 3.62484 65.3849C3.22476 64.9911 3 64.457 3 63.9V5.1C3 4.54305 3.22476 4.0089 3.62484 3.61508C4.02492 3.22125 4.56754 3 5.13333 3H64.8667C65.4325 3 65.9751 3.22125 66.3752 3.61508C66.7752 4.0089 67 4.54305 67 5.1ZM56.3902 16.055L57.4427 26.835C58.1253 33.828 52.7991 40.0545 45.6951 40.73C38.7262 41.388 32.4116 36.3725 31.7396 29.5125C31.5797 27.8808 31.7479 26.2341 32.2346 24.6663C32.7213 23.0986 33.517 21.6407 34.5762 20.3757C35.6354 19.1107 36.9374 18.0636 38.4077 17.294C39.8781 16.5244 41.4881 16.0475 43.1458 15.8905L54.8222 14.7845C55.2007 14.7494 55.5779 14.8634 55.8711 15.1015C56.1644 15.3397 56.3498 15.6825 56.3867 16.055H56.3902Z" stroke="#2E2618" stroke-width="5" stroke-linecap="round" stroke-linejoin="round"/>
</svg>
