<svg width="63" height="45" viewBox="0 0 63 45" fill="none" xmlns="http://www.w3.org/2000/svg">
<path d="M1.83509 12.5532C18.4407 -3.63416 45.0568 -3.51689 61.5174 12.905L61.5174 12.9051C61.6705 13.0577 61.7919 13.2389 61.8746 13.4382C61.9574 13.6375 62 13.8511 62 14.0668C62 14.2825 61.9574 14.4961 61.8746 14.6954C61.7919 14.8947 61.6705 15.0759 61.5174 15.2285L61.5173 15.2286L59.9997 16.7429L59.9996 16.743C59.8466 16.8958 59.665 17.017 59.4649 17.0997C59.2649 17.1824 59.0504 17.225 58.8338 17.225C58.6172 17.225 58.4028 17.1824 58.2027 17.0997C58.0027 17.017 57.821 16.8958 57.668 16.743L57.6679 16.7429C43.2127 2.32213 19.7801 2.32208 5.32779 16.7429C5.01897 17.0506 4.60019 17.2236 4.16333 17.2236C3.72637 17.2236 3.30749 17.0505 2.99865 16.7427L1.48146 15.2288L1.83509 12.5532ZM1.83509 12.5532L1.83566 12.5538L1.48146 12.9076C1.17304 13.2157 1 13.6332 1 14.0682C1 14.5031 1.17296 14.9205 1.48124 15.2286L1.83509 12.5532ZM10.9291 21.6635C22.4987 10.4779 40.9704 10.5889 52.4059 21.9967L52.4059 21.9968C52.559 22.1494 52.6803 22.3305 52.7631 22.5299C52.8459 22.7292 52.8885 22.9428 52.8885 23.1585C52.8885 23.3742 52.8459 23.5878 52.7631 23.7871C52.6803 23.9864 52.559 24.1675 52.4059 24.3202L52.4058 24.3203L50.8882 25.8346L50.8877 25.835C50.7347 25.9881 50.5529 26.1096 50.3527 26.1925C50.1524 26.2754 49.9377 26.3181 49.7209 26.3181C49.504 26.3181 49.2893 26.2754 49.089 26.1925C48.8888 26.1096 48.707 25.9881 48.554 25.835L48.5535 25.8346C44.0295 21.3206 37.8938 18.7848 31.4964 18.7848C25.099 18.7848 18.9634 21.3206 14.4393 25.8346C14.1305 26.1422 13.7117 26.3152 13.2748 26.3152C12.838 26.3152 12.4192 26.1422 12.1104 25.8346L10.9291 21.6635ZM10.9291 21.6635L10.593 21.9993C10.2845 22.3074 10.1115 22.7249 10.1115 23.1599C10.1115 23.5949 10.2845 24.0124 10.593 24.3205L12.1102 25.8344L10.9291 21.6635ZM29.0019 40.0598C29.3266 39.7641 29.7006 39.5266 30.1076 39.3583C30.5683 39.1678 31.0621 39.0698 31.5608 39.0698C32.0596 39.0698 32.5534 39.1678 33.0141 39.3583C33.4748 39.5488 33.8933 39.828 34.2457 40.1799L34.2459 40.1801C34.399 40.3327 34.5203 40.5139 34.6031 40.7132C34.6859 40.9125 34.7285 41.1261 34.7285 41.3418C34.7285 41.5575 34.6859 41.7711 34.6031 41.9704C34.5203 42.1697 34.399 42.3509 34.2459 42.5035L34.2458 42.5036L32.7282 44.0179L32.7281 44.018C32.5751 44.1708 32.3934 44.292 32.1934 44.3747C31.9933 44.4574 31.7789 44.5 31.5623 44.5C31.3457 44.5 31.1312 44.4574 30.9312 44.3747C30.7311 44.292 30.5495 44.1708 30.3965 44.018L30.3964 44.0179L28.879 42.5038L28.8788 42.5036M29.0019 40.0598L28.8788 42.5036M29.0019 40.0598L28.879 40.1826C28.5706 40.4907 28.3975 40.9082 28.3975 41.3432C28.3975 41.7781 28.5705 42.1955 28.8788 42.5036M29.0019 40.0598L28.8788 42.5036M20.0207 30.8379C21.5147 29.4097 23.2629 28.2705 25.1764 27.4795C27.2005 26.6428 29.3699 26.2122 31.5608 26.2122C33.7518 26.2122 35.9212 26.6428 37.9453 27.4795C39.9694 28.3162 41.8083 29.5425 43.3573 31.0883L43.3574 31.0884C43.5105 31.241 43.6318 31.4222 43.7146 31.6215C43.7974 31.8208 43.84 32.0344 43.84 32.2501C43.84 32.4658 43.7974 32.6794 43.7146 32.8787C43.6318 33.078 43.5105 33.2592 43.3574 33.4118L43.3573 33.4119L41.8397 34.9263L41.8396 34.9264C41.6866 35.0791 41.5049 35.2003 41.3049 35.283C41.1049 35.3657 40.8904 35.4083 40.6738 35.4083C40.4572 35.4083 40.2427 35.3657 40.0427 35.283C39.8426 35.2003 39.661 35.0791 39.508 34.9264L39.5079 34.9263C38.4643 33.8847 37.2253 33.0585 35.8618 32.4948C34.4982 31.9311 33.0367 31.641 31.5608 31.641C30.085 31.641 28.6235 31.9311 27.2599 32.4948C25.8965 33.0584 24.6576 33.8845 23.614 34.926C23.3052 35.2338 22.8863 35.4069 22.4493 35.4069C22.0125 35.4069 21.5937 35.2339 21.2849 34.9263L20.0207 30.8379ZM21.2847 34.926L19.7675 33.4122L19.7672 33.4119L21.2847 34.926Z" fill="#2E2618" stroke="#2E2618"/>
</svg>
